<svg width="21" height="21" viewBox="0 0 21 21" fill="none" xmlns="http://www.w3.org/2000/svg">
    <path
        d="M10.5 0C4.71046 0 0 4.71006 0 10.5C0 16.2899 4.71046 21 10.5 21C16.2895 21 21 16.2899 21 10.5C21 4.71006 16.2895 0 10.5 0ZM15.5481 11.3077H11.3077V15.75C11.3077 16.1958 10.9458 16.5577 10.5 16.5577C10.0542 16.5577 9.69231 16.1958 9.69231 15.75V11.3077H5.45192C5.00608 11.3077 4.64423 10.9458 4.64423 10.5C4.64423 10.0542 5.00608 9.69231 5.45192 9.69231H9.69231V5.65385C9.69231 5.208 10.0542 4.84615 10.5 4.84615C10.9458 4.84615 11.3077 5.208 11.3077 5.65385V9.69231H15.5481C15.9939 9.69231 16.3558 10.0542 16.3558 10.5C16.3558 10.9458 15.9939 11.3077 15.5481 11.3077Z"
        fill="#4294FE" />
</svg>