<svg width="68" height="13" viewBox="0 0 68 13" fill="none" xmlns="http://www.w3.org/2000/svg">
<path d="M5.23682 2.75684L2.05078 12H0.124512L4.13818 1.33594H5.36865L5.23682 2.75684ZM7.90283 12L4.70947 2.75684L4.57031 1.33594H5.80811L9.83643 12H7.90283ZM7.74902 8.04492V9.50244H1.94824V8.04492H7.74902ZM14.4483 10.3594V0.75H16.2207V12H14.6167L14.4483 10.3594ZM9.29201 8.12549V7.97168C9.29201 7.37109 9.36281 6.82422 9.50441 6.33105C9.64601 5.83301 9.85109 5.40576 10.1196 5.04932C10.3882 4.68799 10.7153 4.41211 11.1011 4.22168C11.4868 4.02637 11.9214 3.92871 12.4048 3.92871C12.8833 3.92871 13.3032 4.02148 13.6646 4.20703C14.0259 4.39258 14.3335 4.65869 14.5874 5.00537C14.8413 5.34717 15.044 5.75732 15.1953 6.23584C15.3467 6.70947 15.4541 7.23682 15.5176 7.81787V8.30859C15.4541 8.875 15.3467 9.39258 15.1953 9.86133C15.044 10.3301 14.8413 10.7354 14.5874 11.0771C14.3335 11.4189 14.0235 11.6826 13.6572 11.8682C13.2959 12.0537 12.8735 12.1465 12.3902 12.1465C11.9116 12.1465 11.4795 12.0464 11.0938 11.8462C10.7129 11.646 10.3882 11.3652 10.1196 11.0039C9.85109 10.6426 9.64601 10.2178 9.50441 9.72949C9.36281 9.23633 9.29201 8.70166 9.29201 8.12549ZM11.0571 7.97168V8.12549C11.0571 8.48682 11.0889 8.82373 11.1524 9.13623C11.2207 9.44873 11.3257 9.72461 11.4673 9.96387C11.6089 10.1982 11.792 10.3838 12.0166 10.5205C12.2461 10.6523 12.5195 10.7183 12.8369 10.7183C13.2373 10.7183 13.5669 10.6304 13.8257 10.4546C14.0845 10.2788 14.2871 10.042 14.4336 9.74414C14.585 9.44141 14.6875 9.10449 14.7412 8.7334V7.40771C14.7119 7.11963 14.6509 6.85107 14.5581 6.60205C14.4702 6.35303 14.3506 6.13574 14.1992 5.9502C14.0479 5.75977 13.8599 5.61328 13.6353 5.51074C13.4155 5.40332 13.1543 5.34961 12.8516 5.34961C12.5293 5.34961 12.2559 5.41797 12.0313 5.55469C11.8067 5.69141 11.6211 5.87939 11.4746 6.11865C11.333 6.35791 11.228 6.63623 11.1597 6.95361C11.0913 7.271 11.0571 7.61035 11.0571 7.97168ZM21.6602 10.3594V0.75H23.4326V12H21.8286L21.6602 10.3594ZM16.5039 8.12549V7.97168C16.5039 7.37109 16.5747 6.82422 16.7163 6.33105C16.8579 5.83301 17.063 5.40576 17.3316 5.04932C17.6001 4.68799 17.9273 4.41211 18.313 4.22168C18.6988 4.02637 19.1333 3.92871 19.6167 3.92871C20.0952 3.92871 20.5152 4.02148 20.8765 4.20703C21.2378 4.39258 21.5454 4.65869 21.7993 5.00537C22.0533 5.34717 22.2559 5.75732 22.4073 6.23584C22.5586 6.70947 22.666 7.23682 22.7295 7.81787V8.30859C22.666 8.875 22.5586 9.39258 22.4073 9.86133C22.2559 10.3301 22.0533 10.7354 21.7993 11.0771C21.5454 11.4189 21.2354 11.6826 20.8692 11.8682C20.5078 12.0537 20.0855 12.1465 19.6021 12.1465C19.1236 12.1465 18.6914 12.0464 18.3057 11.8462C17.9248 11.646 17.6001 11.3652 17.3316 11.0039C17.063 10.6426 16.8579 10.2178 16.7163 9.72949C16.5747 9.23633 16.5039 8.70166 16.5039 8.12549ZM18.2691 7.97168V8.12549C18.2691 8.48682 18.3008 8.82373 18.3643 9.13623C18.4326 9.44873 18.5376 9.72461 18.6792 9.96387C18.8208 10.1982 19.0039 10.3838 19.2285 10.5205C19.458 10.6523 19.7315 10.7183 20.0489 10.7183C20.4492 10.7183 20.7788 10.6304 21.0376 10.4546C21.2964 10.2788 21.4991 10.042 21.6455 9.74414C21.7969 9.44141 21.8994 9.10449 21.9532 8.7334V7.40771C21.9239 7.11963 21.8628 6.85107 21.77 6.60205C21.6822 6.35303 21.5625 6.13574 21.4112 5.9502C21.2598 5.75977 21.0718 5.61328 20.8472 5.51074C20.6275 5.40332 20.3662 5.34961 20.0635 5.34961C19.7412 5.34961 19.4678 5.41797 19.2432 5.55469C19.0186 5.69141 18.833 5.87939 18.6866 6.11865C18.545 6.35791 18.44 6.63623 18.3716 6.95361C18.3033 7.271 18.2691 7.61035 18.2691 7.97168ZM32.3194 9.25342C32.3194 9.03369 32.2852 8.83838 32.2169 8.66748C32.1534 8.49658 32.0386 8.34033 31.8726 8.19873C31.7066 8.05713 31.4722 7.92041 31.1695 7.78857C30.8716 7.65186 30.4908 7.5127 30.0269 7.37109C29.5191 7.21484 29.0504 7.0415 28.6207 6.85107C28.1959 6.65576 27.8248 6.43115 27.5074 6.17725C27.19 5.91846 26.9434 5.62305 26.7676 5.29102C26.5919 4.9541 26.504 4.56592 26.504 4.12646C26.504 3.69189 26.5943 3.29639 26.775 2.93994C26.9605 2.5835 27.2217 2.27588 27.5587 2.01709C27.9004 1.75342 28.3033 1.55078 28.7671 1.40918C29.231 1.2627 29.7437 1.18945 30.3052 1.18945C31.0962 1.18945 31.7774 1.33594 32.3487 1.62891C32.9249 1.92188 33.3668 2.31494 33.6744 2.80811C33.9869 3.30127 34.1431 3.8457 34.1431 4.44141H32.3194C32.3194 4.08984 32.2437 3.77979 32.0923 3.51123C31.9459 3.23779 31.7212 3.02295 31.4185 2.8667C31.1207 2.71045 30.7422 2.63232 30.2833 2.63232C29.8487 2.63232 29.4874 2.69824 29.1993 2.83008C28.9112 2.96191 28.6963 3.14014 28.5547 3.36475C28.4131 3.58936 28.3423 3.84326 28.3423 4.12646C28.3423 4.32666 28.3887 4.50977 28.4815 4.67578C28.5743 4.83691 28.7159 4.98828 28.9063 5.12988C29.0967 5.2666 29.336 5.396 29.6241 5.51807C29.9122 5.64014 30.2515 5.75732 30.6421 5.86963C31.233 6.04541 31.7481 6.24072 32.1876 6.45557C32.627 6.66553 32.9932 6.90479 33.2862 7.17334C33.5792 7.44189 33.7989 7.74707 33.9454 8.08887C34.0919 8.42578 34.1651 8.80908 34.1651 9.23877C34.1651 9.68799 34.0748 10.0933 33.8941 10.4546C33.7134 10.811 33.4546 11.1162 33.1177 11.3701C32.7857 11.6191 32.3853 11.812 31.9166 11.9487C31.4527 12.0806 30.9351 12.1465 30.3638 12.1465C29.8511 12.1465 29.3458 12.0781 28.8477 11.9414C28.3545 11.8047 27.9053 11.5972 27.5001 11.3188C27.0948 11.0356 26.7725 10.6841 26.5333 10.2642C26.294 9.83936 26.1744 9.34375 26.1744 8.77734H28.0128C28.0128 9.12402 28.0713 9.41943 28.1885 9.66357C28.3106 9.90771 28.4791 10.1079 28.6939 10.2642C28.9087 10.4155 29.1578 10.5278 29.441 10.6011C29.7291 10.6743 30.0367 10.7109 30.3638 10.7109C30.7935 10.7109 31.1524 10.6499 31.4405 10.5278C31.7335 10.4058 31.9532 10.2349 32.0997 10.0151C32.2462 9.79541 32.3194 9.5415 32.3194 9.25342ZM37.8687 12.1465C37.2828 12.1465 36.753 12.0513 36.2794 11.8608C35.8106 11.6655 35.4102 11.3945 35.0782 11.0479C34.751 10.7012 34.4996 10.2935 34.3238 9.82471C34.148 9.35596 34.0601 8.85059 34.0601 8.30859V8.01562C34.0601 7.39551 34.1505 6.83398 34.3311 6.33105C34.5118 5.82812 34.7633 5.39844 35.0855 5.04199C35.4078 4.68066 35.7886 4.40479 36.2281 4.21436C36.6676 4.02393 37.1436 3.92871 37.6563 3.92871C38.2227 3.92871 38.7183 4.02393 39.1431 4.21436C39.5679 4.40479 39.9195 4.67334 40.1978 5.02002C40.481 5.36182 40.691 5.76953 40.8277 6.24316C40.9693 6.7168 41.0401 7.23926 41.0401 7.81055V8.56494H34.9171V7.29785H39.2969V7.15869C39.2872 6.84131 39.2237 6.54346 39.1065 6.26514C38.9942 5.98682 38.8209 5.76221 38.5865 5.59131C38.3521 5.42041 38.0396 5.33496 37.649 5.33496C37.356 5.33496 37.0948 5.39844 36.8653 5.52539C36.6407 5.64746 36.4527 5.82568 36.3013 6.06006C36.15 6.29443 36.0328 6.57764 35.9498 6.90967C35.8717 7.23682 35.8326 7.60547 35.8326 8.01562V8.30859C35.8326 8.65527 35.879 8.97754 35.9718 9.27539C36.0694 9.56836 36.211 9.82471 36.3966 10.0444C36.5821 10.2642 36.8067 10.4375 37.0704 10.5645C37.3341 10.6865 37.6343 10.7476 37.9713 10.7476C38.3961 10.7476 38.7745 10.6621 39.1065 10.4912C39.4385 10.3203 39.7266 10.0786 39.9708 9.76611L40.901 10.667C40.7301 10.916 40.5079 11.1553 40.2344 11.3848C39.961 11.6094 39.6265 11.7925 39.231 11.9341C38.8404 12.0757 38.3863 12.1465 37.8687 12.1465ZM44.4142 10.7402C44.7022 10.7402 44.961 10.6841 45.1905 10.5718C45.4249 10.4546 45.6129 10.2935 45.7545 10.0884C45.901 9.8833 45.9815 9.64648 45.9962 9.37793H47.6588C47.649 9.89062 47.4976 10.3569 47.2047 10.7769C46.9117 11.1968 46.5235 11.5312 46.0401 11.7803C45.5567 12.0244 45.0221 12.1465 44.4361 12.1465C43.8307 12.1465 43.3033 12.0439 42.8541 11.8389C42.4049 11.6289 42.0313 11.3408 41.7335 10.9746C41.4356 10.6084 41.211 10.186 41.0597 9.70752C40.9132 9.229 40.8399 8.71631 40.8399 8.16943V7.91309C40.8399 7.36621 40.9132 6.85352 41.0597 6.375C41.211 5.8916 41.4356 5.4668 41.7335 5.10059C42.0313 4.73438 42.4049 4.44873 42.8541 4.24365C43.3033 4.03369 43.8282 3.92871 44.4288 3.92871C45.0636 3.92871 45.6202 4.05566 46.0987 4.30957C46.5772 4.55859 46.9532 4.90771 47.2267 5.35693C47.505 5.80127 47.649 6.31885 47.6588 6.90967H45.9962C45.9815 6.6167 45.9083 6.35303 45.7765 6.11865C45.6495 5.87939 45.4688 5.68896 45.2345 5.54736C45.005 5.40576 44.7291 5.33496 44.4068 5.33496C44.0504 5.33496 43.755 5.4082 43.5206 5.55469C43.2862 5.69629 43.1031 5.8916 42.9713 6.14062C42.8394 6.38477 42.7442 6.66064 42.6856 6.96826C42.6319 7.271 42.6051 7.58594 42.6051 7.91309V8.16943C42.6051 8.49658 42.6319 8.81396 42.6856 9.12158C42.7393 9.4292 42.8321 9.70508 42.964 9.94922C43.1007 10.1885 43.2862 10.3813 43.5206 10.5278C43.755 10.6694 44.0528 10.7402 44.4142 10.7402ZM51.4064 4.0752V5.36426H46.9386V4.0752H51.4064ZM48.2276 2.13428H49.9928V9.81006C49.9928 10.0542 50.027 10.2422 50.0953 10.374C50.1686 10.501 50.2687 10.5864 50.3956 10.6304C50.5226 10.6743 50.6715 10.6963 50.8424 10.6963C50.9645 10.6963 51.0816 10.689 51.194 10.6743C51.3063 10.6597 51.3966 10.645 51.4649 10.6304L51.4723 11.978C51.3258 12.022 51.1549 12.061 50.9596 12.0952C50.7691 12.1294 50.5494 12.1465 50.3004 12.1465C49.8951 12.1465 49.5362 12.0757 49.2237 11.9341C48.9112 11.7876 48.6671 11.5508 48.4913 11.2236C48.3155 10.8965 48.2276 10.4619 48.2276 9.91992V2.13428ZM53.4181 4.0752V12H51.6456V4.0752H53.4181ZM51.5284 1.99512C51.5284 1.72656 51.6163 1.50439 51.7921 1.32861C51.9728 1.14795 52.2218 1.05762 52.5392 1.05762C52.8517 1.05762 53.0983 1.14795 53.2789 1.32861C53.4596 1.50439 53.5499 1.72656 53.5499 1.99512C53.5499 2.25879 53.4596 2.47852 53.2789 2.6543C53.0983 2.83008 52.8517 2.91797 52.5392 2.91797C52.2218 2.91797 51.9728 2.83008 51.7921 2.6543C51.6163 2.47852 51.5284 2.25879 51.5284 1.99512ZM53.7745 8.12549V7.95703C53.7745 7.38574 53.8576 6.85596 54.0236 6.36768C54.1896 5.87451 54.4288 5.44727 54.7413 5.08594C55.0587 4.71973 55.4445 4.43652 55.8986 4.23633C56.3576 4.03125 56.8751 3.92871 57.4513 3.92871C58.0324 3.92871 58.5499 4.03125 59.004 4.23633C59.463 4.43652 59.8512 4.71973 60.1686 5.08594C60.486 5.44727 60.7277 5.87451 60.8937 6.36768C61.0597 6.85596 61.1427 7.38574 61.1427 7.95703V8.12549C61.1427 8.69678 61.0597 9.22656 60.8937 9.71484C60.7277 10.2031 60.486 10.6304 60.1686 10.9966C59.8512 11.3579 59.4655 11.6411 59.0114 11.8462C58.5573 12.0464 58.0421 12.1465 57.466 12.1465C56.8849 12.1465 56.3649 12.0464 55.9059 11.8462C55.4518 11.6411 55.066 11.3579 54.7487 10.9966C54.4313 10.6304 54.1896 10.2031 54.0236 9.71484C53.8576 9.22656 53.7745 8.69678 53.7745 8.12549ZM55.5397 7.95703V8.12549C55.5397 8.48193 55.5763 8.81885 55.6495 9.13623C55.7228 9.45361 55.8375 9.73193 55.9938 9.97119C56.15 10.2104 56.3502 10.3984 56.5944 10.5352C56.8385 10.6719 57.129 10.7402 57.466 10.7402C57.7931 10.7402 58.0763 10.6719 58.3156 10.5352C58.5597 10.3984 58.7599 10.2104 58.9161 9.97119C59.0724 9.73193 59.1871 9.45361 59.2604 9.13623C59.3385 8.81885 59.3776 8.48193 59.3776 8.12549V7.95703C59.3776 7.60547 59.3385 7.27344 59.2604 6.96094C59.1871 6.64355 59.07 6.36279 58.9088 6.11865C58.7526 5.87451 58.5524 5.68408 58.3082 5.54736C58.069 5.40576 57.7833 5.33496 57.4513 5.33496C57.1193 5.33496 56.8312 5.40576 56.587 5.54736C56.3478 5.68408 56.15 5.87451 55.9938 6.11865C55.8375 6.36279 55.7228 6.64355 55.6495 6.96094C55.5763 7.27344 55.5397 7.60547 55.5397 7.95703ZM63.1325 5.76709V12H61.3673V4.0752H63.0299L63.1325 5.76709ZM62.8175 7.74463L62.2462 7.7373C62.2511 7.17578 62.3292 6.66064 62.4806 6.19189C62.6369 5.72314 62.8517 5.32031 63.1251 4.9834C63.4035 4.64648 63.7355 4.3877 64.1212 4.20703C64.507 4.02148 64.9367 3.92871 65.4103 3.92871C65.7912 3.92871 66.1354 3.98242 66.443 4.08984C66.7555 4.19238 67.0216 4.36084 67.2414 4.59521C67.466 4.82959 67.6369 5.13477 67.7541 5.51074C67.8712 5.88184 67.9298 6.33838 67.9298 6.88037V12H66.1574V6.87305C66.1574 6.49219 66.1012 6.19189 65.9889 5.97217C65.8815 5.74756 65.7228 5.58887 65.5128 5.49609C65.3078 5.39844 65.0514 5.34961 64.7438 5.34961C64.4411 5.34961 64.1701 5.41309 63.9308 5.54004C63.6916 5.66699 63.4889 5.84033 63.3229 6.06006C63.1618 6.27979 63.0373 6.53369 62.9494 6.82178C62.8615 7.10986 62.8175 7.41748 62.8175 7.74463Z" fill="url(#paint0_linear_2_1873)"/>
<defs>
<linearGradient id="paint0_linear_2_1873" x1="0" y1="-12" x2="71.7324" y2="-6.07379" gradientUnits="userSpaceOnUse">
<stop stop-color="#81D4DC"/>
<stop offset="1" stop-color="#5C8AD5"/>
</linearGradient>
</defs>
</svg>
