<svg width="48" height="10" viewBox="0 0 48 10" fill="none" xmlns="http://www.w3.org/2000/svg">
<path d="M4.42227 1.60547L1.87344 9H0.332422L3.54336 0.46875H4.52773L4.42227 1.60547ZM6.55508 9L4.00039 1.60547L3.88906 0.46875H4.8793L8.10195 9H6.55508ZM6.43203 5.83594V7.00195H1.79141V5.83594H6.43203ZM12.1086 7.6875V0H13.5266V9H12.2434L12.1086 7.6875ZM7.98359 5.90039V5.77734C7.98359 5.29688 8.04023 4.85938 8.15352 4.46484C8.2668 4.06641 8.43086 3.72461 8.6457 3.43945C8.86055 3.15039 9.12227 2.92969 9.43086 2.77734C9.73945 2.62109 10.0871 2.54297 10.4738 2.54297C10.8566 2.54297 11.1926 2.61719 11.4816 2.76562C11.7707 2.91406 12.0168 3.12695 12.2199 3.4043C12.423 3.67773 12.5852 4.00586 12.7063 4.38867C12.8273 4.76758 12.9133 5.18945 12.9641 5.6543V6.04688C12.9133 6.5 12.8273 6.91406 12.7063 7.28906C12.5852 7.66406 12.423 7.98828 12.2199 8.26172C12.0168 8.53516 11.7688 8.74609 11.4758 8.89453C11.1867 9.04297 10.8488 9.11719 10.4621 9.11719C10.0793 9.11719 9.73359 9.03711 9.425 8.87695C9.12031 8.7168 8.86055 8.49219 8.6457 8.20312C8.43086 7.91406 8.2668 7.57422 8.15352 7.18359C8.04023 6.78906 7.98359 6.36133 7.98359 5.90039ZM9.3957 5.77734V5.90039C9.3957 6.18945 9.42109 6.45898 9.47188 6.70898C9.52656 6.95898 9.61055 7.17969 9.72383 7.37109C9.83711 7.55859 9.98359 7.70703 10.1633 7.81641C10.3469 7.92188 10.5656 7.97461 10.8195 7.97461C11.1398 7.97461 11.4035 7.9043 11.6105 7.76367C11.8176 7.62305 11.9797 7.43359 12.0969 7.19531C12.218 6.95312 12.3 6.68359 12.343 6.38672V5.32617C12.3195 5.0957 12.2707 4.88086 12.1965 4.68164C12.1262 4.48242 12.0305 4.30859 11.9094 4.16016C11.7883 4.00781 11.6379 3.89062 11.4582 3.80859C11.2824 3.72266 11.0734 3.67969 10.8313 3.67969C10.5734 3.67969 10.3547 3.73438 10.175 3.84375C9.99531 3.95312 9.84688 4.10352 9.72969 4.29492C9.61641 4.48633 9.53242 4.70898 9.47773 4.96289C9.42305 5.2168 9.3957 5.48828 9.3957 5.77734ZM18.1953 7.6875V0H19.6133V9H18.3301L18.1953 7.6875ZM14.0703 5.90039V5.77734C14.0703 5.29688 14.127 4.85938 14.2402 4.46484C14.3535 4.06641 14.5176 3.72461 14.7324 3.43945C14.9473 3.15039 15.209 2.92969 15.5176 2.77734C15.8262 2.62109 16.1738 2.54297 16.5605 2.54297C16.9434 2.54297 17.2793 2.61719 17.5684 2.76562C17.8574 2.91406 18.1035 3.12695 18.3066 3.4043C18.5098 3.67773 18.6719 4.00586 18.793 4.38867C18.9141 4.76758 19 5.18945 19.0508 5.6543V6.04688C19 6.5 18.9141 6.91406 18.793 7.28906C18.6719 7.66406 18.5098 7.98828 18.3066 8.26172C18.1035 8.53516 17.8555 8.74609 17.5625 8.89453C17.2734 9.04297 16.9355 9.11719 16.5488 9.11719C16.166 9.11719 15.8203 9.03711 15.5117 8.87695C15.207 8.7168 14.9473 8.49219 14.7324 8.20312C14.5176 7.91406 14.3535 7.57422 14.2402 7.18359C14.127 6.78906 14.0703 6.36133 14.0703 5.90039ZM15.4824 5.77734V5.90039C15.4824 6.18945 15.5078 6.45898 15.5586 6.70898C15.6133 6.95898 15.6973 7.17969 15.8105 7.37109C15.9238 7.55859 16.0703 7.70703 16.25 7.81641C16.4336 7.92188 16.6523 7.97461 16.9062 7.97461C17.2266 7.97461 17.4902 7.9043 17.6973 7.76367C17.9043 7.62305 18.0664 7.43359 18.1836 7.19531C18.3047 6.95312 18.3867 6.68359 18.4297 6.38672V5.32617C18.4062 5.0957 18.3574 4.88086 18.2832 4.68164C18.2129 4.48242 18.1172 4.30859 17.9961 4.16016C17.875 4.00781 17.7246 3.89062 17.5449 3.80859C17.3691 3.72266 17.1602 3.67969 16.918 3.67969C16.6602 3.67969 16.4414 3.73438 16.2617 3.84375C16.082 3.95312 15.9336 4.10352 15.8164 4.29492C15.7031 4.48633 15.6191 4.70898 15.5645 4.96289C15.5098 5.2168 15.4824 5.48828 15.4824 5.77734ZM21.9266 2.66016V9H20.5086V2.66016H21.9266ZM20.4148 0.996094C20.4148 0.78125 20.4852 0.603516 20.6258 0.462891C20.7703 0.318359 20.9695 0.246094 21.2234 0.246094C21.4734 0.246094 21.6707 0.318359 21.8152 0.462891C21.9598 0.603516 22.032 0.78125 22.032 0.996094C22.032 1.20703 21.9598 1.38281 21.8152 1.52344C21.6707 1.66406 21.4734 1.73438 21.2234 1.73438C20.9695 1.73438 20.7703 1.66406 20.6258 1.52344C20.4852 1.38281 20.4148 1.20703 20.4148 0.996094ZM25.7047 2.66016V3.69141H22.1305V2.66016H25.7047ZM23.1617 1.10742H24.5738V7.24805C24.5738 7.44336 24.6012 7.59375 24.6559 7.69922C24.7145 7.80078 24.7945 7.86914 24.8961 7.9043C24.9977 7.93945 25.1168 7.95703 25.2535 7.95703C25.3512 7.95703 25.4449 7.95117 25.5348 7.93945C25.6246 7.92773 25.6969 7.91602 25.7516 7.9043L25.7574 8.98242C25.6402 9.01758 25.5035 9.04883 25.3473 9.07617C25.1949 9.10352 25.0191 9.11719 24.8199 9.11719C24.4957 9.11719 24.2086 9.06055 23.9586 8.94727C23.7086 8.83008 23.5133 8.64062 23.3727 8.37891C23.232 8.11719 23.1617 7.76953 23.1617 7.33594V1.10742ZM27.6313 2.66016V9H26.2133V2.66016H27.6313ZM26.1195 0.996094C26.1195 0.78125 26.1898 0.603516 26.3305 0.462891C26.475 0.318359 26.6742 0.246094 26.9281 0.246094C27.1781 0.246094 27.3754 0.318359 27.5199 0.462891C27.6645 0.603516 27.7367 0.78125 27.7367 0.996094C27.7367 1.20703 27.6645 1.38281 27.5199 1.52344C27.3754 1.66406 27.1781 1.73438 26.9281 1.73438C26.6742 1.73438 26.475 1.66406 26.3305 1.52344C26.1898 1.38281 26.1195 1.20703 26.1195 0.996094ZM28.2336 5.90039V5.76562C28.2336 5.30859 28.3 4.88477 28.4328 4.49414C28.5656 4.09961 28.757 3.75781 29.007 3.46875C29.2609 3.17578 29.5695 2.94922 29.9328 2.78906C30.3 2.625 30.7141 2.54297 31.175 2.54297C31.6398 2.54297 32.0539 2.625 32.4172 2.78906C32.7844 2.94922 33.0949 3.17578 33.3488 3.46875C33.6027 3.75781 33.7961 4.09961 33.9289 4.49414C34.0617 4.88477 34.1281 5.30859 34.1281 5.76562V5.90039C34.1281 6.35742 34.0617 6.78125 33.9289 7.17188C33.7961 7.5625 33.6027 7.9043 33.3488 8.19727C33.0949 8.48633 32.7863 8.71289 32.423 8.87695C32.0598 9.03711 31.6477 9.11719 31.1867 9.11719C30.7219 9.11719 30.3059 9.03711 29.9387 8.87695C29.5754 8.71289 29.2668 8.48633 29.0129 8.19727C28.759 7.9043 28.5656 7.5625 28.4328 7.17188C28.3 6.78125 28.2336 6.35742 28.2336 5.90039ZM29.6457 5.76562V5.90039C29.6457 6.18555 29.675 6.45508 29.7336 6.70898C29.7922 6.96289 29.884 7.18555 30.009 7.37695C30.134 7.56836 30.2941 7.71875 30.4895 7.82812C30.6848 7.9375 30.9172 7.99219 31.1867 7.99219C31.4484 7.99219 31.675 7.9375 31.8664 7.82812C32.0617 7.71875 32.2219 7.56836 32.3469 7.37695C32.4719 7.18555 32.5637 6.96289 32.6223 6.70898C32.6848 6.45508 32.716 6.18555 32.716 5.90039V5.76562C32.716 5.48438 32.6848 5.21875 32.6223 4.96875C32.5637 4.71484 32.4699 4.49023 32.341 4.29492C32.216 4.09961 32.0559 3.94727 31.8605 3.83789C31.6691 3.72461 31.4406 3.66797 31.175 3.66797C30.9094 3.66797 30.6789 3.72461 30.4836 3.83789C30.2922 3.94727 30.134 4.09961 30.009 4.29492C29.884 4.49023 29.7922 4.71484 29.7336 4.96875C29.675 5.21875 29.6457 5.48438 29.6457 5.76562ZM36.0371 4.01367V9H34.625V2.66016H35.9551L36.0371 4.01367ZM35.7852 5.5957L35.3281 5.58984C35.332 5.14062 35.3945 4.72852 35.5156 4.35352C35.6406 3.97852 35.8125 3.65625 36.0312 3.38672C36.2539 3.11719 36.5195 2.91016 36.8281 2.76562C37.1367 2.61719 37.4805 2.54297 37.8594 2.54297C38.1641 2.54297 38.4395 2.58594 38.6855 2.67188C38.9355 2.75391 39.1484 2.88867 39.3242 3.07617C39.5039 3.26367 39.6406 3.50781 39.7344 3.80859C39.8281 4.10547 39.875 4.4707 39.875 4.9043V9H38.457V4.89844C38.457 4.59375 38.4121 4.35352 38.3223 4.17773C38.2363 3.99805 38.1094 3.87109 37.9414 3.79688C37.7773 3.71875 37.5723 3.67969 37.3262 3.67969C37.084 3.67969 36.8672 3.73047 36.6758 3.83203C36.4844 3.93359 36.3223 4.07227 36.1895 4.24805C36.0605 4.42383 35.9609 4.62695 35.8906 4.85742C35.8203 5.08789 35.7852 5.33398 35.7852 5.5957ZM44.2156 7.72852V4.70508C44.2156 4.47852 44.1746 4.2832 44.0926 4.11914C44.0105 3.95508 43.8855 3.82812 43.7176 3.73828C43.5535 3.64844 43.3465 3.60352 43.0965 3.60352C42.866 3.60352 42.6668 3.64258 42.4988 3.7207C42.3309 3.79883 42.2 3.9043 42.1062 4.03711C42.0125 4.16992 41.9656 4.32031 41.9656 4.48828H40.5594C40.5594 4.23828 40.6199 3.99609 40.741 3.76172C40.8621 3.52734 41.0379 3.31836 41.2684 3.13477C41.4988 2.95117 41.7742 2.80664 42.0945 2.70117C42.4148 2.5957 42.7742 2.54297 43.1727 2.54297C43.6492 2.54297 44.0711 2.62305 44.4383 2.7832C44.8094 2.94336 45.1004 3.18555 45.3113 3.50977C45.5262 3.83008 45.6336 4.23242 45.6336 4.7168V7.53516C45.6336 7.82422 45.6531 8.08398 45.6922 8.31445C45.7352 8.54102 45.7957 8.73828 45.8738 8.90625V9H44.4266C44.3602 8.84766 44.3074 8.6543 44.2684 8.41992C44.2332 8.18164 44.2156 7.95117 44.2156 7.72852ZM44.4207 5.14453L44.4324 6.01758H43.4187C43.157 6.01758 42.9266 6.04297 42.7273 6.09375C42.5281 6.14062 42.3621 6.21094 42.2293 6.30469C42.0965 6.39844 41.9969 6.51172 41.9305 6.64453C41.8641 6.77734 41.8309 6.92773 41.8309 7.0957C41.8309 7.26367 41.8699 7.41797 41.948 7.55859C42.0262 7.69531 42.1395 7.80273 42.2879 7.88086C42.4402 7.95898 42.6238 7.99805 42.8387 7.99805C43.1277 7.99805 43.3797 7.93945 43.5945 7.82227C43.8133 7.70117 43.9852 7.55469 44.1102 7.38281C44.2352 7.20703 44.3016 7.04102 44.3094 6.88477L44.7664 7.51172C44.7195 7.67188 44.6395 7.84375 44.5262 8.02734C44.4129 8.21094 44.2645 8.38672 44.0809 8.55469C43.9012 8.71875 43.6844 8.85352 43.4305 8.95898C43.1805 9.06445 42.8914 9.11719 42.5633 9.11719C42.1492 9.11719 41.7801 9.03516 41.4559 8.87109C41.1316 8.70312 40.8777 8.47852 40.6941 8.19727C40.5105 7.91211 40.4187 7.58984 40.4187 7.23047C40.4187 6.89453 40.4812 6.59766 40.6062 6.33984C40.7352 6.07812 40.9227 5.85938 41.1687 5.68359C41.4187 5.50781 41.7234 5.375 42.0828 5.28516C42.4422 5.19141 42.8523 5.14453 43.3133 5.14453H44.4207ZM47.9469 0V9H46.5289V0H47.9469Z" fill="url(#paint0_linear_2_2000)"/>
<defs>
<linearGradient id="paint0_linear_2_2000" x1="0" y1="-9" x2="50.9224" y2="-4.68463" gradientUnits="userSpaceOnUse">
<stop stop-color="#81D4DC"/>
<stop offset="1" stop-color="#5C8AD5"/>
</linearGradient>
</defs>
</svg>
