<svg width="13" height="25" viewBox="0 0 13 25" fill="none" xmlns="http://www.w3.org/2000/svg">
    <path
        d="M0.0101385 12.5293C0.0469388 12.8034 0.163332 13.0577 0.342481 13.2568L10.1576 24.2346C10.3756 24.5118 10.6905 24.6802 11.0277 24.7002C11.3652 24.7201 11.6953 24.5899 11.9403 24.3399C12.1853 24.0903 12.3234 23.743 12.3223 23.3803C12.3211 23.0174 12.1808 22.6712 11.934 22.4231L2.92364 12.351L11.934 2.27882C12.1808 2.03071 12.3211 1.6846 12.3223 1.32163C12.3234 0.958969 12.1853 0.611624 11.9403 0.362013C11.6952 0.11207 11.3652 -0.0181122 11.0277 0.00179672C10.6905 0.0217075 10.3756 0.190168 10.1576 0.467375L0.342481 11.4452C0.084307 11.7337 -0.0380678 12.1325 0.0104238 12.5292L0.0101385 12.5293Z"
        fill="#4294FE" />
</svg>