<svg width="20" height="20" viewBox="0 0 20 20" fill="none" xmlns="http://www.w3.org/2000/svg">
<path d="M11.7839 10L19.8693 1.91518C20.0433 1.74093 20.0433 1.45861 19.8693 1.28437L18.7161 0.130628C18.6325 0.0471947 18.5187 0 18.4005 0C18.2821 0 18.1686 0.0471947 18.0849 0.130628L9.99976 8.21566L1.91462 0.130628C1.74712 -0.0368708 1.45068 -0.0366601 1.2836 0.130628L0.130682 1.28437C-0.0435608 1.45861 -0.0435608 1.74093 0.130682 1.91518L8.21582 10L0.130682 18.0848C-0.0435608 18.2591 -0.0435608 18.5414 0.130682 18.7156L1.28381 19.8694C1.36745 19.9528 1.48102 20 1.59942 20C1.71783 20 1.83119 19.9528 1.91483 19.8694L9.99997 11.7843L18.0851 19.8694C18.1688 19.9528 18.2825 20 18.4007 20C18.5189 20 18.6327 19.9528 18.7164 19.8694L19.8695 18.7156C20.0435 18.5414 20.0435 18.2591 19.8695 18.0848L11.7839 10Z" fill="black"/>
</svg>
