<svg width="38" height="10" viewBox="0 0 38 10" fill="none" xmlns="http://www.w3.org/2000/svg">
<path d="M5.40195 6.22266H6.8668C6.81992 6.78125 6.66367 7.2793 6.39805 7.7168C6.13242 8.15039 5.75937 8.49219 5.27891 8.74219C4.79844 8.99219 4.21445 9.11719 3.52695 9.11719C2.99961 9.11719 2.525 9.02344 2.10312 8.83594C1.68125 8.64453 1.31992 8.375 1.01914 8.02734C0.718359 7.67578 0.48789 7.25195 0.327734 6.75586C0.171484 6.25977 0.093359 5.70508 0.093359 5.0918V4.38281C0.093359 3.76953 0.173437 3.21484 0.333593 2.71875C0.497656 2.22266 0.732031 1.79883 1.03672 1.44727C1.34141 1.0918 1.70664 0.820312 2.13242 0.632812C2.56211 0.445312 3.04453 0.351562 3.57969 0.351562C4.25937 0.351562 4.83359 0.476562 5.30234 0.726562C5.77109 0.976562 6.13437 1.32227 6.39219 1.76367C6.65391 2.20508 6.81406 2.71094 6.87266 3.28125H5.40781C5.36875 2.91406 5.28281 2.59961 5.15 2.33789C5.02109 2.07617 4.82969 1.87695 4.57578 1.74023C4.32187 1.59961 3.98984 1.5293 3.57969 1.5293C3.24375 1.5293 2.95078 1.5918 2.70078 1.7168C2.45078 1.8418 2.2418 2.02539 2.07383 2.26758C1.90586 2.50977 1.77891 2.80859 1.69297 3.16406C1.61094 3.51562 1.56992 3.91797 1.56992 4.37109V5.0918C1.56992 5.52148 1.60703 5.91211 1.68125 6.26367C1.75937 6.61133 1.87656 6.91016 2.03281 7.16016C2.19297 7.41016 2.39609 7.60352 2.64219 7.74023C2.88828 7.87695 3.1832 7.94531 3.52695 7.94531C3.94492 7.94531 4.28281 7.87891 4.54062 7.74609C4.80234 7.61328 4.99961 7.41992 5.13242 7.16602C5.26914 6.9082 5.35898 6.59375 5.40195 6.22266ZM7.11758 5.90039V5.76562C7.11758 5.30859 7.18398 4.88477 7.3168 4.49414C7.44961 4.09961 7.64102 3.75781 7.89102 3.46875C8.14492 3.17578 8.45352 2.94922 8.8168 2.78906C9.18398 2.625 9.59805 2.54297 10.059 2.54297C10.5238 2.54297 10.9379 2.625 11.3012 2.78906C11.6684 2.94922 11.9789 3.17578 12.2328 3.46875C12.4867 3.75781 12.6801 4.09961 12.8129 4.49414C12.9457 4.88477 13.0121 5.30859 13.0121 5.76562V5.90039C13.0121 6.35742 12.9457 6.78125 12.8129 7.17188C12.6801 7.5625 12.4867 7.9043 12.2328 8.19727C11.9789 8.48633 11.6703 8.71289 11.307 8.87695C10.9437 9.03711 10.5316 9.11719 10.0707 9.11719C9.60586 9.11719 9.18984 9.03711 8.82266 8.87695C8.45937 8.71289 8.15078 8.48633 7.89687 8.19727C7.64297 7.9043 7.44961 7.5625 7.3168 7.17188C7.18398 6.78125 7.11758 6.35742 7.11758 5.90039ZM8.52969 5.76562V5.90039C8.52969 6.18555 8.55898 6.45508 8.61758 6.70898C8.67617 6.96289 8.76797 7.18555 8.89297 7.37695C9.01797 7.56836 9.17812 7.71875 9.37344 7.82812C9.56875 7.9375 9.80117 7.99219 10.0707 7.99219C10.3324 7.99219 10.559 7.9375 10.7504 7.82812C10.9457 7.71875 11.1059 7.56836 11.2309 7.37695C11.3559 7.18555 11.4477 6.96289 11.5062 6.70898C11.5687 6.45508 11.6 6.18555 11.6 5.90039V5.76562C11.6 5.48438 11.5687 5.21875 11.5062 4.96875C11.4477 4.71484 11.3539 4.49023 11.225 4.29492C11.1 4.09961 10.9398 3.94727 10.7445 3.83789C10.5531 3.72461 10.3246 3.66797 10.059 3.66797C9.79336 3.66797 9.56289 3.72461 9.36758 3.83789C9.17617 3.94727 9.01797 4.09961 8.89297 4.29492C8.76797 4.49023 8.67617 4.71484 8.61758 4.96875C8.55898 5.21875 8.52969 5.48438 8.52969 5.76562ZM14.9211 4.01367V9H13.509V2.66016H14.8391L14.9211 4.01367ZM14.6691 5.5957L14.2121 5.58984C14.216 5.14062 14.2785 4.72852 14.3996 4.35352C14.5246 3.97852 14.6965 3.65625 14.9152 3.38672C15.1379 3.11719 15.4035 2.91016 15.7121 2.76562C16.0207 2.61719 16.3645 2.54297 16.7434 2.54297C17.048 2.54297 17.3234 2.58594 17.5695 2.67188C17.8195 2.75391 18.0324 2.88867 18.2082 3.07617C18.3879 3.26367 18.5246 3.50781 18.6184 3.80859C18.7121 4.10547 18.759 4.4707 18.759 4.9043V9H17.341V4.89844C17.341 4.59375 17.2961 4.35352 17.2062 4.17773C17.1203 3.99805 16.9934 3.87109 16.8254 3.79688C16.6613 3.71875 16.4562 3.67969 16.2102 3.67969C15.968 3.67969 15.7512 3.73047 15.5598 3.83203C15.3684 3.93359 15.2062 4.07227 15.0734 4.24805C14.9445 4.42383 14.8449 4.62695 14.7746 4.85742C14.7043 5.08789 14.6691 5.33398 14.6691 5.5957ZM22.4316 2.66016V3.69141H18.8574V2.66016H22.4316ZM19.8887 1.10742H21.3008V7.24805C21.3008 7.44336 21.3281 7.59375 21.3828 7.69922C21.4414 7.80078 21.5215 7.86914 21.623 7.9043C21.7246 7.93945 21.8438 7.95703 21.9805 7.95703C22.0781 7.95703 22.1719 7.95117 22.2617 7.93945C22.3516 7.92773 22.4238 7.91602 22.4785 7.9043L22.4844 8.98242C22.3672 9.01758 22.2305 9.04883 22.0742 9.07617C21.9219 9.10352 21.7461 9.11719 21.5469 9.11719C21.2227 9.11719 20.9355 9.06055 20.6855 8.94727C20.4355 8.83008 20.2402 8.64062 20.0996 8.37891C19.959 8.11719 19.8887 7.76953 19.8887 7.33594V1.10742ZM26.4207 7.72852V4.70508C26.4207 4.47852 26.3797 4.2832 26.2977 4.11914C26.2156 3.95508 26.0906 3.82812 25.9227 3.73828C25.7586 3.64844 25.5516 3.60352 25.3016 3.60352C25.0711 3.60352 24.8719 3.64258 24.7039 3.7207C24.5359 3.79883 24.4051 3.9043 24.3113 4.03711C24.2176 4.16992 24.1707 4.32031 24.1707 4.48828H22.7645C22.7645 4.23828 22.825 3.99609 22.9461 3.76172C23.0672 3.52734 23.243 3.31836 23.4734 3.13477C23.7039 2.95117 23.9793 2.80664 24.2996 2.70117C24.6199 2.5957 24.9793 2.54297 25.3777 2.54297C25.8543 2.54297 26.2762 2.62305 26.6434 2.7832C27.0145 2.94336 27.3055 3.18555 27.5164 3.50977C27.7312 3.83008 27.8387 4.23242 27.8387 4.7168V7.53516C27.8387 7.82422 27.8582 8.08398 27.8973 8.31445C27.9402 8.54102 28.0008 8.73828 28.0789 8.90625V9H26.6316C26.5652 8.84766 26.5125 8.6543 26.4734 8.41992C26.4383 8.18164 26.4207 7.95117 26.4207 7.72852ZM26.6258 5.14453L26.6375 6.01758H25.6238C25.3621 6.01758 25.1316 6.04297 24.9324 6.09375C24.7332 6.14062 24.5672 6.21094 24.4344 6.30469C24.3016 6.39844 24.202 6.51172 24.1355 6.64453C24.0691 6.77734 24.0359 6.92773 24.0359 7.0957C24.0359 7.26367 24.075 7.41797 24.1531 7.55859C24.2312 7.69531 24.3445 7.80273 24.493 7.88086C24.6453 7.95898 24.8289 7.99805 25.0437 7.99805C25.3328 7.99805 25.5848 7.93945 25.7996 7.82227C26.0184 7.70117 26.1902 7.55469 26.3152 7.38281C26.4402 7.20703 26.5066 7.04102 26.5145 6.88477L26.9715 7.51172C26.9246 7.67188 26.8445 7.84375 26.7312 8.02734C26.618 8.21094 26.4695 8.38672 26.2859 8.55469C26.1062 8.71875 25.8895 8.85352 25.6355 8.95898C25.3855 9.06445 25.0965 9.11719 24.7684 9.11719C24.3543 9.11719 23.9852 9.03516 23.6609 8.87109C23.3367 8.70312 23.0828 8.47852 22.8992 8.19727C22.7156 7.91211 22.6238 7.58984 22.6238 7.23047C22.6238 6.89453 22.6863 6.59766 22.8113 6.33984C22.9402 6.07812 23.1277 5.85938 23.3738 5.68359C23.6238 5.50781 23.9285 5.375 24.2879 5.28516C24.6473 5.19141 25.0574 5.14453 25.5184 5.14453H26.6258ZM31.2301 7.99219C31.4605 7.99219 31.6676 7.94727 31.8512 7.85742C32.0387 7.76367 32.1891 7.63477 32.3023 7.4707C32.4195 7.30664 32.484 7.11719 32.4957 6.90234H33.8258C33.818 7.3125 33.6969 7.68555 33.4625 8.02148C33.2281 8.35742 32.9176 8.625 32.5309 8.82422C32.1441 9.01953 31.7164 9.11719 31.2477 9.11719C30.7633 9.11719 30.3414 9.03516 29.982 8.87109C29.6227 8.70312 29.3238 8.47266 29.0855 8.17969C28.8473 7.88672 28.6676 7.54883 28.5465 7.16602C28.4293 6.7832 28.3707 6.37305 28.3707 5.93555V5.73047C28.3707 5.29297 28.4293 4.88281 28.5465 4.5C28.6676 4.11328 28.8473 3.77344 29.0855 3.48047C29.3238 3.1875 29.6227 2.95898 29.982 2.79492C30.3414 2.62695 30.7613 2.54297 31.2418 2.54297C31.7496 2.54297 32.1949 2.64453 32.5777 2.84766C32.9605 3.04688 33.2613 3.32617 33.4801 3.68555C33.7027 4.04102 33.818 4.45508 33.8258 4.92773H32.4957C32.484 4.69336 32.4254 4.48242 32.3199 4.29492C32.2184 4.10352 32.0738 3.95117 31.8863 3.83789C31.7027 3.72461 31.482 3.66797 31.2242 3.66797C30.9391 3.66797 30.7027 3.72656 30.5152 3.84375C30.3277 3.95703 30.1812 4.11328 30.0758 4.3125C29.9703 4.50781 29.8941 4.72852 29.8473 4.97461C29.8043 5.2168 29.7828 5.46875 29.7828 5.73047V5.93555C29.7828 6.19727 29.8043 6.45117 29.8473 6.69727C29.8902 6.94336 29.9645 7.16406 30.0699 7.35938C30.1793 7.55078 30.3277 7.70508 30.5152 7.82227C30.7027 7.93555 30.941 7.99219 31.2301 7.99219ZM37.141 2.66016V3.69141H33.5668V2.66016H37.141ZM34.598 1.10742H36.0102V7.24805C36.0102 7.44336 36.0375 7.59375 36.0922 7.69922C36.1508 7.80078 36.2309 7.86914 36.3324 7.9043C36.434 7.93945 36.5531 7.95703 36.6898 7.95703C36.7875 7.95703 36.8812 7.95117 36.9711 7.93945C37.0609 7.92773 37.1332 7.91602 37.1879 7.9043L37.1937 8.98242C37.0766 9.01758 36.9398 9.04883 36.7836 9.07617C36.6312 9.10352 36.4555 9.11719 36.2562 9.11719C35.932 9.11719 35.6449 9.06055 35.3949 8.94727C35.1449 8.83008 34.9496 8.64062 34.809 8.37891C34.6684 8.11719 34.598 7.76953 34.598 7.33594V1.10742Z" fill="#9A9A9A"/>
</svg>
