<svg width="101" height="16" viewBox="0 0 101 16" fill="none" xmlns="http://www.w3.org/2000/svg">
<path d="M7.38281 8.52832H9.21387C9.15527 9.22656 8.95996 9.84912 8.62793 10.396C8.2959 10.938 7.82959 11.3652 7.229 11.6777C6.62842 11.9902 5.89844 12.1465 5.03906 12.1465C4.37988 12.1465 3.78662 12.0293 3.25928 11.7949C2.73193 11.5557 2.28027 11.2188 1.9043 10.7842C1.52832 10.3447 1.24023 9.81494 1.04004 9.19482C0.844727 8.57471 0.74707 7.88135 0.74707 7.11475V6.22852C0.74707 5.46191 0.847168 4.76855 1.04736 4.14844C1.25244 3.52832 1.54541 2.99854 1.92627 2.55908C2.30713 2.11475 2.76367 1.77539 3.2959 1.54102C3.83301 1.30664 4.43604 1.18945 5.10498 1.18945C5.95459 1.18945 6.67236 1.3457 7.2583 1.6582C7.84424 1.9707 8.29834 2.40283 8.62061 2.95459C8.94775 3.50635 9.14795 4.13867 9.22119 4.85156H7.39014C7.34131 4.39258 7.23389 3.99951 7.06787 3.67236C6.90674 3.34521 6.66748 3.09619 6.3501 2.92529C6.03271 2.74951 5.61768 2.66162 5.10498 2.66162C4.68506 2.66162 4.31885 2.73975 4.00635 2.896C3.69385 3.05225 3.43262 3.28174 3.22266 3.58447C3.0127 3.88721 2.854 4.26074 2.74658 4.70508C2.64404 5.14453 2.59277 5.64746 2.59277 6.21387V7.11475C2.59277 7.65186 2.63916 8.14014 2.73193 8.57959C2.82959 9.01416 2.97607 9.3877 3.17139 9.7002C3.37158 10.0127 3.62549 10.2544 3.93311 10.4253C4.24072 10.5962 4.60938 10.6816 5.03906 10.6816C5.56152 10.6816 5.98389 10.5986 6.30615 10.4326C6.6333 10.2666 6.87988 10.0249 7.0459 9.70752C7.2168 9.38525 7.3291 8.99219 7.38281 8.52832ZM9.13087 8.12549V7.95703C9.13087 7.38574 9.21388 6.85596 9.3799 6.36768C9.54591 5.87451 9.78517 5.44727 10.0977 5.08594C10.4151 4.71973 10.8008 4.43652 11.2549 4.23633C11.7139 4.03125 12.2315 3.92871 12.8076 3.92871C13.3887 3.92871 13.9063 4.03125 14.3604 4.23633C14.8194 4.43652 15.2075 4.71973 15.5249 5.08594C15.8423 5.44727 16.084 5.87451 16.25 6.36768C16.416 6.85596 16.499 7.38574 16.499 7.95703V8.12549C16.499 8.69678 16.416 9.22656 16.25 9.71484C16.084 10.2031 15.8423 10.6304 15.5249 10.9966C15.2075 11.3579 14.8218 11.6411 14.3677 11.8462C13.9136 12.0464 13.3985 12.1465 12.8223 12.1465C12.2412 12.1465 11.7212 12.0464 11.2622 11.8462C10.8081 11.6411 10.4224 11.3579 10.105 10.9966C9.78761 10.6304 9.54591 10.2031 9.3799 9.71484C9.21388 9.22656 9.13087 8.69678 9.13087 8.12549ZM10.896 7.95703V8.12549C10.896 8.48193 10.9326 8.81885 11.0059 9.13623C11.0791 9.45361 11.1939 9.73193 11.3501 9.97119C11.5064 10.2104 11.7066 10.3984 11.9507 10.5352C12.1948 10.6719 12.4854 10.7402 12.8223 10.7402C13.1494 10.7402 13.4326 10.6719 13.6719 10.5352C13.916 10.3984 14.1162 10.2104 14.2725 9.97119C14.4287 9.73193 14.5435 9.45361 14.6167 9.13623C14.6948 8.81885 14.7339 8.48193 14.7339 8.12549V7.95703C14.7339 7.60547 14.6948 7.27344 14.6167 6.96094C14.5435 6.64355 14.4263 6.36279 14.2652 6.11865C14.1089 5.87451 13.9087 5.68408 13.6646 5.54736C13.4253 5.40576 13.1397 5.33496 12.8076 5.33496C12.4756 5.33496 12.1875 5.40576 11.9434 5.54736C11.7041 5.68408 11.5064 5.87451 11.3501 6.11865C11.1939 6.36279 11.0791 6.64355 11.0059 6.96094C10.9326 7.27344 10.896 7.60547 10.896 7.95703ZM18.5108 5.59863V15.0469H16.7456V4.0752H18.3716L18.5108 5.59863ZM23.6743 7.96436V8.11816C23.6743 8.69434 23.606 9.229 23.4693 9.72217C23.3374 10.2104 23.1397 10.6377 22.876 11.0039C22.6172 11.3652 22.2974 11.646 21.9165 11.8462C21.5357 12.0464 21.0962 12.1465 20.5982 12.1465C20.105 12.1465 19.6729 12.0562 19.3018 11.8755C18.9356 11.6899 18.6255 11.4287 18.3716 11.0918C18.1177 10.7549 17.9126 10.3594 17.7564 9.90527C17.605 9.44629 17.4976 8.94336 17.4341 8.39648V7.80322C17.4976 7.22217 17.605 6.69482 17.7564 6.22119C17.9126 5.74756 18.1177 5.33984 18.3716 4.99805C18.6255 4.65625 18.9356 4.39258 19.3018 4.20703C19.668 4.02148 20.0952 3.92871 20.5835 3.92871C21.0816 3.92871 21.5235 4.02637 21.9092 4.22168C22.295 4.41211 22.6197 4.68555 22.8833 5.04199C23.147 5.39355 23.3448 5.81836 23.4766 6.31641C23.6084 6.80957 23.6743 7.35889 23.6743 7.96436ZM21.9092 8.11816V7.96436C21.9092 7.59814 21.875 7.25879 21.8067 6.94629C21.7383 6.62891 21.6309 6.35059 21.4844 6.11133C21.3379 5.87207 21.1499 5.68652 20.9204 5.55469C20.6958 5.41797 20.4248 5.34961 20.1075 5.34961C19.795 5.34961 19.5264 5.40332 19.3018 5.51074C19.0772 5.61328 18.8892 5.75732 18.7378 5.94287C18.5865 6.12842 18.4693 6.3457 18.3863 6.59473C18.3033 6.83887 18.2447 7.10498 18.2105 7.39307V8.81396C18.2691 9.16553 18.3692 9.48779 18.5108 9.78076C18.6524 10.0737 18.8526 10.3081 19.1114 10.4839C19.375 10.6548 19.7119 10.7402 20.1221 10.7402C20.4395 10.7402 20.7105 10.6719 20.9351 10.5352C21.1597 10.3984 21.3428 10.2104 21.4844 9.97119C21.6309 9.72705 21.7383 9.44629 21.8067 9.12891C21.875 8.81152 21.9092 8.47461 21.9092 8.11816ZM26.1475 11.1357L28.3008 4.0752H30.1905L27.0118 13.2085C26.9385 13.4038 26.8433 13.6162 26.7261 13.8457C26.6089 14.0752 26.4551 14.2925 26.2647 14.4976C26.0791 14.7075 25.8472 14.876 25.5689 15.0029C25.2906 15.1348 24.9537 15.2007 24.5581 15.2007C24.4019 15.2007 24.2505 15.186 24.104 15.1567C23.9624 15.1323 23.8282 15.1055 23.7012 15.0762L23.6939 13.7285C23.7427 13.7334 23.8013 13.7383 23.8697 13.7432C23.9429 13.748 24.0015 13.7505 24.0455 13.7505C24.3384 13.7505 24.5826 13.7139 24.7779 13.6406C24.9732 13.5723 25.1319 13.46 25.254 13.3037C25.3809 13.1475 25.4883 12.9375 25.5762 12.6738L26.1475 11.1357ZM24.9317 4.0752L26.814 10.0078L27.129 11.8682L25.9058 12.1831L23.0274 4.0752H24.9317ZM36.0889 4.0752V5.36426H31.6212V4.0752H36.0889ZM32.9102 2.13428H34.6754V9.81006C34.6754 10.0542 34.7095 10.2422 34.7779 10.374C34.8511 10.501 34.9512 10.5864 35.0782 10.6304C35.2052 10.6743 35.3541 10.6963 35.525 10.6963C35.647 10.6963 35.7642 10.689 35.8765 10.6743C35.9888 10.6597 36.0792 10.645 36.1475 10.6304L36.1549 11.978C36.0084 12.022 35.8375 12.061 35.6422 12.0952C35.4517 12.1294 35.232 12.1465 34.983 12.1465C34.5777 12.1465 34.2188 12.0757 33.9063 11.9341C33.5938 11.7876 33.3497 11.5508 33.1739 11.2236C32.9981 10.8965 32.9102 10.4619 32.9102 9.91992V2.13428ZM35.6983 8.12549V7.95703C35.6983 7.38574 35.7813 6.85596 35.9474 6.36768C36.1134 5.87451 36.3526 5.44727 36.6651 5.08594C36.9825 4.71973 37.3683 4.43652 37.8224 4.23633C38.2813 4.03125 38.7989 3.92871 39.3751 3.92871C39.9561 3.92871 40.4737 4.03125 40.9278 4.23633C41.3868 4.43652 41.775 4.71973 42.0924 5.08594C42.4098 5.44727 42.6515 5.87451 42.8175 6.36768C42.9835 6.85596 43.0665 7.38574 43.0665 7.95703V8.12549C43.0665 8.69678 42.9835 9.22656 42.8175 9.71484C42.6515 10.2031 42.4098 10.6304 42.0924 10.9966C41.775 11.3579 41.3892 11.6411 40.9351 11.8462C40.481 12.0464 39.9659 12.1465 39.3897 12.1465C38.8087 12.1465 38.2887 12.0464 37.8297 11.8462C37.3756 11.6411 36.9898 11.3579 36.6725 10.9966C36.3551 10.6304 36.1134 10.2031 35.9474 9.71484C35.7813 9.22656 35.6983 8.69678 35.6983 8.12549ZM37.4635 7.95703V8.12549C37.4635 8.48193 37.5001 8.81885 37.5733 9.13623C37.6466 9.45361 37.7613 9.73193 37.9176 9.97119C38.0738 10.2104 38.274 10.3984 38.5182 10.5352C38.7623 10.6719 39.0528 10.7402 39.3897 10.7402C39.7169 10.7402 40.0001 10.6719 40.2393 10.5352C40.4835 10.3984 40.6837 10.2104 40.8399 9.97119C40.9962 9.73193 41.1109 9.45361 41.1842 9.13623C41.2623 8.81885 41.3014 8.48193 41.3014 8.12549V7.95703C41.3014 7.60547 41.2623 7.27344 41.1842 6.96094C41.1109 6.64355 40.9937 6.36279 40.8326 6.11865C40.6764 5.87451 40.4762 5.68408 40.232 5.54736C39.9928 5.40576 39.7071 5.33496 39.3751 5.33496C39.0431 5.33496 38.755 5.40576 38.5108 5.54736C38.2716 5.68408 38.0738 5.87451 37.9176 6.11865C37.7613 6.36279 37.6466 6.64355 37.5733 6.96094C37.5001 7.27344 37.4635 7.60547 37.4635 7.95703ZM50.6349 10.3594V0.75H52.4073V12H50.8033L50.6349 10.3594ZM45.4786 8.12549V7.97168C45.4786 7.37109 45.5494 6.82422 45.691 6.33105C45.8326 5.83301 46.0377 5.40576 46.3063 5.04932C46.5748 4.68799 46.902 4.41211 47.2877 4.22168C47.6735 4.02637 48.108 3.92871 48.5914 3.92871C49.0699 3.92871 49.4899 4.02148 49.8512 4.20703C50.2125 4.39258 50.5201 4.65869 50.774 5.00537C51.0279 5.34717 51.2306 5.75732 51.382 6.23584C51.5333 6.70947 51.6407 7.23682 51.7042 7.81787V8.30859C51.6407 8.875 51.5333 9.39258 51.382 9.86133C51.2306 10.3301 51.0279 10.7354 50.774 11.0771C50.5201 11.4189 50.2101 11.6826 49.8439 11.8682C49.4825 12.0537 49.0602 12.1465 48.5768 12.1465C48.0983 12.1465 47.6661 12.0464 47.2804 11.8462C46.8995 11.646 46.5748 11.3652 46.3063 11.0039C46.0377 10.6426 45.8326 10.2178 45.691 9.72949C45.5494 9.23633 45.4786 8.70166 45.4786 8.12549ZM47.2438 7.97168V8.12549C47.2438 8.48682 47.2755 8.82373 47.339 9.13623C47.4073 9.44873 47.5123 9.72461 47.6539 9.96387C47.7955 10.1982 47.9786 10.3838 48.2032 10.5205C48.4327 10.6523 48.7062 10.7183 49.0236 10.7183C49.4239 10.7183 49.7535 10.6304 50.0123 10.4546C50.2711 10.2788 50.4737 10.042 50.6202 9.74414C50.7716 9.44141 50.8741 9.10449 50.9278 8.7334V7.40771C50.8986 7.11963 50.8375 6.85107 50.7447 6.60205C50.6569 6.35303 50.5372 6.13574 50.3859 5.9502C50.2345 5.75977 50.0465 5.61328 49.8219 5.51074C49.6022 5.40332 49.3409 5.34961 49.0382 5.34961C48.7159 5.34961 48.4425 5.41797 48.2179 5.55469C47.9933 5.69141 47.8077 5.87939 47.6612 6.11865C47.5196 6.35791 47.4147 6.63623 47.3463 6.95361C47.2779 7.271 47.2438 7.61035 47.2438 7.97168ZM56.5065 12.1465C55.9205 12.1465 55.3908 12.0513 54.9171 11.8608C54.4484 11.6655 54.048 11.3945 53.716 11.0479C53.3888 10.7012 53.1373 10.2935 52.9616 9.82471C52.7858 9.35596 52.6979 8.85059 52.6979 8.30859V8.01562C52.6979 7.39551 52.7882 6.83398 52.9689 6.33105C53.1495 5.82812 53.401 5.39844 53.7233 5.04199C54.0455 4.68066 54.4264 4.40479 54.8659 4.21436C55.3053 4.02393 55.7814 3.92871 56.2941 3.92871C56.8605 3.92871 57.3561 4.02393 57.7809 4.21436C58.2057 4.40479 58.5573 4.67334 58.8356 5.02002C59.1188 5.36182 59.3287 5.76953 59.4655 6.24316C59.6071 6.7168 59.6779 7.23926 59.6779 7.81055V8.56494H53.5548V7.29785H57.9347V7.15869C57.9249 6.84131 57.8615 6.54346 57.7443 6.26514C57.632 5.98682 57.4586 5.76221 57.2243 5.59131C56.9899 5.42041 56.6774 5.33496 56.2868 5.33496C55.9938 5.33496 55.7326 5.39844 55.5031 5.52539C55.2785 5.64746 55.0905 5.82568 54.9391 6.06006C54.7877 6.29443 54.6705 6.57764 54.5875 6.90967C54.5094 7.23682 54.4703 7.60547 54.4703 8.01562V8.30859C54.4703 8.65527 54.5167 8.97754 54.6095 9.27539C54.7072 9.56836 54.8488 9.82471 55.0343 10.0444C55.2199 10.2642 55.4445 10.4375 55.7081 10.5645C55.9718 10.6865 56.2721 10.7476 56.609 10.7476C57.0338 10.7476 57.4122 10.6621 57.7443 10.4912C58.0763 10.3203 58.3644 10.0786 58.6085 9.76611L59.5387 10.667C59.3678 10.916 59.1456 11.1553 58.8722 11.3848C58.5988 11.6094 58.2643 11.7925 57.8688 11.9341C57.4782 12.0757 57.0241 12.1465 56.5065 12.1465ZM63.0519 10.7402C63.34 10.7402 63.5988 10.6841 63.8283 10.5718C64.0626 10.4546 64.2506 10.2935 64.3922 10.0884C64.5387 9.8833 64.6193 9.64648 64.6339 9.37793H66.2965C66.2868 9.89062 66.1354 10.3569 65.8424 10.7769C65.5495 11.1968 65.1613 11.5312 64.6779 11.7803C64.1945 12.0244 63.6598 12.1465 63.0739 12.1465C62.4684 12.1465 61.9411 12.0439 61.4918 11.8389C61.0426 11.6289 60.6691 11.3408 60.3712 10.9746C60.0734 10.6084 59.8488 10.186 59.6974 9.70752C59.5509 9.229 59.4777 8.71631 59.4777 8.16943V7.91309C59.4777 7.36621 59.5509 6.85352 59.6974 6.375C59.8488 5.8916 60.0734 5.4668 60.3712 5.10059C60.6691 4.73438 61.0426 4.44873 61.4918 4.24365C61.9411 4.03369 62.466 3.92871 63.0666 3.92871C63.7013 3.92871 64.258 4.05566 64.7365 4.30957C65.215 4.55859 65.591 4.90771 65.8644 5.35693C66.1427 5.80127 66.2868 6.31885 66.2965 6.90967H64.6339C64.6193 6.6167 64.546 6.35303 64.4142 6.11865C64.2873 5.87939 64.1066 5.68896 63.8722 5.54736C63.6427 5.40576 63.3668 5.33496 63.0446 5.33496C62.6881 5.33496 62.3927 5.4082 62.1583 5.55469C61.924 5.69629 61.7409 5.8916 61.609 6.14062C61.4772 6.38477 61.382 6.66064 61.3234 6.96826C61.2697 7.271 61.2428 7.58594 61.2428 7.91309V8.16943C61.2428 8.49658 61.2697 8.81396 61.3234 9.12158C61.3771 9.4292 61.4699 9.70508 61.6017 9.94922C61.7384 10.1885 61.924 10.3813 62.1583 10.5278C62.3927 10.6694 62.6906 10.7402 63.0519 10.7402ZM68.1838 5.58398V12H66.4186V4.0752H68.1032L68.1838 5.58398ZM70.6081 4.02393L70.5934 5.66455C70.486 5.64502 70.3688 5.63037 70.2419 5.62061C70.1198 5.61084 69.9977 5.60596 69.8756 5.60596C69.5729 5.60596 69.3068 5.6499 69.0773 5.73779C68.8478 5.8208 68.6549 5.94287 68.4987 6.104C68.3473 6.26025 68.2301 6.45068 68.1471 6.67529C68.0641 6.8999 68.0153 7.15137 68.0006 7.42969L67.5978 7.45898C67.5978 6.96094 67.6466 6.49951 67.7443 6.07471C67.842 5.6499 67.9884 5.27637 68.1838 4.9541C68.3839 4.63184 68.633 4.38037 68.9308 4.19971C69.2336 4.01904 69.5827 3.92871 69.9782 3.92871C70.0856 3.92871 70.2004 3.93848 70.3224 3.95801C70.4494 3.97754 70.5446 3.99951 70.6081 4.02393ZM72.3635 4.0752V12H70.591V4.0752H72.3635ZM70.4738 1.99512C70.4738 1.72656 70.5617 1.50439 70.7375 1.32861C70.9181 1.14795 71.1672 1.05762 71.4846 1.05762C71.7971 1.05762 72.0436 1.14795 72.2243 1.32861C72.405 1.50439 72.4953 1.72656 72.4953 1.99512C72.4953 2.25879 72.405 2.47852 72.2243 2.6543C72.0436 2.83008 71.7971 2.91797 71.4846 2.91797C71.1672 2.91797 70.9181 2.83008 70.7375 2.6543C70.5617 2.47852 70.4738 2.25879 70.4738 1.99512ZM74.8293 5.59863V15.0469H73.0642V4.0752H74.6901L74.8293 5.59863ZM79.9929 7.96436V8.11816C79.9929 8.69434 79.9245 9.229 79.7878 9.72217C79.656 10.2104 79.4582 10.6377 79.1945 11.0039C78.9357 11.3652 78.6159 11.646 78.2351 11.8462C77.8542 12.0464 77.4147 12.1465 76.9167 12.1465C76.4235 12.1465 75.9914 12.0562 75.6203 11.8755C75.2541 11.6899 74.944 11.4287 74.6901 11.0918C74.4362 10.7549 74.2311 10.3594 74.0749 9.90527C73.9235 9.44629 73.8161 8.94336 73.7526 8.39648V7.80322C73.8161 7.22217 73.9235 6.69482 74.0749 6.22119C74.2311 5.74756 74.4362 5.33984 74.6901 4.99805C74.944 4.65625 75.2541 4.39258 75.6203 4.20703C75.9865 4.02148 76.4138 3.92871 76.902 3.92871C77.4001 3.92871 77.842 4.02637 78.2277 4.22168C78.6135 4.41211 78.9382 4.68555 79.2019 5.04199C79.4655 5.39355 79.6633 5.81836 79.7951 6.31641C79.9269 6.80957 79.9929 7.35889 79.9929 7.96436ZM78.2277 8.11816V7.96436C78.2277 7.59814 78.1936 7.25879 78.1252 6.94629C78.0568 6.62891 77.9494 6.35059 77.8029 6.11133C77.6564 5.87207 77.4685 5.68652 77.239 5.55469C77.0144 5.41797 76.7434 5.34961 76.426 5.34961C76.1135 5.34961 75.8449 5.40332 75.6203 5.51074C75.3957 5.61328 75.2077 5.75732 75.0563 5.94287C74.905 6.12842 74.7878 6.3457 74.7048 6.59473C74.6218 6.83887 74.5632 7.10498 74.529 7.39307V8.81396C74.5876 9.16553 74.6877 9.48779 74.8293 9.78076C74.9709 10.0737 75.1711 10.3081 75.4299 10.4839C75.6936 10.6548 76.0305 10.7402 76.4406 10.7402C76.758 10.7402 77.029 10.6719 77.2536 10.5352C77.4782 10.3984 77.6613 10.2104 77.8029 9.97119C77.9494 9.72705 78.0568 9.44629 78.1252 9.12891C78.1936 8.81152 78.2277 8.47461 78.2277 8.11816ZM83.8869 4.0752V5.36426H79.4192V4.0752H83.8869ZM80.7082 2.13428H82.4734V9.81006C82.4734 10.0542 82.5075 10.2422 82.5759 10.374C82.6491 10.501 82.7492 10.5864 82.8762 10.6304C83.0031 10.6743 83.1521 10.6963 83.323 10.6963C83.445 10.6963 83.5622 10.689 83.6745 10.6743C83.7868 10.6597 83.8772 10.645 83.9455 10.6304L83.9528 11.978C83.8064 12.022 83.6355 12.061 83.4401 12.0952C83.2497 12.1294 83.03 12.1465 82.781 12.1465C82.3757 12.1465 82.0168 12.0757 81.7043 11.9341C81.3918 11.7876 81.1477 11.5508 80.9719 11.2236C80.7961 10.8965 80.7082 10.4619 80.7082 9.91992V2.13428ZM85.8987 4.0752V12H84.1262V4.0752H85.8987ZM84.009 1.99512C84.009 1.72656 84.0969 1.50439 84.2727 1.32861C84.4533 1.14795 84.7024 1.05762 85.0198 1.05762C85.3323 1.05762 85.5788 1.14795 85.7595 1.32861C85.9402 1.50439 86.0305 1.72656 86.0305 1.99512C86.0305 2.25879 85.9402 2.47852 85.7595 2.6543C85.5788 2.83008 85.3323 2.91797 85.0198 2.91797C84.7024 2.91797 84.4533 2.83008 84.2727 2.6543C84.0969 2.47852 84.009 2.25879 84.009 1.99512ZM86.2551 8.12549V7.95703C86.2551 7.38574 86.3381 6.85596 86.5041 6.36768C86.6702 5.87451 86.9094 5.44727 87.2219 5.08594C87.5393 4.71973 87.925 4.43652 88.3791 4.23633C88.8381 4.03125 89.3557 3.92871 89.9319 3.92871C90.5129 3.92871 91.0305 4.03125 91.4846 4.23633C91.9436 4.43652 92.3318 4.71973 92.6492 5.08594C92.9665 5.44727 93.2082 5.87451 93.3743 6.36768C93.5403 6.85596 93.6233 7.38574 93.6233 7.95703V8.12549C93.6233 8.69678 93.5403 9.22656 93.3743 9.71484C93.2082 10.2031 92.9665 10.6304 92.6492 10.9966C92.3318 11.3579 91.946 11.6411 91.4919 11.8462C91.0378 12.0464 90.5227 12.1465 89.9465 12.1465C89.3655 12.1465 88.8454 12.0464 88.3865 11.8462C87.9324 11.6411 87.5466 11.3579 87.2292 10.9966C86.9118 10.6304 86.6702 10.2031 86.5041 9.71484C86.3381 9.22656 86.2551 8.69678 86.2551 8.12549ZM88.0202 7.95703V8.12549C88.0202 8.48193 88.0569 8.81885 88.1301 9.13623C88.2034 9.45361 88.3181 9.73193 88.4743 9.97119C88.6306 10.2104 88.8308 10.3984 89.0749 10.5352C89.3191 10.6719 89.6096 10.7402 89.9465 10.7402C90.2737 10.7402 90.5569 10.6719 90.7961 10.5352C91.0403 10.3984 91.2405 10.2104 91.3967 9.97119C91.553 9.73193 91.6677 9.45361 91.741 9.13623C91.8191 8.81885 91.8581 8.48193 91.8581 8.12549V7.95703C91.8581 7.60547 91.8191 7.27344 91.741 6.96094C91.6677 6.64355 91.5505 6.36279 91.3894 6.11865C91.2331 5.87451 91.0329 5.68408 90.7888 5.54736C90.5495 5.40576 90.2639 5.33496 89.9319 5.33496C89.5998 5.33496 89.3118 5.40576 89.0676 5.54736C88.8284 5.68408 88.6306 5.87451 88.4743 6.11865C88.3181 6.36279 88.2034 6.64355 88.1301 6.96094C88.0569 7.27344 88.0202 7.60547 88.0202 7.95703ZM95.613 5.76709V12H93.8479V4.0752H95.5105L95.613 5.76709ZM95.2981 7.74463L94.7268 7.7373C94.7317 7.17578 94.8098 6.66064 94.9612 6.19189C95.1174 5.72314 95.3323 5.32031 95.6057 4.9834C95.884 4.64648 96.2161 4.3877 96.6018 4.20703C96.9875 4.02148 97.4172 3.92871 97.8909 3.92871C98.2717 3.92871 98.616 3.98242 98.9236 4.08984C99.2361 4.19238 99.5022 4.36084 99.7219 4.59521C99.9465 4.82959 100.117 5.13477 100.235 5.51074C100.352 5.88184 100.41 6.33838 100.41 6.88037V12H98.6379V6.87305C98.6379 6.49219 98.5818 6.19189 98.4695 5.97217C98.3621 5.74756 98.2034 5.58887 97.9934 5.49609C97.7883 5.39844 97.532 5.34961 97.2244 5.34961C96.9216 5.34961 96.6506 5.41309 96.4114 5.54004C96.1721 5.66699 95.9695 5.84033 95.8035 6.06006C95.6423 6.27979 95.5178 6.53369 95.4299 6.82178C95.342 7.10986 95.2981 7.41748 95.2981 7.74463Z" fill="url(#paint0_linear_2_2314)"/>
<defs>
<linearGradient id="paint0_linear_2_2314" x1="0" y1="-12" x2="105.194" y2="0.847057" gradientUnits="userSpaceOnUse">
<stop stop-color="#81D4DC"/>
<stop offset="1" stop-color="#5C8AD5"/>
</linearGradient>
</defs>
</svg>
