<svg width="56" height="81" viewBox="0 0 56 81" fill="none" xmlns="http://www.w3.org/2000/svg">
    <path
        d="M42.2657 17.795H55.1075L39.0234 1.71094V14.5528C39.0234 16.2983 40.5199 17.7946 42.2652 17.7946L42.2657 17.795Z"
        fill="#4294FE" />
    <path
        d="M42.2636 20.2898C39.0218 20.2898 36.4038 17.6719 36.4038 14.43V0.964844H6.48092C3.23912 0.964844 0.621094 3.58273 0.621094 6.70006V74.8979C0.621094 78.1397 3.23898 80.7577 6.48092 80.7577H49.9928C53.2346 80.7577 55.728 78.1398 55.728 74.8979V20.2891L42.2636 20.2898ZM11.2196 43.7297H32.041C32.7889 43.7297 33.2877 44.2285 33.2877 44.9764C33.2877 45.7243 32.7889 46.2231 32.041 46.2231H11.2196C10.4717 46.2231 9.97289 45.7243 9.97289 44.9764C9.97289 44.2285 10.5962 43.7297 11.2196 43.7297ZM9.97289 36.3736C9.97289 35.6257 10.4717 35.1269 11.2196 35.1269H32.041C32.7889 35.1269 33.2877 35.6257 33.2877 36.3736C33.2877 37.1215 32.7889 37.6203 32.041 37.6203H11.2196C10.5962 37.6203 9.97289 36.9969 9.97289 36.3736ZM45.381 72.1564H11.2204C10.4725 72.1564 9.97371 71.6576 9.97371 70.9097C9.97371 70.1618 10.4725 69.663 11.2204 69.663H45.381C46.1289 69.663 46.6277 70.1618 46.6277 70.9097C46.6277 71.6576 46.1289 72.1564 45.381 72.1564ZM45.381 63.4289H11.2204C10.4725 63.4289 9.97371 62.9301 9.97371 62.1822C9.97371 61.4343 10.4725 60.9355 11.2204 60.9355H45.381C46.1289 60.9355 46.6277 61.4343 46.6277 62.1822C46.6277 62.9307 46.1289 63.4289 45.381 63.4289ZM45.381 54.8266H11.2204C10.4725 54.8266 9.97371 54.3278 9.97371 53.5799C9.97371 52.832 10.4725 52.3332 11.2204 52.3332H45.381C46.1289 52.3332 46.6277 52.832 46.6277 53.5799C46.6277 54.3278 46.1289 54.8266 45.381 54.8266ZM45.381 28.8946H11.2204C10.4725 28.8946 9.97371 28.3958 9.97371 27.6479C9.97371 26.9 10.4725 26.4012 11.2204 26.4012H45.381C46.1289 26.4012 46.6277 26.9 46.6277 27.6479C46.6277 28.3958 46.1289 28.8946 45.381 28.8946Z"
        fill="#4294FE" />
</svg>