<svg width="56" height="81" viewBox="0 0 56 81" fill="none" xmlns="http://www.w3.org/2000/svg">
<path d="M42.2637 17.6245H55.1055L39.0215 1.54041V14.3822C39.0215 16.1277 40.5179 17.624 42.2633 17.624L42.2637 17.6245Z" fill="white"/>
<path d="M42.2636 20.1179C39.0218 20.1179 36.4038 17.5001 36.4038 14.2581V0.792969H6.48092C3.23912 0.792969 0.621094 3.41085 0.621094 6.52819V74.726C0.621094 77.9678 3.23898 80.5858 6.48092 80.5858H49.9928C53.2346 80.5858 55.728 77.9679 55.728 74.726V20.1172L42.2636 20.1179ZM11.2196 43.5578H32.041C32.7889 43.5578 33.2877 44.0566 33.2877 44.8045C33.2877 45.5524 32.7889 46.0512 32.041 46.0512H11.2196C10.4717 46.0512 9.97289 45.5524 9.97289 44.8045C9.97289 44.0566 10.5962 43.5578 11.2196 43.5578ZM9.97289 36.2017C9.97289 35.4538 10.4717 34.955 11.2196 34.955H32.041C32.7889 34.955 33.2877 35.4538 33.2877 36.2017C33.2877 36.9496 32.7889 37.4484 32.041 37.4484H11.2196C10.5962 37.4484 9.97289 36.8251 9.97289 36.2017ZM45.381 71.9845H11.2204C10.4725 71.9845 9.97371 71.4857 9.97371 70.7378C9.97371 69.9899 10.4725 69.4911 11.2204 69.4911H45.381C46.1289 69.4911 46.6277 69.9899 46.6277 70.7378C46.6277 71.4857 46.1289 71.9845 45.381 71.9845ZM45.381 63.257H11.2204C10.4725 63.257 9.97371 62.7582 9.97371 62.0103C9.97371 61.2624 10.4725 60.7636 11.2204 60.7636H45.381C46.1289 60.7636 46.6277 61.2624 46.6277 62.0103C46.6277 62.7588 46.1289 63.257 45.381 63.257ZM45.381 54.6547H11.2204C10.4725 54.6547 9.97371 54.1559 9.97371 53.408C9.97371 52.6601 10.4725 52.1613 11.2204 52.1613H45.381C46.1289 52.1613 46.6277 52.6601 46.6277 53.408C46.6277 54.1559 46.1289 54.6547 45.381 54.6547ZM45.381 28.7227H11.2204C10.4725 28.7227 9.97371 28.224 9.97371 27.476C9.97371 26.7281 10.4725 26.2294 11.2204 26.2294H45.381C46.1289 26.2294 46.6277 26.7281 46.6277 27.476C46.6277 28.224 46.1289 28.7227 45.381 28.7227Z" fill="white"/>
</svg>
