<svg width="18" height="19" viewBox="0 0 18 19" fill="none" xmlns="http://www.w3.org/2000/svg">
<path d="M8.93893 0.842773C4.3236 0.842773 0.582031 4.80205 0.582031 9.68566C0.582031 14.5692 4.3236 18.5287 8.93893 18.5287C13.5543 18.5287 17.2963 14.5692 17.2963 9.68566C17.2962 4.80205 13.5543 0.842773 8.93893 0.842773ZM6.76451 7.05396C6.88011 6.93164 7.03155 6.8705 7.18298 6.8705C7.33441 6.8705 7.48573 6.93164 7.60128 7.05396L8.34212 7.83775V7.60719V4.52603C8.34212 4.18015 8.60699 3.89988 8.93386 3.89988C9.26074 3.89988 9.52561 4.18015 9.52561 4.52603V7.60713V7.88008L9.78357 7.60713L10.3065 7.05391C10.4221 6.93158 10.5734 6.87044 10.7248 6.87044C10.8762 6.87044 11.0277 6.93158 11.1433 7.05391C11.2855 7.20418 11.3395 7.41229 11.3067 7.60713C11.3067 7.6073 11.3065 7.60742 11.3065 7.6076C11.3041 7.62169 11.2999 7.63525 11.2965 7.64904C11.2915 7.67062 11.286 7.69202 11.2786 7.71295C11.2737 7.72704 11.2681 7.74078 11.2621 7.75451C11.2529 7.77638 11.2422 7.79731 11.2305 7.81812C11.2242 7.82915 11.2185 7.84011 11.2115 7.85067C11.1913 7.88156 11.1692 7.91151 11.1432 7.93904L10.301 8.83012L9.37668 9.80823C9.26096 9.93055 9.10964 9.99128 8.95838 9.99128C8.95693 9.99128 8.95548 9.99128 8.95403 9.99128C8.95258 9.99128 8.95102 9.99128 8.94969 9.99128C8.79842 9.99128 8.6471 9.93055 8.53138 9.80823L7.60702 8.83012L6.7649 7.93904C6.73888 7.91151 6.71676 7.88168 6.69681 7.85084C6.68974 7.83999 6.68394 7.82885 6.67759 7.81783C6.66606 7.79719 6.65547 7.77638 6.64622 7.75481C6.64015 7.74072 6.63436 7.7268 6.62945 7.71248C6.62238 7.69196 6.61703 7.67121 6.61196 7.65022C6.60851 7.63572 6.60399 7.62163 6.60154 7.60695C6.56822 7.41234 6.62216 7.20424 6.76451 7.05396ZM13.4841 13.1827H13.4839C13.4839 14.0279 12.7007 14.69 11.7008 14.69H6.17766C5.17787 14.69 4.39452 14.028 4.39452 13.1827V9.11458C4.39452 8.40023 4.9549 7.8183 5.73189 7.65482C5.76554 8.00742 5.91152 8.33432 6.15165 8.58829L6.38052 8.83048H6.17766C5.7729 8.83048 5.55054 9.04395 5.55054 9.11458V13.1827C5.55054 13.2535 5.77295 13.4668 6.17766 13.4668H11.7009C12.1057 13.4668 12.328 13.2533 12.328 13.1827V9.11458C12.328 9.04395 12.1056 8.83048 11.7009 8.83048H11.5271L11.7561 8.58812C11.9947 8.33586 12.1402 8.0112 12.1749 7.66095C12.9371 7.83268 13.4841 8.40908 13.4841 9.11475V13.1827Z" fill="#9A9A9A"/>
</svg>
