<svg width="48" height="10" viewBox="0 0 48 10" fill="none" xmlns="http://www.w3.org/2000/svg">
<path d="M6.45586 7.83398V9H1.92656V7.83398H6.45586ZM2.34258 0.46875V9H0.871876V0.46875H2.34258ZM5.86406 4.03125V5.17969H1.92656V4.03125H5.86406ZM6.42656 0.46875V1.64062H1.92656V0.46875H6.42656ZM10.5914 7.6875V0H12.0094V9H10.7262L10.5914 7.6875ZM6.46641 5.90039V5.77734C6.46641 5.29688 6.52305 4.85938 6.63633 4.46484C6.74961 4.06641 6.91367 3.72461 7.12852 3.43945C7.34336 3.15039 7.60508 2.92969 7.91367 2.77734C8.22227 2.62109 8.56992 2.54297 8.95664 2.54297C9.33945 2.54297 9.67539 2.61719 9.96445 2.76562C10.2535 2.91406 10.4996 3.12695 10.7027 3.4043C10.9059 3.67773 11.068 4.00586 11.1891 4.38867C11.3102 4.76758 11.3961 5.18945 11.4469 5.6543V6.04688C11.3961 6.5 11.3102 6.91406 11.1891 7.28906C11.068 7.66406 10.9059 7.98828 10.7027 8.26172C10.4996 8.53516 10.2516 8.74609 9.95859 8.89453C9.66953 9.04297 9.33164 9.11719 8.94492 9.11719C8.56211 9.11719 8.21641 9.03711 7.90781 8.87695C7.60313 8.7168 7.34336 8.49219 7.12852 8.20312C6.91367 7.91406 6.74961 7.57422 6.63633 7.18359C6.52305 6.78906 6.46641 6.36133 6.46641 5.90039ZM7.87852 5.77734V5.90039C7.87852 6.18945 7.90391 6.45898 7.95469 6.70898C8.00938 6.95898 8.09336 7.17969 8.20664 7.37109C8.31992 7.55859 8.46641 7.70703 8.64609 7.81641C8.82969 7.92188 9.04844 7.97461 9.30234 7.97461C9.62266 7.97461 9.88633 7.9043 10.0934 7.76367C10.3004 7.62305 10.4625 7.43359 10.5797 7.19531C10.7008 6.95312 10.7828 6.68359 10.8258 6.38672V5.32617C10.8023 5.0957 10.7535 4.88086 10.6793 4.68164C10.609 4.48242 10.5133 4.30859 10.3922 4.16016C10.2711 4.00781 10.1207 3.89062 9.94102 3.80859C9.76523 3.72266 9.55625 3.67969 9.31406 3.67969C9.05625 3.67969 8.8375 3.73438 8.65781 3.84375C8.47813 3.95312 8.32969 4.10352 8.2125 4.29492C8.09922 4.48633 8.01523 4.70898 7.96055 4.96289C7.90586 5.2168 7.87852 5.48828 7.87852 5.77734ZM16.6254 7.50586V2.66016H18.0434V9H16.7074L16.6254 7.50586ZM16.8246 6.1875L17.2992 6.17578C17.2992 6.60156 17.2523 6.99414 17.1586 7.35352C17.0648 7.70898 16.9203 8.01953 16.725 8.28516C16.5297 8.54688 16.2797 8.75195 15.975 8.90039C15.6703 9.04492 15.3051 9.11719 14.8793 9.11719C14.5707 9.11719 14.2875 9.07227 14.0297 8.98242C13.7719 8.89258 13.5492 8.75391 13.3617 8.56641C13.1781 8.37891 13.0355 8.13477 12.934 7.83398C12.8324 7.5332 12.7816 7.17383 12.7816 6.75586V2.66016H14.1938V6.76758C14.1938 6.99805 14.2211 7.19141 14.2758 7.34766C14.3305 7.5 14.4047 7.62305 14.4984 7.7168C14.5922 7.81055 14.7016 7.87695 14.8266 7.91602C14.9516 7.95508 15.0844 7.97461 15.225 7.97461C15.6273 7.97461 15.9438 7.89648 16.1742 7.74023C16.4086 7.58008 16.5746 7.36523 16.6723 7.0957C16.7738 6.82617 16.8246 6.52344 16.8246 6.1875ZM21.4055 7.99219C21.6359 7.99219 21.843 7.94727 22.0266 7.85742C22.2141 7.76367 22.3645 7.63477 22.4777 7.4707C22.5949 7.30664 22.6594 7.11719 22.6711 6.90234H24.0012C23.9934 7.3125 23.8723 7.68555 23.6379 8.02148C23.4035 8.35742 23.093 8.625 22.7063 8.82422C22.3195 9.01953 21.8918 9.11719 21.423 9.11719C20.9387 9.11719 20.5168 9.03516 20.1574 8.87109C19.798 8.70312 19.4992 8.47266 19.2609 8.17969C19.0227 7.88672 18.843 7.54883 18.7219 7.16602C18.6047 6.7832 18.5461 6.37305 18.5461 5.93555V5.73047C18.5461 5.29297 18.6047 4.88281 18.7219 4.5C18.843 4.11328 19.0227 3.77344 19.2609 3.48047C19.4992 3.1875 19.798 2.95898 20.1574 2.79492C20.5168 2.62695 20.9367 2.54297 21.4172 2.54297C21.925 2.54297 22.3703 2.64453 22.7531 2.84766C23.1359 3.04688 23.4367 3.32617 23.6555 3.68555C23.8781 4.04102 23.9934 4.45508 24.0012 4.92773H22.6711C22.6594 4.69336 22.6008 4.48242 22.4953 4.29492C22.3938 4.10352 22.2492 3.95117 22.0617 3.83789C21.8781 3.72461 21.6574 3.66797 21.3996 3.66797C21.1145 3.66797 20.8781 3.72656 20.6906 3.84375C20.5031 3.95703 20.3566 4.11328 20.2512 4.3125C20.1457 4.50781 20.0695 4.72852 20.0227 4.97461C19.9797 5.2168 19.9582 5.46875 19.9582 5.73047V5.93555C19.9582 6.19727 19.9797 6.45117 20.0227 6.69727C20.0656 6.94336 20.1398 7.16406 20.2453 7.35938C20.3547 7.55078 20.5031 7.70508 20.6906 7.82227C20.8781 7.93555 21.1164 7.99219 21.4055 7.99219ZM27.9844 7.72852V4.70508C27.9844 4.47852 27.9434 4.2832 27.8613 4.11914C27.7793 3.95508 27.6543 3.82812 27.4863 3.73828C27.3223 3.64844 27.1152 3.60352 26.8652 3.60352C26.6348 3.60352 26.4355 3.64258 26.2676 3.7207C26.0996 3.79883 25.9688 3.9043 25.875 4.03711C25.7812 4.16992 25.7344 4.32031 25.7344 4.48828H24.3281C24.3281 4.23828 24.3887 3.99609 24.5098 3.76172C24.6309 3.52734 24.8066 3.31836 25.0371 3.13477C25.2676 2.95117 25.543 2.80664 25.8633 2.70117C26.1836 2.5957 26.543 2.54297 26.9414 2.54297C27.418 2.54297 27.8398 2.62305 28.207 2.7832C28.5781 2.94336 28.8691 3.18555 29.0801 3.50977C29.2949 3.83008 29.4023 4.23242 29.4023 4.7168V7.53516C29.4023 7.82422 29.4219 8.08398 29.4609 8.31445C29.5039 8.54102 29.5645 8.73828 29.6426 8.90625V9H28.1953C28.1289 8.84766 28.0762 8.6543 28.0371 8.41992C28.002 8.18164 27.9844 7.95117 27.9844 7.72852ZM28.1895 5.14453L28.2012 6.01758H27.1875C26.9258 6.01758 26.6953 6.04297 26.4961 6.09375C26.2969 6.14062 26.1309 6.21094 25.998 6.30469C25.8652 6.39844 25.7656 6.51172 25.6992 6.64453C25.6328 6.77734 25.5996 6.92773 25.5996 7.0957C25.5996 7.26367 25.6387 7.41797 25.7168 7.55859C25.7949 7.69531 25.9082 7.80273 26.0566 7.88086C26.209 7.95898 26.3926 7.99805 26.6074 7.99805C26.8965 7.99805 27.1484 7.93945 27.3633 7.82227C27.582 7.70117 27.7539 7.55469 27.8789 7.38281C28.0039 7.20703 28.0703 7.04102 28.0781 6.88477L28.5352 7.51172C28.4883 7.67188 28.4082 7.84375 28.2949 8.02734C28.1816 8.21094 28.0332 8.38672 27.8496 8.55469C27.6699 8.71875 27.4531 8.85352 27.1992 8.95898C26.9492 9.06445 26.6602 9.11719 26.332 9.11719C25.918 9.11719 25.5488 9.03516 25.2246 8.87109C24.9004 8.70312 24.6465 8.47852 24.4629 8.19727C24.2793 7.91211 24.1875 7.58984 24.1875 7.23047C24.1875 6.89453 24.25 6.59766 24.375 6.33984C24.5039 6.07812 24.6914 5.85938 24.9375 5.68359C25.1875 5.50781 25.4922 5.375 25.8516 5.28516C26.2109 5.19141 26.6211 5.14453 27.082 5.14453H28.1895ZM33.1102 2.66016V3.69141H29.5359V2.66016H33.1102ZM30.5672 1.10742H31.9793V7.24805C31.9793 7.44336 32.0066 7.59375 32.0613 7.69922C32.1199 7.80078 32.2 7.86914 32.3016 7.9043C32.4031 7.93945 32.5223 7.95703 32.659 7.95703C32.7566 7.95703 32.8504 7.95117 32.9402 7.93945C33.0301 7.92773 33.1023 7.91602 33.157 7.9043L33.1629 8.98242C33.0457 9.01758 32.909 9.04883 32.7527 9.07617C32.6004 9.10352 32.4246 9.11719 32.2254 9.11719C31.9012 9.11719 31.6141 9.06055 31.3641 8.94727C31.1141 8.83008 30.9188 8.64062 30.7781 8.37891C30.6375 8.11719 30.5672 7.76953 30.5672 7.33594V1.10742ZM35.0367 2.66016V9H33.6188V2.66016H35.0367ZM33.525 0.996094C33.525 0.78125 33.5953 0.603516 33.7359 0.462891C33.8805 0.318359 34.0797 0.246094 34.3336 0.246094C34.5836 0.246094 34.7809 0.318359 34.9254 0.462891C35.0699 0.603516 35.1422 0.78125 35.1422 0.996094C35.1422 1.20703 35.0699 1.38281 34.9254 1.52344C34.7809 1.66406 34.5836 1.73438 34.3336 1.73438C34.0797 1.73438 33.8805 1.66406 33.7359 1.52344C33.5953 1.38281 33.525 1.20703 33.525 0.996094ZM35.6391 5.90039V5.76562C35.6391 5.30859 35.7055 4.88477 35.8383 4.49414C35.9711 4.09961 36.1625 3.75781 36.4125 3.46875C36.6664 3.17578 36.975 2.94922 37.3383 2.78906C37.7055 2.625 38.1195 2.54297 38.5805 2.54297C39.0453 2.54297 39.4594 2.625 39.8227 2.78906C40.1898 2.94922 40.5004 3.17578 40.7543 3.46875C41.0082 3.75781 41.2016 4.09961 41.3344 4.49414C41.4672 4.88477 41.5336 5.30859 41.5336 5.76562V5.90039C41.5336 6.35742 41.4672 6.78125 41.3344 7.17188C41.2016 7.5625 41.0082 7.9043 40.7543 8.19727C40.5004 8.48633 40.1918 8.71289 39.8285 8.87695C39.4652 9.03711 39.0531 9.11719 38.5922 9.11719C38.1273 9.11719 37.7113 9.03711 37.3441 8.87695C36.9809 8.71289 36.6723 8.48633 36.4184 8.19727C36.1645 7.9043 35.9711 7.5625 35.8383 7.17188C35.7055 6.78125 35.6391 6.35742 35.6391 5.90039ZM37.0512 5.76562V5.90039C37.0512 6.18555 37.0805 6.45508 37.1391 6.70898C37.1977 6.96289 37.2895 7.18555 37.4145 7.37695C37.5395 7.56836 37.6996 7.71875 37.8949 7.82812C38.0902 7.9375 38.3227 7.99219 38.5922 7.99219C38.8539 7.99219 39.0805 7.9375 39.2719 7.82812C39.4672 7.71875 39.6273 7.56836 39.7523 7.37695C39.8773 7.18555 39.9691 6.96289 40.0277 6.70898C40.0902 6.45508 40.1215 6.18555 40.1215 5.90039V5.76562C40.1215 5.48438 40.0902 5.21875 40.0277 4.96875C39.9691 4.71484 39.8754 4.49023 39.7465 4.29492C39.6215 4.09961 39.4613 3.94727 39.266 3.83789C39.0746 3.72461 38.8461 3.66797 38.5805 3.66797C38.3148 3.66797 38.0844 3.72461 37.8891 3.83789C37.6977 3.94727 37.5395 4.09961 37.4145 4.29492C37.2895 4.49023 37.1977 4.71484 37.1391 4.96875C37.0805 5.21875 37.0512 5.48438 37.0512 5.76562ZM43.4426 4.01367V9H42.0305V2.66016H43.3605L43.4426 4.01367ZM43.1906 5.5957L42.7336 5.58984C42.7375 5.14062 42.8 4.72852 42.9211 4.35352C43.0461 3.97852 43.218 3.65625 43.4367 3.38672C43.6594 3.11719 43.925 2.91016 44.2336 2.76562C44.5422 2.61719 44.8859 2.54297 45.2648 2.54297C45.5695 2.54297 45.8449 2.58594 46.091 2.67188C46.341 2.75391 46.5539 2.88867 46.7297 3.07617C46.9094 3.26367 47.0461 3.50781 47.1398 3.80859C47.2336 4.10547 47.2805 4.4707 47.2805 4.9043V9H45.8625V4.89844C45.8625 4.59375 45.8176 4.35352 45.7277 4.17773C45.6418 3.99805 45.5148 3.87109 45.3469 3.79688C45.1828 3.71875 44.9777 3.67969 44.7316 3.67969C44.4895 3.67969 44.2727 3.73047 44.0812 3.83203C43.8898 3.93359 43.7277 4.07227 43.5949 4.24805C43.466 4.42383 43.3664 4.62695 43.2961 4.85742C43.2258 5.08789 43.1906 5.33398 43.1906 5.5957Z" fill="#9A9A9A"/>
</svg>
