<svg width="48" height="48" viewBox="0 0 48 48" fill="none" xmlns="http://www.w3.org/2000/svg">
<g clip-path="url(#clip0_151_16408)">
<path d="M16.7221 1.57984C11.9261 3.2436 7.79012 6.40147 4.92155 10.5896C2.05298 14.7777 0.603052 19.7754 0.784743 24.8485C0.966434 29.9215 2.77017 34.8027 5.931 38.7749C9.09183 42.747 13.4432 45.6009 18.3458 46.9173C22.3205 47.943 26.4849 47.988 30.4808 47.0486C34.1008 46.2355 37.4475 44.4962 40.1933 42.0011C43.0511 39.3249 45.1255 35.9204 46.1933 32.1536C47.3536 28.0573 47.5602 23.7496 46.7971 19.5611H24.4771V28.8198H37.4033C37.145 30.2965 36.5914 31.706 35.7756 32.9637C34.9599 34.2215 33.8988 35.3017 32.6558 36.1398C31.0776 37.1843 29.2982 37.8869 27.4321 38.2023C25.5606 38.5504 23.641 38.5504 21.7696 38.2023C19.8727 37.8106 18.0782 37.0277 16.5008 35.9036C13.9664 34.1095 12.0634 31.5608 11.0633 28.6211C10.0467 25.6263 10.0467 22.3797 11.0633 19.3848C11.7752 17.2857 12.952 15.3743 14.5058 13.7936C16.2841 11.9514 18.5353 10.6346 21.0127 9.98763C23.49 9.34067 26.0977 9.38858 28.5496 10.1261C30.4651 10.7138 32.2167 11.7411 33.6646 13.1261C35.1221 11.6761 36.5771 10.2223 38.0296 8.76484C38.7796 7.98109 39.5971 7.23484 40.3358 6.43234C38.1253 4.37554 35.5308 2.77498 32.7008 1.72234C27.5472 -0.148947 21.9082 -0.199236 16.7221 1.57984Z" fill="white"/>
<path d="M16.7214 1.57971C21.9071 -0.200576 27.5461 -0.15161 32.7002 1.71846C35.5306 2.77825 38.124 4.38651 40.3314 6.45096C39.5814 7.25346 38.7902 8.00346 38.0252 8.78346C36.5702 10.236 35.1164 11.6835 33.6639 13.126C32.216 11.741 30.4644 10.7137 28.5489 10.126C26.0978 9.38586 23.4902 9.33519 21.0122 9.9795C18.5342 10.6238 16.2816 11.9382 14.5014 13.7785C12.9475 15.3592 11.7708 17.2705 11.0589 19.3697L3.28516 13.351C6.06769 7.83307 10.8855 3.6123 16.7214 1.57971Z" fill="#E33629"/>
<path d="M1.2228 19.3121C1.64033 17.2413 2.33402 15.2358 3.2853 13.3496L11.0591 19.3834C10.0424 22.3782 10.0424 25.6248 11.0591 28.6196C8.46905 30.6196 5.8778 32.6296 3.2853 34.6496C0.904617 29.9108 0.178549 24.5115 1.2228 19.3121Z" fill="#F8BD00"/>
<path d="M24.4763 19.5566H46.7963C47.5594 23.7452 47.3528 28.0528 46.1925 32.1491C45.1247 35.9159 43.0503 39.3204 40.1925 41.9966C37.6838 40.0391 35.1638 38.0966 32.655 36.1391C33.8988 35.3002 34.9604 34.2187 35.7762 32.9596C36.592 31.7005 37.1451 30.2897 37.4025 28.8116H24.4763C24.4725 25.7291 24.4763 22.6429 24.4763 19.5566Z" fill="#587DBD"/>
<path d="M3.28125 34.6491C5.87375 32.6491 8.465 30.6391 11.055 28.6191C12.057 31.5599 13.9628 34.1087 16.5 35.9016C18.0823 37.0205 19.8806 37.7971 21.78 38.1816C23.6515 38.5297 25.571 38.5297 27.4425 38.1816C29.3086 37.8662 31.088 37.1636 32.6663 36.1191C35.175 38.0766 37.695 40.0191 40.2038 41.9766C37.4583 44.4731 34.1116 46.2137 30.4912 47.0279C26.4953 47.9673 22.331 47.9222 18.3563 46.8966C15.2126 46.0573 12.2763 44.5776 9.73125 42.5504C7.03773 40.4115 4.83763 37.7163 3.28125 34.6491Z" fill="#319F43"/>
</g>
<defs>
<clipPath id="clip0_151_16408">
<rect width="48" height="48" fill="white"/>
</clipPath>
</defs>
</svg>
