<svg width="22" height="10" viewBox="0 0 22 10" fill="none" xmlns="http://www.w3.org/2000/svg">
<path d="M1.80117 0.46875V9H0.330469V0.46875H1.80117ZM4.21406 4.01367V9H2.80195V2.66016H4.13203L4.21406 4.01367ZM3.96211 5.5957L3.50508 5.58984C3.50898 5.14062 3.57148 4.72852 3.69258 4.35352C3.81758 3.97852 3.98945 3.65625 4.2082 3.38672C4.43086 3.11719 4.69648 2.91016 5.00508 2.76562C5.31367 2.61719 5.65742 2.54297 6.03633 2.54297C6.34102 2.54297 6.61641 2.58594 6.8625 2.67188C7.1125 2.75391 7.32539 2.88867 7.50117 3.07617C7.68086 3.26367 7.81758 3.50781 7.91133 3.80859C8.00508 4.10547 8.05195 4.4707 8.05195 4.9043V9H6.63398V4.89844C6.63398 4.59375 6.58906 4.35352 6.49922 4.17773C6.41328 3.99805 6.28633 3.87109 6.11836 3.79688C5.9543 3.71875 5.74922 3.67969 5.50313 3.67969C5.26094 3.67969 5.04414 3.73047 4.85273 3.83203C4.66133 3.93359 4.49922 4.07227 4.36641 4.24805C4.2375 4.42383 4.13789 4.62695 4.06758 4.85742C3.99727 5.08789 3.96211 5.33398 3.96211 5.5957ZM11.7246 2.66016V3.69141H8.15039V2.66016H11.7246ZM9.18164 1.10742H10.5938V7.24805C10.5938 7.44336 10.6211 7.59375 10.6758 7.69922C10.7344 7.80078 10.8145 7.86914 10.916 7.9043C11.0176 7.93945 11.1367 7.95703 11.2734 7.95703C11.3711 7.95703 11.4648 7.95117 11.5547 7.93945C11.6445 7.92773 11.7168 7.91602 11.7715 7.9043L11.7773 8.98242C11.6602 9.01758 11.5234 9.04883 11.3672 9.07617C11.2148 9.10352 11.0391 9.11719 10.8398 9.11719C10.5156 9.11719 10.2285 9.06055 9.97852 8.94727C9.72852 8.83008 9.5332 8.64062 9.39258 8.37891C9.25195 8.11719 9.18164 7.76953 9.18164 7.33594V1.10742ZM13.5574 3.86719V9H12.1453V2.66016H13.493L13.5574 3.86719ZM15.4969 2.61914L15.4852 3.93164C15.3992 3.91602 15.3055 3.9043 15.2039 3.89648C15.1063 3.88867 15.0086 3.88477 14.9109 3.88477C14.6688 3.88477 14.4559 3.91992 14.2723 3.99023C14.0887 4.05664 13.9344 4.1543 13.8094 4.2832C13.6883 4.4082 13.5945 4.56055 13.5281 4.74023C13.4617 4.91992 13.4227 5.12109 13.4109 5.34375L13.0887 5.36719C13.0887 4.96875 13.1277 4.59961 13.2059 4.25977C13.284 3.91992 13.4012 3.62109 13.5574 3.36328C13.7176 3.10547 13.9168 2.9043 14.1551 2.75977C14.3973 2.61523 14.6766 2.54297 14.993 2.54297C15.0789 2.54297 15.1707 2.55078 15.2684 2.56641C15.3699 2.58203 15.4461 2.59961 15.4969 2.61914ZM15.2848 5.90039V5.76562C15.2848 5.30859 15.3512 4.88477 15.484 4.49414C15.6168 4.09961 15.8082 3.75781 16.0582 3.46875C16.3121 3.17578 16.6207 2.94922 16.984 2.78906C17.3512 2.625 17.7652 2.54297 18.2262 2.54297C18.691 2.54297 19.1051 2.625 19.4684 2.78906C19.8355 2.94922 20.1461 3.17578 20.4 3.46875C20.6539 3.75781 20.8473 4.09961 20.9801 4.49414C21.1129 4.88477 21.1793 5.30859 21.1793 5.76562V5.90039C21.1793 6.35742 21.1129 6.78125 20.9801 7.17188C20.8473 7.5625 20.6539 7.9043 20.4 8.19727C20.1461 8.48633 19.8375 8.71289 19.4742 8.87695C19.1109 9.03711 18.6988 9.11719 18.2379 9.11719C17.773 9.11719 17.357 9.03711 16.9898 8.87695C16.6266 8.71289 16.318 8.48633 16.0641 8.19727C15.8102 7.9043 15.6168 7.5625 15.484 7.17188C15.3512 6.78125 15.2848 6.35742 15.2848 5.90039ZM16.6969 5.76562V5.90039C16.6969 6.18555 16.7262 6.45508 16.7848 6.70898C16.8434 6.96289 16.9352 7.18555 17.0602 7.37695C17.1852 7.56836 17.3453 7.71875 17.5406 7.82812C17.7359 7.9375 17.9684 7.99219 18.2379 7.99219C18.4996 7.99219 18.7262 7.9375 18.9176 7.82812C19.1129 7.71875 19.273 7.56836 19.398 7.37695C19.523 7.18555 19.6148 6.96289 19.6734 6.70898C19.7359 6.45508 19.7672 6.18555 19.7672 5.90039V5.76562C19.7672 5.48438 19.7359 5.21875 19.6734 4.96875C19.6148 4.71484 19.5211 4.49023 19.3922 4.29492C19.2672 4.09961 19.107 3.94727 18.9117 3.83789C18.7203 3.72461 18.4918 3.66797 18.2262 3.66797C17.9605 3.66797 17.7301 3.72461 17.5348 3.83789C17.3434 3.94727 17.1852 4.09961 17.0602 4.29492C16.9352 4.49023 16.8434 4.71484 16.7848 4.96875C16.7262 5.21875 16.6969 5.48438 16.6969 5.76562Z" fill="#9A9A9A"/>
</svg>
