<svg width="20" height="20" viewBox="0 0 20 20" fill="none" xmlns="http://www.w3.org/2000/svg">
<path d="M7.14286 0H1.42857C0.639619 0 0 0.639619 0 1.42857V7.14286C0 7.93181 0.639619 8.57143 1.42857 8.57143H7.14286C7.93181 8.57143 8.57143 7.93181 8.57143 7.14286V1.42857C8.57143 0.639619 7.93181 0 7.14286 0Z" fill="#4294FE"/>
<path d="M7.14286 11.4287H1.42857C0.639619 11.4287 0 12.0683 0 12.8573V18.5716C0 19.3605 0.639619 20.0001 1.42857 20.0001H7.14286C7.93181 20.0001 8.57143 19.3605 8.57143 18.5716V12.8573C8.57143 12.0683 7.93181 11.4287 7.14286 11.4287Z" fill="#4294FE"/>
<path d="M18.5716 0H12.8573C12.0683 0 11.4287 0.639619 11.4287 1.42857V7.14286C11.4287 7.93181 12.0683 8.57143 12.8573 8.57143H18.5716C19.3605 8.57143 20.0001 7.93181 20.0001 7.14286V1.42857C20.0001 0.639619 19.3605 0 18.5716 0Z" fill="#4294FE"/>
<path d="M18.5716 11.4287H12.8573C12.0683 11.4287 11.4287 12.0683 11.4287 12.8573V18.5716C11.4287 19.3605 12.0683 20.0001 12.8573 20.0001H18.5716C19.3605 20.0001 20.0001 19.3605 20.0001 18.5716V12.8573C20.0001 12.0683 19.3605 11.4287 18.5716 11.4287Z" fill="#4294FE"/>
</svg>