<svg width="72" height="72" viewBox="0 0 72 72" fill="none" xmlns="http://www.w3.org/2000/svg">
<path d="M35.8614 0.275391C33.2878 0.275391 31.2017 2.36144 31.2017 4.93509V31.0294H5.10745C2.5338 31.0294 0.447754 33.1154 0.447754 35.6891C0.447754 38.2627 2.5338 40.3488 5.10745 40.3488H31.2017V66.4431C31.2017 69.0167 33.2878 71.1028 35.8614 71.1028C38.4351 71.1028 40.5211 69.0167 40.5211 66.4431V40.3488H66.6154C69.1891 40.3488 71.2751 38.2627 71.2751 35.6891C71.2751 33.1154 69.1891 31.0294 66.6154 31.0294H40.5211V4.93509C40.5211 2.36144 38.4351 0.275391 35.8614 0.275391Z" fill="white"/>
</svg>
