<svg width="18" height="19" viewBox="0 0 18 19" fill="none" xmlns="http://www.w3.org/2000/svg">
<path d="M8.70846 0.842773C4.09313 0.842773 0.351562 4.80205 0.351562 9.68566C0.351562 14.5692 4.09313 18.5287 8.70846 18.5287C13.3238 18.5287 17.0658 14.5692 17.0658 9.68566C17.0658 4.80205 13.3238 0.842773 8.70846 0.842773ZM6.53404 7.05396C6.64965 6.93164 6.80108 6.8705 6.95251 6.8705C7.10394 6.8705 7.25526 6.93164 7.37081 7.05396L8.11165 7.83775V7.60719V4.52603C8.11165 4.18015 8.37652 3.89988 8.70339 3.89988C9.03027 3.89988 9.29514 4.18015 9.29514 4.52603V7.60713V7.88008L9.5531 7.60713L10.076 7.05391C10.1916 6.93158 10.3429 6.87044 10.4943 6.87044C10.6458 6.87044 10.7972 6.93158 10.9128 7.05391C11.055 7.20418 11.109 7.41229 11.0762 7.60713C11.0762 7.6073 11.0761 7.60742 11.0761 7.6076C11.0736 7.62169 11.0694 7.63525 11.0661 7.64904C11.061 7.67062 11.0556 7.69202 11.0481 7.71295C11.0432 7.72704 11.0376 7.74078 11.0316 7.75451C11.0224 7.77638 11.0117 7.79731 11 7.81812C10.9938 7.82915 10.988 7.84011 10.9811 7.85067C10.9608 7.88156 10.9387 7.91151 10.9127 7.93904L10.0706 8.83012L9.14621 9.80823C9.03049 9.93055 8.87917 9.99128 8.72791 9.99128C8.72646 9.99128 8.72501 9.99128 8.72356 9.99128C8.72211 9.99128 8.72055 9.99128 8.71922 9.99128C8.56795 9.99128 8.41663 9.93055 8.30091 9.80823L7.37655 8.83012L6.53443 7.93904C6.50841 7.91151 6.48629 7.88168 6.46634 7.85084C6.45927 7.83999 6.45347 7.82885 6.44712 7.81783C6.43559 7.79719 6.425 7.77638 6.41576 7.75481C6.40968 7.74072 6.40389 7.7268 6.39899 7.71248C6.39191 7.69196 6.38656 7.67121 6.38149 7.65022C6.37804 7.63572 6.37352 7.62163 6.37107 7.60695C6.33776 7.41234 6.39169 7.20424 6.53404 7.05396ZM13.2536 13.1827H13.2534C13.2534 14.0279 12.4703 14.69 11.4703 14.69H5.9472C4.9474 14.69 4.16405 14.028 4.16405 13.1827V9.11458C4.16405 8.40023 4.72443 7.8183 5.50142 7.65482C5.53508 8.00742 5.68105 8.33432 5.92118 8.58829L6.15005 8.83048H5.9472C5.54243 8.83048 5.32007 9.04395 5.32007 9.11458V13.1827C5.32007 13.2535 5.54249 13.4668 5.9472 13.4668H11.4705C11.8752 13.4668 12.0976 13.2533 12.0976 13.1827V9.11458C12.0976 9.04395 11.8752 8.83048 11.4705 8.83048H11.2966L11.5257 8.58812C11.7642 8.33586 11.9098 8.0112 11.9444 7.66095C12.7067 7.83268 13.2536 8.40908 13.2536 9.11475V13.1827Z" fill="#9A9A9A"/>
</svg>
