<svg width="133" height="29" viewBox="0 0 133 29" fill="none" xmlns="http://www.w3.org/2000/svg">
<path d="M7.91895 16.6777C7.91895 16.4316 7.88086 16.2119 7.80469 16.0186C7.73438 15.8193 7.60254 15.6406 7.40918 15.4824C7.22168 15.3184 6.95508 15.1602 6.60938 15.0078C6.26953 14.8496 5.83008 14.6855 5.29102 14.5156C4.69336 14.3281 4.13672 14.1172 3.62109 13.8828C3.10547 13.6484 2.65137 13.376 2.25879 13.0654C1.87207 12.7549 1.57031 12.3975 1.35352 11.9932C1.13672 11.583 1.02832 11.1084 1.02832 10.5693C1.02832 10.042 1.13965 9.56152 1.3623 9.12793C1.59082 8.69434 1.91309 8.32227 2.3291 8.01172C2.74512 7.69531 3.23438 7.45215 3.79688 7.28223C4.36523 7.1123 4.99219 7.02734 5.67773 7.02734C6.62695 7.02734 7.44727 7.2002 8.13867 7.5459C8.83594 7.8916 9.375 8.36035 9.75586 8.95215C10.1367 9.54395 10.3271 10.209 10.3271 10.9473H7.91895C7.91895 10.5488 7.83398 10.1973 7.66406 9.89258C7.5 9.58789 7.24805 9.34766 6.9082 9.17188C6.57422 8.99609 6.15234 8.9082 5.64258 8.9082C5.15039 8.9082 4.74023 8.98145 4.41211 9.12793C4.08984 9.27441 3.84668 9.47363 3.68262 9.72559C3.52441 9.97754 3.44531 10.2588 3.44531 10.5693C3.44531 10.8037 3.50098 11.0146 3.6123 11.2021C3.72363 11.3838 3.89062 11.5566 4.11328 11.7207C4.33594 11.8789 4.61133 12.0283 4.93945 12.1689C5.27344 12.3037 5.66016 12.4385 6.09961 12.5732C6.80273 12.7842 7.41797 13.0186 7.94531 13.2764C8.47852 13.5342 8.9209 13.8271 9.27246 14.1553C9.62988 14.4834 9.89648 14.8525 10.0723 15.2627C10.2539 15.6729 10.3447 16.1387 10.3447 16.6602C10.3447 17.2109 10.2363 17.7031 10.0195 18.1367C9.80273 18.5703 9.49219 18.9395 9.08789 19.2441C8.68359 19.5488 8.19727 19.7803 7.62891 19.9385C7.06641 20.0967 6.43652 20.1758 5.73926 20.1758C5.11816 20.1758 4.50293 20.0938 3.89355 19.9297C3.29004 19.7598 2.74219 19.5078 2.25 19.1738C1.75781 18.834 1.36523 18.4062 1.07227 17.8906C0.779297 17.3691 0.632812 16.7598 0.632812 16.0625H3.05859C3.05859 16.4668 3.12305 16.8125 3.25195 17.0996C3.38672 17.3809 3.57422 17.6123 3.81445 17.7939C4.06055 17.9697 4.34766 18.0986 4.67578 18.1807C5.00391 18.2627 5.3584 18.3037 5.73926 18.3037C6.23145 18.3037 6.63574 18.2363 6.95215 18.1016C7.27441 17.9609 7.51465 17.7676 7.67285 17.5215C7.83691 17.2754 7.91895 16.9941 7.91895 16.6777ZM13.6454 6.49121V20H11.3251V6.49121H13.6454ZM19.6044 10.4902L15.4647 15.1396L13.2235 17.416L12.4852 15.6143L14.2167 13.4346L16.8007 10.4902H19.6044ZM17.2313 20L14.287 15.5703L15.8339 14.0674L19.9208 20H17.2313ZM22.5886 10.4902V20H20.2595V10.4902H22.5886ZM20.1013 8.00293C20.1013 7.65723 20.2185 7.37012 20.4529 7.1416C20.6931 6.91309 21.0154 6.79883 21.4197 6.79883C21.824 6.79883 22.1433 6.91309 22.3777 7.1416C22.6179 7.37012 22.7381 7.65723 22.7381 8.00293C22.7381 8.34277 22.6179 8.62695 22.3777 8.85547C22.1433 9.08398 21.824 9.19824 21.4197 9.19824C21.0154 9.19824 20.6931 9.08398 20.4529 8.85547C20.2185 8.62695 20.1013 8.34277 20.1013 8.00293ZM26.4167 12.3184V23.6562H24.0876V10.4902H26.2409L26.4167 12.3184ZM32.5251 15.1484V15.333C32.5251 16.0244 32.443 16.666 32.279 17.2578C32.1208 17.8438 31.8864 18.3564 31.5758 18.7959C31.2653 19.2295 30.8786 19.5693 30.4157 19.8154C29.9586 20.0557 29.4313 20.1758 28.8336 20.1758C28.2477 20.1758 27.7379 20.0645 27.3044 19.8418C26.8708 19.6133 26.5045 19.291 26.2057 18.875C25.9069 18.459 25.6667 17.9756 25.485 17.4248C25.3092 16.8682 25.1774 16.2617 25.0895 15.6055V15.0166C25.1774 14.3193 25.3092 13.6865 25.485 13.1182C25.6667 12.5439 25.9069 12.0488 26.2057 11.6328C26.5045 11.2109 26.8678 10.8857 27.2956 10.6572C27.7292 10.4287 28.236 10.3145 28.8161 10.3145C29.4196 10.3145 29.9499 10.4287 30.4069 10.6572C30.8698 10.8857 31.2594 11.2139 31.5758 11.6416C31.8922 12.0693 32.1295 12.5791 32.2878 13.1709C32.446 13.7627 32.5251 14.4219 32.5251 15.1484ZM30.196 15.333V15.1484C30.196 14.7266 30.1579 14.3369 30.0817 13.9795C30.0055 13.6162 29.8883 13.2998 29.7301 13.0303C29.5719 12.7549 29.3669 12.541 29.1149 12.3887C28.8629 12.2363 28.5583 12.1602 28.2008 12.1602C27.8434 12.1602 27.5358 12.2188 27.278 12.3359C27.0202 12.4531 26.8092 12.6201 26.6452 12.8369C26.4811 13.0537 26.3522 13.3115 26.2585 13.6104C26.1706 13.9033 26.112 14.2285 26.0827 14.5859V16.0449C26.1354 16.4785 26.2379 16.8682 26.3903 17.2139C26.5426 17.5596 26.7653 17.835 27.0583 18.04C27.3571 18.2451 27.7438 18.3477 28.2184 18.3477C28.5758 18.3477 28.8805 18.2686 29.1325 18.1104C29.3844 17.9521 29.5895 17.7354 29.7477 17.46C29.9059 17.1787 30.0202 16.8564 30.0905 16.4932C30.1608 16.1299 30.196 15.7432 30.196 15.333ZM41.7895 10.4902V12.1602H36.3403V10.4902H41.7895ZM37.7992 8.15234H40.1283V17.2578C40.1283 17.5391 40.1664 17.7559 40.2426 17.9082C40.3188 18.0605 40.433 18.1631 40.5854 18.2158C40.7377 18.2686 40.9194 18.2949 41.1303 18.2949C41.2826 18.2949 41.4233 18.2861 41.5522 18.2686C41.6811 18.251 41.7895 18.2334 41.8774 18.2158L41.8862 19.9561C41.6928 20.0205 41.4731 20.0732 41.227 20.1143C40.9867 20.1553 40.7143 20.1758 40.4096 20.1758C39.8881 20.1758 39.4311 20.0879 39.0385 19.9121C38.6459 19.7305 38.3412 19.4404 38.1244 19.042C37.9076 18.6377 37.7992 18.1045 37.7992 17.4424V8.15234ZM44.9056 6.5V20H42.5765V6.5H44.9056ZM44.5364 14.9023H43.8509C43.8509 14.2402 43.9388 13.6309 44.1146 13.0742C44.2903 12.5176 44.5394 12.0342 44.8616 11.624C45.1839 11.208 45.5677 10.8857 46.013 10.6572C46.4642 10.4287 46.9622 10.3145 47.5071 10.3145C47.9759 10.3145 48.4007 10.3818 48.7816 10.5166C49.1683 10.6455 49.4993 10.8535 49.7747 11.1406C50.0501 11.4277 50.261 11.8027 50.4075 12.2656C50.5599 12.7227 50.636 13.2793 50.636 13.9355V20H48.2982V13.918C48.2982 13.4785 48.2337 13.1328 48.1048 12.8809C47.9759 12.623 47.7913 12.4385 47.5511 12.3271C47.3167 12.2158 47.0267 12.1602 46.681 12.1602C46.306 12.1602 45.9837 12.2334 45.7142 12.3799C45.4446 12.5205 45.222 12.7168 45.0462 12.9688C44.8763 13.2207 44.7474 13.5107 44.6595 13.8389C44.5775 14.167 44.5364 14.5215 44.5364 14.9023ZM54.4377 10.4902V20H52.1086V10.4902H54.4377ZM51.9504 8.00293C51.9504 7.65723 52.0676 7.37012 52.302 7.1416C52.5422 6.91309 52.8645 6.79883 53.2687 6.79883C53.673 6.79883 53.9924 6.91309 54.2268 7.1416C54.467 7.37012 54.5871 7.65723 54.5871 8.00293C54.5871 8.34277 54.467 8.62695 54.2268 8.85547C53.9924 9.08398 53.673 9.19824 53.2687 9.19824C52.8645 9.19824 52.5422 9.08398 52.302 8.85547C52.0676 8.62695 51.9504 8.34277 51.9504 8.00293ZM61.1749 17.3984C61.1749 17.1992 61.1222 17.0205 61.0167 16.8623C60.9112 16.7041 60.712 16.5605 60.419 16.4316C60.1319 16.2969 59.71 16.1709 59.1534 16.0537C58.6612 15.9482 58.2071 15.8164 57.7911 15.6582C57.3751 15.5 57.0177 15.3096 56.7188 15.0869C56.42 14.8584 56.1856 14.5918 56.0157 14.2871C55.8516 13.9766 55.7696 13.6191 55.7696 13.2148C55.7696 12.8223 55.8546 12.4531 56.0245 12.1074C56.1944 11.7559 56.4405 11.4482 56.7628 11.1846C57.085 10.915 57.4776 10.7041 57.9405 10.5518C58.4034 10.3936 58.9249 10.3145 59.505 10.3145C60.3136 10.3145 61.0079 10.4463 61.588 10.71C62.1739 10.9736 62.6222 11.3369 62.9327 11.7998C63.2432 12.2568 63.3985 12.7725 63.3985 13.3467H61.0782C61.0782 13.0947 61.0196 12.8662 60.9024 12.6611C60.7911 12.4561 60.6182 12.292 60.3839 12.1689C60.1495 12.04 59.8536 11.9756 59.4962 11.9756C59.1739 11.9756 58.9015 12.0283 58.6788 12.1338C58.462 12.2393 58.2979 12.377 58.1866 12.5469C58.0753 12.7168 58.0196 12.9043 58.0196 13.1094C58.0196 13.2617 58.0489 13.3994 58.1075 13.5225C58.172 13.6396 58.2745 13.748 58.4151 13.8477C58.5557 13.9473 58.7462 14.0381 58.9864 14.1201C59.2325 14.2021 59.5343 14.2812 59.8917 14.3574C60.6007 14.498 61.2188 14.6855 61.7462 14.9199C62.2794 15.1484 62.6954 15.4531 62.9942 15.834C63.2931 16.2148 63.4425 16.7012 63.4425 17.293C63.4425 17.7148 63.3516 18.1016 63.17 18.4531C62.9884 18.7988 62.7247 19.1006 62.379 19.3584C62.0333 19.6162 61.6202 19.8184 61.1397 19.9648C60.6593 20.1055 60.1173 20.1758 59.5138 20.1758C58.6407 20.1758 57.9024 20.0205 57.2989 19.71C56.6954 19.3936 56.2384 18.9951 55.9278 18.5146C55.6173 18.0283 55.462 17.5244 55.462 17.0029H57.6856C57.7032 17.3721 57.8028 17.668 57.9845 17.8906C58.1661 18.1133 58.3946 18.2744 58.67 18.374C58.9513 18.4678 59.2472 18.5146 59.5577 18.5146C59.9093 18.5146 60.2052 18.4678 60.4454 18.374C60.6856 18.2744 60.8673 18.1426 60.9903 17.9785C61.1134 17.8086 61.1749 17.6152 61.1749 17.3984ZM73.5067 17.3984C73.5067 17.1992 73.454 17.0205 73.3485 16.8623C73.243 16.7041 73.0438 16.5605 72.7508 16.4316C72.4637 16.2969 72.0419 16.1709 71.4852 16.0537C70.993 15.9482 70.5389 15.8164 70.1229 15.6582C69.7069 15.5 69.3495 15.3096 69.0506 15.0869C68.7518 14.8584 68.5174 14.5918 68.3475 14.2871C68.1835 13.9766 68.1014 13.6191 68.1014 13.2148C68.1014 12.8223 68.1864 12.4531 68.3563 12.1074C68.5262 11.7559 68.7723 11.4482 69.0946 11.1846C69.4169 10.915 69.8094 10.7041 70.2723 10.5518C70.7352 10.3936 71.2567 10.3145 71.8368 10.3145C72.6454 10.3145 73.3397 10.4463 73.9198 10.71C74.5057 10.9736 74.954 11.3369 75.2645 11.7998C75.5751 12.2568 75.7303 12.7725 75.7303 13.3467H73.41C73.41 13.0947 73.3514 12.8662 73.2342 12.6611C73.1229 12.4561 72.9501 12.292 72.7157 12.1689C72.4813 12.04 72.1854 11.9756 71.828 11.9756C71.5057 11.9756 71.2333 12.0283 71.0106 12.1338C70.7938 12.2393 70.6297 12.377 70.5184 12.5469C70.4071 12.7168 70.3514 12.9043 70.3514 13.1094C70.3514 13.2617 70.3807 13.3994 70.4393 13.5225C70.5038 13.6396 70.6063 13.748 70.7469 13.8477C70.8876 13.9473 71.078 14.0381 71.3182 14.1201C71.5643 14.2021 71.8661 14.2812 72.2235 14.3574C72.9325 14.498 73.5506 14.6855 74.078 14.9199C74.6112 15.1484 75.0272 15.4531 75.326 15.834C75.6249 16.2148 75.7743 16.7012 75.7743 17.293C75.7743 17.7148 75.6835 18.1016 75.5018 18.4531C75.3202 18.7988 75.0565 19.1006 74.7108 19.3584C74.3651 19.6162 73.952 19.8184 73.4715 19.9648C72.9911 20.1055 72.4491 20.1758 71.8456 20.1758C70.9725 20.1758 70.2342 20.0205 69.6307 19.71C69.0272 19.3936 68.5702 18.9951 68.2596 18.5146C67.9491 18.0283 67.7938 17.5244 67.7938 17.0029H70.0174C70.035 17.3721 70.1346 17.668 70.3163 17.8906C70.4979 18.1133 70.7264 18.2744 71.0018 18.374C71.2831 18.4678 71.579 18.5146 71.8895 18.5146C72.2411 18.5146 72.537 18.4678 72.7772 18.374C73.0174 18.2744 73.1991 18.1426 73.3221 17.9785C73.4452 17.8086 73.5067 17.6152 73.5067 17.3984ZM81.1052 20.1758C80.3845 20.1758 79.7371 20.0586 79.1628 19.8242C78.5886 19.5898 78.0994 19.2646 77.6951 18.8486C77.2966 18.4268 76.989 17.9375 76.7722 17.3809C76.5613 16.8184 76.4558 16.2148 76.4558 15.5703V15.2188C76.4558 14.4863 76.5613 13.8213 76.7722 13.2236C76.9831 12.6201 77.282 12.1016 77.6687 11.668C78.0554 11.2344 78.5183 10.9004 79.0574 10.666C79.5964 10.4316 80.1912 10.3145 80.8415 10.3145C81.5154 10.3145 82.1101 10.4287 82.6257 10.6572C83.1413 10.8799 83.572 11.1963 83.9177 11.6064C84.2634 12.0166 84.5242 12.5088 84.6999 13.083C84.8757 13.6514 84.9636 14.2812 84.9636 14.9727V15.9482H77.5105V14.3486H82.6785V14.1729C82.6667 13.8037 82.5964 13.4668 82.4675 13.1621C82.3386 12.8516 82.1394 12.6055 81.8699 12.4238C81.6003 12.2363 81.2517 12.1426 80.824 12.1426C80.4783 12.1426 80.1765 12.2188 79.9187 12.3711C79.6667 12.5176 79.4558 12.7285 79.2859 13.0039C79.1218 13.2734 78.9988 13.5957 78.9167 13.9707C78.8347 14.3457 78.7937 14.7617 78.7937 15.2188V15.5703C78.7937 15.9688 78.8464 16.3379 78.9519 16.6777C79.0632 17.0176 79.2244 17.3135 79.4353 17.5654C79.6521 17.8115 79.9099 18.0049 80.2087 18.1455C80.5134 18.2803 80.8591 18.3477 81.2458 18.3477C81.7322 18.3477 82.1716 18.2539 82.5642 18.0664C82.9626 17.873 83.3083 17.5889 83.6013 17.2139L84.7703 18.4268C84.571 18.7197 84.3015 19.001 83.9617 19.2705C83.6277 19.54 83.2234 19.7598 82.7488 19.9297C82.2742 20.0938 81.7263 20.1758 81.1052 20.1758ZM89.7145 18.3477C90.0426 18.3477 90.3356 18.2832 90.5934 18.1543C90.8512 18.0254 91.0563 17.8438 91.2086 17.6094C91.3668 17.375 91.4518 17.1025 91.4635 16.792H93.652C93.6403 17.4365 93.4586 18.0137 93.1071 18.5234C92.7555 19.0332 92.2867 19.4375 91.7008 19.7363C91.1207 20.0293 90.4703 20.1758 89.7496 20.1758C89.0172 20.1758 88.3785 20.0527 87.8336 19.8066C87.2887 19.5605 86.8346 19.2178 86.4713 18.7783C86.1139 18.3389 85.8444 17.8291 85.6627 17.249C85.4869 16.6689 85.399 16.0479 85.399 15.3857V15.1045C85.399 14.4424 85.4869 13.8213 85.6627 13.2412C85.8444 12.6611 86.1139 12.1514 86.4713 11.7119C86.8346 11.2725 87.2887 10.9297 87.8336 10.6836C88.3785 10.4375 89.0143 10.3145 89.7408 10.3145C90.5084 10.3145 91.1823 10.4639 91.7623 10.7627C92.3483 11.0615 92.8053 11.4834 93.1334 12.0283C93.4674 12.5732 93.6403 13.2148 93.652 13.9531H91.4635C91.4518 13.6133 91.3756 13.3086 91.235 13.0391C91.0944 12.7695 90.8951 12.5527 90.6373 12.3887C90.3795 12.2246 90.066 12.1426 89.6969 12.1426C89.3043 12.1426 88.9762 12.2246 88.7125 12.3887C88.4547 12.5527 88.2526 12.7783 88.1061 13.0654C87.9655 13.3467 87.8658 13.6631 87.8073 14.0146C87.7545 14.3604 87.7281 14.7236 87.7281 15.1045V15.3857C87.7281 15.7725 87.7545 16.1416 87.8073 16.4932C87.8658 16.8447 87.9655 17.1611 88.1061 17.4424C88.2526 17.7178 88.4547 17.9375 88.7125 18.1016C88.9762 18.2656 89.3102 18.3477 89.7145 18.3477ZM98.9917 10.4902V12.1602H93.5425V10.4902H98.9917ZM95.0015 8.15234H97.3306V17.2578C97.3306 17.5391 97.3687 17.7559 97.4448 17.9082C97.521 18.0605 97.6353 18.1631 97.7876 18.2158C97.94 18.2686 98.1216 18.2949 98.3325 18.2949C98.4849 18.2949 98.6255 18.2861 98.7544 18.2686C98.8833 18.251 98.9917 18.2334 99.0796 18.2158L99.0884 19.9561C98.895 20.0205 98.6753 20.0732 98.4292 20.1143C98.189 20.1553 97.9165 20.1758 97.6118 20.1758C97.0903 20.1758 96.6333 20.0879 96.2407 19.9121C95.8482 19.7305 95.5435 19.4404 95.3267 19.042C95.1099 18.6377 95.0015 18.1045 95.0015 17.4424V8.15234ZM102.292 10.4902V20H99.9633V10.4902H102.292ZM99.8051 8.00293C99.8051 7.65723 99.9223 7.37012 100.157 7.1416C100.397 6.91309 100.719 6.79883 101.123 6.79883C101.528 6.79883 101.847 6.91309 102.081 7.1416C102.322 7.37012 102.442 7.65723 102.442 8.00293C102.442 8.34277 102.322 8.62695 102.081 8.85547C101.847 9.08398 101.528 9.19824 101.123 9.19824C100.719 9.19824 100.397 9.08398 100.157 8.85547C99.9223 8.62695 99.8051 8.34277 99.8051 8.00293ZM103.387 15.3418V15.1572C103.387 14.46 103.487 13.8184 103.686 13.2324C103.885 12.6406 104.175 12.1279 104.556 11.6943C104.937 11.2607 105.403 10.9238 105.953 10.6836C106.504 10.4375 107.131 10.3145 107.834 10.3145C108.549 10.3145 109.182 10.4375 109.733 10.6836C110.289 10.9238 110.758 11.2607 111.139 11.6943C111.52 12.1279 111.81 12.6406 112.009 13.2324C112.208 13.8184 112.308 14.46 112.308 15.1572V15.3418C112.308 16.0332 112.208 16.6748 112.009 17.2666C111.81 17.8525 111.52 18.3652 111.139 18.8047C110.758 19.2383 110.292 19.5752 109.741 19.8154C109.191 20.0557 108.561 20.1758 107.852 20.1758C107.149 20.1758 106.519 20.0557 105.962 19.8154C105.406 19.5752 104.937 19.2383 104.556 18.8047C104.175 18.3652 103.885 17.8525 103.686 17.2666C103.487 16.6748 103.387 16.0332 103.387 15.3418ZM105.707 15.1572V15.3418C105.707 15.7578 105.748 16.1475 105.83 16.5107C105.912 16.874 106.038 17.1934 106.208 17.4688C106.378 17.7441 106.598 17.9609 106.867 18.1191C107.143 18.2715 107.471 18.3477 107.852 18.3477C108.227 18.3477 108.549 18.2715 108.819 18.1191C109.088 17.9609 109.308 17.7441 109.478 17.4688C109.654 17.1934 109.783 16.874 109.865 16.5107C109.947 16.1475 109.988 15.7578 109.988 15.3418V15.1572C109.988 14.7471 109.947 14.3633 109.865 14.0059C109.783 13.6426 109.654 13.3232 109.478 13.0479C109.308 12.7666 109.085 12.5469 108.81 12.3887C108.54 12.2246 108.215 12.1426 107.834 12.1426C107.459 12.1426 107.137 12.2246 106.867 12.3887C106.598 12.5469 106.378 12.7666 106.208 13.0479C106.038 13.3232 105.912 13.6426 105.83 14.0059C105.748 14.3633 105.707 14.7471 105.707 15.1572ZM115.565 12.5205V20H113.244V10.4902H115.424L115.565 12.5205ZM115.195 14.9023H114.51C114.516 14.2109 114.61 13.584 114.791 13.0215C114.973 12.459 115.228 11.9756 115.556 11.5713C115.89 11.167 116.285 10.8564 116.742 10.6396C117.199 10.4229 117.709 10.3145 118.272 10.3145C118.729 10.3145 119.142 10.3789 119.511 10.5078C119.88 10.6367 120.196 10.8418 120.46 11.123C120.73 11.4043 120.935 11.7734 121.075 12.2305C121.222 12.6816 121.295 13.2383 121.295 13.9004V20H118.957V13.8828C118.957 13.4492 118.893 13.1064 118.764 12.8545C118.641 12.6025 118.459 12.4238 118.219 12.3184C117.985 12.2129 117.695 12.1602 117.349 12.1602C116.991 12.1602 116.678 12.2334 116.408 12.3799C116.145 12.5205 115.922 12.7168 115.74 12.9688C115.565 13.2207 115.43 13.5107 115.336 13.8389C115.242 14.167 115.195 14.5215 115.195 14.9023Z" fill="url(#paint0_linear_2_2625)"/>
<path d="M132.556 16.6283C132.903 16.2813 132.903 15.7187 132.556 15.3717L126.901 9.71719C126.554 9.3702 125.992 9.3702 125.645 9.71719C125.298 10.0642 125.298 10.6268 125.645 10.9738L130.671 16L125.645 21.0262C125.298 21.3732 125.298 21.9358 125.645 22.2828C125.992 22.6298 126.554 22.6298 126.901 22.2828L132.556 16.6283ZM131.927 15.1115L119.482 15.1115V16.8885L131.927 16.8885V15.1115Z" fill="url(#paint1_linear_2_2625)"/>
<defs>
<linearGradient id="paint0_linear_2_2625" x1="0" y1="0" x2="123.884" y2="24.5358" gradientUnits="userSpaceOnUse">
<stop stop-color="#81D4DC"/>
<stop offset="1" stop-color="#5C8AD5"/>
</linearGradient>
<linearGradient id="paint1_linear_2_2625" x1="131.927" y1="16" x2="122.189" y2="10.3405" gradientUnits="userSpaceOnUse">
<stop stop-color="#81D4DC"/>
<stop offset="1" stop-color="#5C8AD5"/>
</linearGradient>
</defs>
</svg>
