<svg width="18" height="15" viewBox="0 0 18 15" fill="none" xmlns="http://www.w3.org/2000/svg">
<path d="M14.256 12.6H3.024C2.7864 12.6 2.592 12.8025 2.592 13.05V13.95C2.592 14.1975 2.7864 14.4 3.024 14.4H14.256C14.4936 14.4 14.688 14.1975 14.688 13.95V13.05C14.688 12.8025 14.4936 12.6 14.256 12.6ZM15.984 3.6C15.2685 3.6 14.688 4.20469 14.688 4.95C14.688 5.14969 14.7312 5.33531 14.8068 5.50688L12.852 6.7275C12.4362 6.98625 11.8989 6.84 11.6586 6.40125L9.4581 2.39062C9.747 2.14312 9.936 1.77187 9.936 1.35C9.936 0.604688 9.3555 0 8.64 0C7.9245 0 7.344 0.604688 7.344 1.35C7.344 1.77187 7.533 2.14312 7.8219 2.39062L5.6214 6.40125C5.3811 6.84 4.8411 6.98625 4.428 6.7275L2.4759 5.50688C2.5488 5.33812 2.5947 5.14969 2.5947 4.95C2.5947 4.20469 2.0142 3.6 1.2987 3.6C0.5832 3.6 0 4.20469 0 4.95C0 5.69531 0.5805 6.3 1.296 6.3C1.3662 6.3 1.4364 6.28875 1.5039 6.2775L3.456 11.7H13.824L15.7761 6.2775C15.8436 6.28875 15.9138 6.3 15.984 6.3C16.6995 6.3 17.28 5.69531 17.28 4.95C17.28 4.20469 16.6995 3.6 15.984 3.6Z" fill="#F28705"/>
</svg>
