<svg width="48" height="12" viewBox="0 0 48 12" fill="none" xmlns="http://www.w3.org/2000/svg">
<path d="M5.60508 6.80273C5.60508 6.62695 5.57773 6.4707 5.52305 6.33398C5.47227 6.19727 5.38047 6.07227 5.24766 5.95898C5.11484 5.8457 4.92734 5.73633 4.68516 5.63086C4.44687 5.52148 4.14219 5.41016 3.77109 5.29688C3.36484 5.17188 2.98984 5.0332 2.64609 4.88086C2.30625 4.72461 2.00937 4.54492 1.75547 4.3418C1.50156 4.13477 1.3043 3.89844 1.16367 3.63281C1.02305 3.36328 0.952734 3.05273 0.952734 2.70117C0.952734 2.35352 1.025 2.03711 1.16953 1.75195C1.31797 1.4668 1.52695 1.2207 1.79648 1.01367C2.06992 0.802734 2.39219 0.640625 2.76328 0.527344C3.13437 0.410156 3.54453 0.351562 3.99375 0.351562C4.62656 0.351562 5.17148 0.46875 5.62852 0.703125C6.08945 0.9375 6.44297 1.25195 6.68906 1.64648C6.93906 2.04102 7.06406 2.47656 7.06406 2.95312H5.60508C5.60508 2.67188 5.54453 2.42383 5.42344 2.20898C5.30625 1.99023 5.12656 1.81836 4.88437 1.69336C4.64609 1.56836 4.34336 1.50586 3.97617 1.50586C3.62852 1.50586 3.33945 1.55859 3.10898 1.66406C2.87852 1.76953 2.70664 1.91211 2.59336 2.0918C2.48008 2.27148 2.42344 2.47461 2.42344 2.70117C2.42344 2.86133 2.46055 3.00781 2.53477 3.14062C2.60898 3.26953 2.72227 3.39062 2.87461 3.50391C3.02695 3.61328 3.21836 3.7168 3.44883 3.81445C3.6793 3.91211 3.95078 4.00586 4.26328 4.0957C4.73594 4.23633 5.14805 4.39258 5.49961 4.56445C5.85117 4.73242 6.14414 4.92383 6.37852 5.13867C6.61289 5.35352 6.78867 5.59766 6.90586 5.87109C7.02305 6.14062 7.08164 6.44727 7.08164 6.79102C7.08164 7.15039 7.00937 7.47461 6.86484 7.76367C6.72031 8.04883 6.51328 8.29297 6.24375 8.49609C5.97812 8.69531 5.65781 8.84961 5.28281 8.95898C4.91172 9.06445 4.49766 9.11719 4.04062 9.11719C3.63047 9.11719 3.22617 9.0625 2.82773 8.95312C2.4332 8.84375 2.07383 8.67773 1.74961 8.45508C1.42539 8.22852 1.16758 7.94727 0.976171 7.61133C0.784765 7.27148 0.689062 6.875 0.689062 6.42188H2.15977C2.15977 6.69922 2.20664 6.93555 2.30039 7.13086C2.39805 7.32617 2.53281 7.48633 2.70469 7.61133C2.87656 7.73242 3.07578 7.82227 3.30234 7.88086C3.53281 7.93945 3.77891 7.96875 4.04062 7.96875C4.38437 7.96875 4.67148 7.91992 4.90195 7.82227C5.13633 7.72461 5.31211 7.58789 5.4293 7.41211C5.54648 7.23633 5.60508 7.0332 5.60508 6.80273ZM11.3812 7.50586V2.66016H12.7992V9H11.4633L11.3812 7.50586ZM11.5805 6.1875L12.0551 6.17578C12.0551 6.60156 12.0082 6.99414 11.9145 7.35352C11.8207 7.70898 11.6762 8.01953 11.4809 8.28516C11.2855 8.54688 11.0355 8.75195 10.7309 8.90039C10.4262 9.04492 10.0609 9.11719 9.63516 9.11719C9.32656 9.11719 9.04336 9.07227 8.78555 8.98242C8.52773 8.89258 8.30508 8.75391 8.11758 8.56641C7.93398 8.37891 7.79141 8.13477 7.68984 7.83398C7.58828 7.5332 7.5375 7.17383 7.5375 6.75586V2.66016H8.94961V6.76758C8.94961 6.99805 8.97695 7.19141 9.03164 7.34766C9.08633 7.5 9.16055 7.62305 9.2543 7.7168C9.34805 7.81055 9.45742 7.87695 9.58242 7.91602C9.70742 7.95508 9.84023 7.97461 9.98086 7.97461C10.3832 7.97461 10.6996 7.89648 10.9301 7.74023C11.1645 7.58008 11.3305 7.36523 11.4281 7.0957C11.5297 6.82617 11.5805 6.52344 11.5805 6.1875ZM14.9836 3.94922V9H13.5715V2.66016H14.9016L14.9836 3.94922ZM14.7551 5.5957L14.2746 5.58984C14.2746 5.15234 14.3293 4.74805 14.4387 4.37695C14.548 4.00586 14.7082 3.68359 14.9191 3.41016C15.1301 3.13281 15.3918 2.91992 15.7043 2.77148C16.0207 2.61914 16.3859 2.54297 16.8 2.54297C17.0891 2.54297 17.3527 2.58594 17.591 2.67188C17.8332 2.75391 18.0422 2.88477 18.218 3.06445C18.3977 3.24414 18.5344 3.47461 18.6281 3.75586C18.7258 4.03711 18.7746 4.37695 18.7746 4.77539V9H17.3625V4.89844C17.3625 4.58984 17.3156 4.34766 17.2219 4.17188C17.132 3.99609 17.0012 3.87109 16.8293 3.79688C16.6613 3.71875 16.4602 3.67969 16.2258 3.67969C15.9602 3.67969 15.7336 3.73047 15.5461 3.83203C15.3625 3.93359 15.2121 4.07227 15.0949 4.24805C14.9777 4.42383 14.8918 4.62695 14.8371 4.85742C14.7824 5.08789 14.7551 5.33398 14.7551 5.5957ZM18.6867 5.2207L18.0246 5.36719C18.0246 4.98438 18.0773 4.62305 18.1828 4.2832C18.2922 3.93945 18.4504 3.63867 18.6574 3.38086C18.8684 3.11914 19.1281 2.91406 19.4367 2.76562C19.7453 2.61719 20.0988 2.54297 20.4973 2.54297C20.8215 2.54297 21.1105 2.58789 21.3645 2.67773C21.6223 2.76367 21.841 2.90039 22.0207 3.08789C22.2004 3.27539 22.3371 3.51953 22.4309 3.82031C22.5246 4.11719 22.5715 4.47656 22.5715 4.89844V9H21.1535V4.89258C21.1535 4.57227 21.1066 4.32422 21.0129 4.14844C20.923 3.97266 20.7941 3.85156 20.6262 3.78516C20.4582 3.71484 20.257 3.67969 20.0227 3.67969C19.8039 3.67969 19.6105 3.7207 19.4426 3.80273C19.2785 3.88086 19.1398 3.99219 19.0266 4.13672C18.9133 4.27734 18.8273 4.43945 18.7687 4.62305C18.7141 4.80664 18.6867 5.00586 18.6867 5.2207ZM24.7617 3.94922V9H23.3496V2.66016H24.6797L24.7617 3.94922ZM24.5332 5.5957L24.0527 5.58984C24.0527 5.15234 24.1074 4.74805 24.2168 4.37695C24.3262 4.00586 24.4863 3.68359 24.6973 3.41016C24.9082 3.13281 25.1699 2.91992 25.4824 2.77148C25.7988 2.61914 26.1641 2.54297 26.5781 2.54297C26.8672 2.54297 27.1309 2.58594 27.3691 2.67188C27.6113 2.75391 27.8203 2.88477 27.9961 3.06445C28.1758 3.24414 28.3125 3.47461 28.4062 3.75586C28.5039 4.03711 28.5527 4.37695 28.5527 4.77539V9H27.1406V4.89844C27.1406 4.58984 27.0938 4.34766 27 4.17188C26.9102 3.99609 26.7793 3.87109 26.6074 3.79688C26.4395 3.71875 26.2383 3.67969 26.0039 3.67969C25.7383 3.67969 25.5117 3.73047 25.3242 3.83203C25.1406 3.93359 24.9902 4.07227 24.873 4.24805C24.7559 4.42383 24.6699 4.62695 24.6152 4.85742C24.5605 5.08789 24.5332 5.33398 24.5332 5.5957ZM28.4648 5.2207L27.8027 5.36719C27.8027 4.98438 27.8555 4.62305 27.9609 4.2832C28.0703 3.93945 28.2285 3.63867 28.4355 3.38086C28.6465 3.11914 28.9062 2.91406 29.2148 2.76562C29.5234 2.61719 29.877 2.54297 30.2754 2.54297C30.5996 2.54297 30.8887 2.58789 31.1426 2.67773C31.4004 2.76367 31.6191 2.90039 31.7988 3.08789C31.9785 3.27539 32.1152 3.51953 32.209 3.82031C32.3027 4.11719 32.3496 4.47656 32.3496 4.89844V9H30.9316V4.89258C30.9316 4.57227 30.8848 4.32422 30.791 4.14844C30.7012 3.97266 30.5723 3.85156 30.4043 3.78516C30.2363 3.71484 30.0352 3.67969 29.8008 3.67969C29.582 3.67969 29.3887 3.7207 29.2207 3.80273C29.0566 3.88086 28.918 3.99219 28.8047 4.13672C28.6914 4.27734 28.6055 4.43945 28.5469 4.62305C28.4922 4.80664 28.4648 5.00586 28.4648 5.2207ZM36.702 7.72852V4.70508C36.702 4.47852 36.6609 4.2832 36.5789 4.11914C36.4969 3.95508 36.3719 3.82812 36.2039 3.73828C36.0398 3.64844 35.8328 3.60352 35.5828 3.60352C35.3523 3.60352 35.1531 3.64258 34.9852 3.7207C34.8172 3.79883 34.6863 3.9043 34.5926 4.03711C34.4988 4.16992 34.452 4.32031 34.452 4.48828H33.0457C33.0457 4.23828 33.1062 3.99609 33.2273 3.76172C33.3484 3.52734 33.5242 3.31836 33.7547 3.13477C33.9852 2.95117 34.2605 2.80664 34.5809 2.70117C34.9012 2.5957 35.2605 2.54297 35.659 2.54297C36.1355 2.54297 36.5574 2.62305 36.9246 2.7832C37.2957 2.94336 37.5867 3.18555 37.7977 3.50977C38.0125 3.83008 38.1199 4.23242 38.1199 4.7168V7.53516C38.1199 7.82422 38.1395 8.08398 38.1785 8.31445C38.2215 8.54102 38.282 8.73828 38.3602 8.90625V9H36.9129C36.8465 8.84766 36.7937 8.6543 36.7547 8.41992C36.7195 8.18164 36.702 7.95117 36.702 7.72852ZM36.907 5.14453L36.9187 6.01758H35.9051C35.6434 6.01758 35.4129 6.04297 35.2137 6.09375C35.0145 6.14062 34.8484 6.21094 34.7156 6.30469C34.5828 6.39844 34.4832 6.51172 34.4168 6.64453C34.3504 6.77734 34.3172 6.92773 34.3172 7.0957C34.3172 7.26367 34.3562 7.41797 34.4344 7.55859C34.5125 7.69531 34.6258 7.80273 34.7742 7.88086C34.9266 7.95898 35.1102 7.99805 35.325 7.99805C35.6141 7.99805 35.866 7.93945 36.0809 7.82227C36.2996 7.70117 36.4715 7.55469 36.5965 7.38281C36.7215 7.20703 36.7879 7.04102 36.7957 6.88477L37.2527 7.51172C37.2059 7.67188 37.1258 7.84375 37.0125 8.02734C36.8992 8.21094 36.7508 8.38672 36.5672 8.55469C36.3875 8.71875 36.1707 8.85352 35.9168 8.95898C35.6668 9.06445 35.3777 9.11719 35.0496 9.11719C34.6355 9.11719 34.2664 9.03516 33.9422 8.87109C33.618 8.70312 33.3641 8.47852 33.1805 8.19727C32.9969 7.91211 32.9051 7.58984 32.9051 7.23047C32.9051 6.89453 32.9676 6.59766 33.0926 6.33984C33.2215 6.07812 33.409 5.85938 33.6551 5.68359C33.9051 5.50781 34.2098 5.375 34.5691 5.28516C34.9285 5.19141 35.3387 5.14453 35.7996 5.14453H36.907ZM40.3395 3.86719V9H38.9273V2.66016H40.275L40.3395 3.86719ZM42.2789 2.61914L42.2672 3.93164C42.1813 3.91602 42.0875 3.9043 41.9859 3.89648C41.8883 3.88867 41.7906 3.88477 41.693 3.88477C41.4508 3.88477 41.2379 3.91992 41.0543 3.99023C40.8707 4.05664 40.7164 4.1543 40.5914 4.2832C40.4703 4.4082 40.3766 4.56055 40.3102 4.74023C40.2438 4.91992 40.2047 5.12109 40.193 5.34375L39.8707 5.36719C39.8707 4.96875 39.9098 4.59961 39.9879 4.25977C40.066 3.91992 40.1832 3.62109 40.3395 3.36328C40.4996 3.10547 40.6988 2.9043 40.9371 2.75977C41.1793 2.61523 41.4586 2.54297 41.775 2.54297C41.8609 2.54297 41.9527 2.55078 42.0504 2.56641C42.152 2.58203 42.2281 2.59961 42.2789 2.61914ZM44.434 8.30859L46.1566 2.66016H47.6684L45.1254 9.9668C45.0668 10.123 44.9906 10.293 44.8969 10.4766C44.8031 10.6602 44.6801 10.834 44.5277 10.998C44.3793 11.166 44.1937 11.3008 43.9711 11.4023C43.7484 11.5078 43.4789 11.5605 43.1625 11.5605C43.0375 11.5605 42.9164 11.5488 42.7992 11.5254C42.6859 11.5059 42.5785 11.4844 42.477 11.4609L42.4711 10.3828C42.5102 10.3867 42.557 10.3906 42.6117 10.3945C42.6703 10.3984 42.7172 10.4004 42.7523 10.4004C42.9867 10.4004 43.182 10.3711 43.3383 10.3125C43.4945 10.2578 43.6215 10.168 43.7191 10.043C43.8207 9.91797 43.9066 9.75 43.977 9.53906L44.434 8.30859ZM43.4613 2.66016L44.9672 7.40625L45.2191 8.89453L44.2406 9.14648L41.9379 2.66016H43.4613Z" fill="#9A9A9A"/>
</svg>
