<svg width="20" height="20" viewBox="0 0 20 20" fill="none" xmlns="http://www.w3.org/2000/svg">
    <path
        d="M10 0C4.486 0 0 4.486 0 10C0 15.514 4.486 20 10 20C15.514 20 20 15.514 20 10C20 4.486 15.514 0 10 0ZM10 18C5.589 18 2 14.411 2 10C2 8.832 2.258 7.725 2.709 6.724C2.863 6.814 3.017 6.906 3.165 7C3.561 7.25 3.956 7.5 4.451 7.688C4.945 7.875 5.539 8 6.33 8C7.122 8 7.716 7.875 8.211 7.687C8.706 7.499 9.102 7.25 9.498 7C9.894 6.75 10.29 6.5 10.785 6.312C11.279 6.125 11.873 6 12.665 6C13.457 6 14.051 6.125 14.545 6.313C15.04 6.5 15.436 6.75 15.832 7C16.228 7.25 16.624 7.5 17.119 7.688C17.297 7.755 17.493 7.81 17.7 7.859C17.891 8.541 18 9.257 18 10C18 14.411 14.411 18 10 18Z"
        fill="#9A9A9A" />
    <path
        d="M6.5 12C7.32843 12 8 11.3284 8 10.5C8 9.67157 7.32843 9 6.5 9C5.67157 9 5 9.67157 5 10.5C5 11.3284 5.67157 12 6.5 12Z"
        fill="#9A9A9A" />
    <path
        d="M13.5 12C14.3284 12 15 11.3284 15 10.5C15 9.67157 14.3284 9 13.5 9C12.6716 9 12 9.67157 12 10.5C12 11.3284 12.6716 12 13.5 12Z"
        fill="#9A9A9A" />
</svg>