<svg width="25" height="16" viewBox="0 0 25 16" fill="none" xmlns="http://www.w3.org/2000/svg">
    <path
        d="M12.3765 8.28926C11.7525 8.34127 11.1804 8.08126 10.5564 7.87325C7.28029 6.7812 3.95216 5.68916 0.676027 4.59712C0.468019 4.49311 0.312012 4.44111 0.156006 4.2851C-0.0520021 4.1291 -0.0520021 3.92109 0.156006 3.76508C0.312012 3.66108 0.520021 3.50507 0.728029 3.45307C4.26417 2.41303 7.74831 1.37299 11.2845 0.280945C12.0645 0.0209349 12.8965 0.0209349 13.7285 0.280945C17.2127 1.32099 20.6968 2.36103 24.181 3.40107C24.389 3.50507 24.597 3.55708 24.805 3.71308C25.065 3.86909 25.065 4.1291 24.805 4.2851C24.649 4.38911 24.493 4.49311 24.285 4.54511C20.8008 5.68916 17.3167 6.88521 13.7806 8.02925C13.3125 8.23726 12.8965 8.28926 12.3765 8.28926Z"
        fill="#4294FE" />
    <path
        d="M5.46045 8.44533C4.94043 8.34133 4.83643 8.65334 4.83643 8.91335C4.83643 10.2654 4.83643 11.5655 4.83643 12.8655C4.83643 13.3335 4.99243 13.5935 5.30444 13.9056C5.40845 14.0096 5.56445 14.1136 5.66846 14.2176C6.50049 14.7896 7.48853 15.1536 8.47657 15.4136C10.4526 15.9336 12.4287 16.0376 14.4568 15.7776C15.7569 15.6216 17.0569 15.2576 18.253 14.7376C18.773 14.4776 19.293 14.2176 19.657 13.8015C19.917 13.5415 20.021 13.2815 19.969 12.9175C20.021 11.6695 20.021 10.3694 20.021 9.06936C20.021 8.34133 19.501 8.44533 19.293 8.49733C17.4729 9.12136 15.5489 9.69338 13.7288 10.3174C12.7927 10.6294 11.9087 10.6294 11.0247 10.3174L5.46045 8.44533Z"
        fill="#4294FE" />
    <path
        d="M22.8291 7.24925C22.6731 7.30125 22.6211 7.35325 22.6211 7.56126C22.6211 8.75731 22.6211 9.90135 22.6211 11.0974C22.6211 11.2014 22.5691 11.3574 22.5171 11.4614C22.2571 12.0854 21.9971 12.7095 21.7891 13.3335C21.5811 13.9055 21.6851 14.5295 22.1011 14.9456C22.2051 15.1016 22.4131 15.2576 22.5691 15.3616C22.7251 15.5176 22.9851 15.5696 23.1931 15.6216C23.5571 15.6736 23.8691 15.4656 24.1292 15.2576C24.2332 15.1536 24.3892 15.0496 24.4932 14.8936C24.8052 14.4775 24.8572 13.9575 24.7532 13.4895C24.5972 12.7615 24.2852 12.1374 23.9731 11.5134C23.8691 11.4094 23.8691 11.2014 23.8691 11.0974C23.8691 9.79735 23.8691 8.5493 23.8691 7.24925C23.8691 6.98924 23.6611 7.04124 23.5571 7.09324L22.8291 7.24925Z"
        fill="#4294FE" />
</svg>