<svg width="25" height="16" viewBox="0 0 25 16" fill="none" xmlns="http://www.w3.org/2000/svg">
    <path
        d="M12.3765 8.28914C11.7525 8.34114 11.1804 8.08113 10.5564 7.87313C7.28029 6.78108 3.95216 5.68904 0.676027 4.597C0.468019 4.49299 0.312012 4.44099 0.156006 4.28498C-0.0520021 4.12898 -0.0520021 3.92097 0.156006 3.76496C0.312012 3.66096 0.520021 3.50495 0.728029 3.45295C4.26417 2.41291 7.74831 1.37287 11.2845 0.280823C12.0645 0.0208128 12.8965 0.0208128 13.7285 0.280823C17.2127 1.32086 20.6968 2.36091 24.181 3.40095C24.389 3.50495 24.597 3.55695 24.805 3.71296C25.065 3.86897 25.065 4.12898 24.805 4.28498C24.649 4.38899 24.493 4.49299 24.285 4.54499C20.8008 5.68904 17.3167 6.88509 13.7806 8.02913C13.3125 8.23714 12.8965 8.28914 12.3765 8.28914Z"
        fill="#9A9A9A" />
    <path
        d="M5.46045 8.44515C4.94043 8.34115 4.83643 8.65316 4.83643 8.91317C4.83643 10.2652 4.83643 11.5653 4.83643 12.8653C4.83643 13.3333 4.99243 13.5934 5.30444 13.9054C5.40845 14.0094 5.56445 14.1134 5.66846 14.2174C6.50049 14.7894 7.48853 15.1534 8.47657 15.4134C10.4526 15.9334 12.4287 16.0375 14.4568 15.7774C15.7569 15.6214 17.0569 15.2574 18.253 14.7374C18.773 14.4774 19.293 14.2174 19.657 13.8014C19.917 13.5414 20.021 13.2813 19.969 12.9173C20.021 11.6693 20.021 10.3692 20.021 9.06917C20.021 8.34115 19.501 8.44515 19.293 8.49715C17.4729 9.12118 15.5489 9.6932 13.7288 10.3172C12.7927 10.6292 11.9087 10.6292 11.0247 10.3172L5.46045 8.44515Z"
        fill="#9A9A9A" />
    <path
        d="M22.8291 7.24906C22.6731 7.30107 22.6211 7.35307 22.6211 7.56108C22.6211 8.75712 22.6211 9.90117 22.6211 11.0972C22.6211 11.2012 22.5691 11.3572 22.5171 11.4612C22.2571 12.0853 21.9971 12.7093 21.7891 13.3333C21.5811 13.9053 21.6851 14.5294 22.1011 14.9454C22.2051 15.1014 22.4131 15.2574 22.5691 15.3614C22.7251 15.5174 22.9851 15.5694 23.1931 15.6214C23.5571 15.6734 23.8691 15.4654 24.1292 15.2574C24.2332 15.1534 24.3892 15.0494 24.4932 14.8934C24.8052 14.4774 24.8572 13.9573 24.7532 13.4893C24.5972 12.7613 24.2852 12.1373 23.9731 11.5132C23.8691 11.4092 23.8691 11.2012 23.8691 11.0972C23.8691 9.79716 23.8691 8.54912 23.8691 7.24906C23.8691 6.98905 23.6611 7.04106 23.5571 7.09306L22.8291 7.24906Z"
        fill="#9A9A9A" />
</svg>