<svg width="20" height="16" viewBox="0 0 20 16" fill="none" xmlns="http://www.w3.org/2000/svg">
    <path
        d="M19.13 2.01068H14.3474V0.869566C14.3474 0.391393 13.9562 0 13.4778 0H6.52152C6.04335 0 5.65196 0.391157 5.65196 0.869566V2.01068H0.869566C0.391393 2.01068 0 2.40183 0 2.88024V5.76065H3.66849V4.61954H5.08159V5.76065H14.918V4.61954H16.3311V5.76065H19.9996V2.88024C19.9991 2.40228 19.6078 2.01068 19.1296 2.01068H19.13Z"
        fill="#4294FE" />
    <path
        d="M16.3307 7.74374H14.9176V6.5752H5.08121V7.74374H3.66811V6.5752H0V14.8901C0 15.3682 0.391157 15.7596 0.869566 15.7596H19.13C19.6082 15.7596 19.9996 15.3685 19.9996 14.8901V6.5752H16.3311L16.3307 7.74374Z"
        fill="#4294FE" />
</svg>