<svg width="20" height="16" viewBox="0 0 20 16" fill="none" xmlns="http://www.w3.org/2000/svg">
    <path
        d="M19.13 2.13092H14.3474V0.989805C14.3474 0.511632 13.9562 0.120239 13.4778 0.120239H6.52152C6.04335 0.120239 5.65196 0.511396 5.65196 0.989805V2.13092H0.869566C0.391393 2.13092 0 2.52207 0 3.00048V5.88089H3.66849V4.73978H5.08159V5.88089H14.918V4.73978H16.3311V5.88089H19.9996V3.00048C19.9991 2.52252 19.6078 2.13092 19.1296 2.13092H19.13Z"
        fill="#9A9A9A" />
    <path
        d="M16.3312 7.86416H14.9181V6.69562H5.0817V7.86416H3.6686V6.69562H0.000488281V15.0105C0.000488281 15.4887 0.391645 15.88 0.870054 15.88H19.1305C19.6087 15.88 20 15.4889 20 15.0105V6.69562H16.3316L16.3312 7.86416Z"
        fill="#9A9A9A" />
</svg>