<svg width="22" height="18" viewBox="0 0 22 18" fill="none" xmlns="http://www.w3.org/2000/svg">
    <path d="M18.1431 4.71387H13.1431V6.14244H18.1431V4.71387Z" fill="#4294FE" stroke="#4294FE"
        stroke-width="0.5" />
    <path d="M18.1431 8.28516H13.1431V9.71373H18.1431V8.28516Z" fill="#4294FE" stroke="#4294FE"
        stroke-width="0.5" />
    <path d="M18.1431 11.8564H13.1431V13.285H18.1431V11.8564Z" fill="#4294FE" stroke="#4294FE"
        stroke-width="0.5" />
    <path d="M8.85693 4.71387H3.85693V6.14244H8.85693V4.71387Z" fill="#4294FE" stroke="#4294FE"
        stroke-width="0.5" />
    <path d="M8.85693 8.28516H3.85693V9.71373H8.85693V8.28516Z" fill="#4294FE" stroke="#4294FE"
        stroke-width="0.5" />
    <path d="M8.85693 11.8564H3.85693V13.285H8.85693V11.8564Z" fill="#4294FE" stroke="#4294FE"
        stroke-width="0.5" />
    <path
        d="M19.5714 1.14258H2.42857C2.04981 1.14296 1.68666 1.29359 1.41884 1.56141C1.15101 1.82924 1.00038 2.19238 1 2.57115V15.4283C1.00038 15.8071 1.15101 16.1702 1.41884 16.438C1.68666 16.7059 2.04981 16.8565 2.42857 16.8569H19.5714C19.9502 16.8565 20.3133 16.7059 20.5812 16.438C20.849 16.1702 20.9996 15.8071 21 15.4283V2.57115C20.9996 2.19238 20.849 1.82924 20.5812 1.56141C20.3133 1.29359 19.9502 1.14296 19.5714 1.14258ZM2.42857 2.57115H10.2857V15.4283H2.42857V2.57115ZM11.7143 15.4283V2.57115H19.5714V15.4283H11.7143Z"
        fill="#4294FE" stroke="#4294FE" stroke-width="0.5" />
</svg>