<svg width="22" height="18" viewBox="0 0 22 18" fill="none" xmlns="http://www.w3.org/2000/svg">
<path d="M18.1431 4.71442H13.1431V6.14299H18.1431V4.71442Z" fill="#9A9A9A" stroke="#9A9A9A" stroke-width="0.5"/>
<path d="M18.1431 8.28589H13.1431V9.71446H18.1431V8.28589Z" fill="#9A9A9A" stroke="#9A9A9A" stroke-width="0.5"/>
<path d="M18.1431 11.8573H13.1431V13.2859H18.1431V11.8573Z" fill="#9A9A9A" stroke="#9A9A9A" stroke-width="0.5"/>
<path d="M8.85693 4.71442H3.85693V6.14299H8.85693V4.71442Z" fill="#9A9A9A" stroke="#9A9A9A" stroke-width="0.5"/>
<path d="M8.85693 8.28589H3.85693V9.71446H8.85693V8.28589Z" fill="#9A9A9A" stroke="#9A9A9A" stroke-width="0.5"/>
<path d="M8.85693 11.8573H3.85693V13.2859H8.85693V11.8573Z" fill="#9A9A9A" stroke="#9A9A9A" stroke-width="0.5"/>
<path d="M19.5714 1.14301H2.42857C2.04981 1.14338 1.68666 1.29401 1.41884 1.56184C1.15101 1.82967 1.00038 2.19281 1 2.57158V15.4287C1.00038 15.8075 1.15101 16.1706 1.41884 16.4385C1.68666 16.7063 2.04981 16.8569 2.42857 16.8573H19.5714C19.9502 16.8569 20.3133 16.7063 20.5812 16.4385C20.849 16.1706 20.9996 15.8075 21 15.4287V2.57158C20.9996 2.19281 20.849 1.82967 20.5812 1.56184C20.3133 1.29401 19.9502 1.14338 19.5714 1.14301ZM2.42857 2.57158H10.2857V15.4287H2.42857V2.57158ZM11.7143 15.4287V2.57158H19.5714V15.4287H11.7143Z" fill="#9A9A9A" stroke="#9A9A9A" stroke-width="0.5"/>
</svg>
