<svg width="20" height="20" viewBox="0 0 20 20" fill="none" xmlns="http://www.w3.org/2000/svg">
    <path
        d="M7.14286 0H2.14286C0.964286 0 0 0.964286 0 2.14286V7.14286C0 8.32143 0.964286 9.28571 2.14286 9.28571H7.14286C8.32143 9.28571 9.28571 8.32143 9.28571 7.14286V2.14286C9.28571 0.964286 8.32143 0 7.14286 0Z"
        fill="#4294FE" />
    <path
        d="M7.14286 10.7139H2.14286C0.964286 10.7139 0 11.6782 0 12.8567V17.8567C0 19.0353 0.964286 19.9996 2.14286 19.9996H7.14286C8.32143 19.9996 9.28571 19.0353 9.28571 17.8567V12.8567C9.28571 11.6782 8.32143 10.7139 7.14286 10.7139Z"
        fill="#4294FE" />
    <path
        d="M17.8567 0H12.8567C11.6782 0 10.7139 0.964286 10.7139 2.14286V7.14286C10.7139 8.32143 11.6782 9.28571 12.8567 9.28571H17.8567C19.0353 9.28571 19.9996 8.32143 19.9996 7.14286V2.14286C19.9996 0.964286 19.0353 0 17.8567 0Z"
        fill="#4294FE" />
    <path
        d="M16.4282 10.7139H14.2853V14.2853H10.7139V16.4282H14.2853V19.9996H16.4282V16.4282H19.9996V14.2853H16.4282V10.7139Z"
        fill="#4294FE" />
</svg>