<svg width="20" height="20" viewBox="0 0 20 20" fill="none" xmlns="http://www.w3.org/2000/svg">
    <path
        d="M7.14286 0H2.14286C0.964286 0 0 0.964286 0 2.14286V7.14286C0 8.32143 0.964286 9.28571 2.14286 9.28571H7.14286C8.32143 9.28571 9.28571 8.32143 9.28571 7.14286V2.14286C9.28571 0.964286 8.32143 0 7.14286 0Z"
        fill="#9A9A9A" />
    <path
        d="M7.14286 10.7143H2.14286C0.964286 10.7143 0 11.6786 0 12.8572V17.8572C0 19.0357 0.964286 20 2.14286 20H7.14286C8.32143 20 9.28571 19.0357 9.28571 17.8572V12.8572C9.28571 11.6786 8.32143 10.7143 7.14286 10.7143Z"
        fill="#9A9A9A" />
    <path
        d="M17.8572 0H12.8572C11.6786 0 10.7144 0.964286 10.7144 2.14286V7.14286C10.7144 8.32143 11.6786 9.28571 12.8572 9.28571H17.8572C19.0358 9.28571 20.0001 8.32143 20.0001 7.14286V2.14286C20.0001 0.964286 19.0358 0 17.8572 0Z"
        fill="#9A9A9A" />
    <path
        d="M16.4286 10.7143H14.2858V14.2857H10.7144V16.4286H14.2858V20H16.4286V16.4286H20.0001V14.2857H16.4286V10.7143Z"
        fill="#9A9A9A" />
</svg>