<svg width="17" height="20" viewBox="0 0 17 20" fill="none" xmlns="http://www.w3.org/2000/svg">
    <path
        d="M14.7022 0.00323153L1.5861 0C1.16538 0.000142358 0.761946 0.165784 0.464508 0.460498C0.16707 0.755213 -1.33105e-05 1.15487 7.95302e-10 1.57158L0.00481081 18.4261C0.0049271 18.6326 0.0461189 18.837 0.126033 19.0277C0.205946 19.2184 0.323015 19.3916 0.47055 19.5375C0.618084 19.6834 0.793191 19.799 0.985865 19.8778C1.17854 19.9566 1.385 19.997 1.59346 19.9968L14.7096 20C14.9181 20 15.1246 19.9593 15.3173 19.8802C15.5099 19.8011 15.6849 19.6851 15.8323 19.539C15.9797 19.3928 16.0965 19.2193 16.1761 19.0284C16.2557 18.8375 16.2966 18.6329 16.2963 18.4263L16.2915 1.57178C16.2907 1.15505 16.1228 0.755694 15.8248 0.461544C15.5267 0.167395 15.1229 0.00253857 14.7022 0.00323153ZM8.94002 10.2162C8.94001 10.4008 8.87438 10.5795 8.75466 10.7209C8.63494 10.8624 8.46877 10.9576 8.28527 10.9898C8.23945 10.9978 8.19302 11.0019 8.14649 11.0021L3.96743 11.0009C3.76646 10.9876 3.57812 10.8991 3.44061 10.7533C3.3031 10.6076 3.22671 10.4155 3.22693 10.216C3.22716 10.0165 3.30398 9.82455 3.44183 9.6791C3.57967 9.53364 3.7682 9.44556 3.9692 9.43272L8.14562 9.4304C8.24989 9.43025 8.35317 9.45048 8.44955 9.48991C8.54593 9.52933 8.63351 9.58719 8.7073 9.66018C8.78108 9.73316 8.83961 9.81984 8.87955 9.91525C8.91948 10.0107 8.94003 10.1129 8.94002 10.2162ZM13.1136 7.07569C13.1136 7.2601 13.0481 7.43863 12.9286 7.58003C12.809 7.72143 12.6431 7.81668 12.4598 7.84912C12.4137 7.85728 12.3668 7.86112 12.3199 7.8606L3.96195 7.85916C3.75148 7.85902 3.54969 7.77607 3.40097 7.62856C3.25225 7.48105 3.16878 7.28107 3.16892 7.07261C3.16906 6.86414 3.25281 6.66427 3.40174 6.51697C3.55066 6.36966 3.75257 6.28699 3.96303 6.28713L12.3212 6.28954C12.4255 6.28927 12.5289 6.30939 12.6253 6.34875C12.7218 6.38811 12.8095 6.44593 12.8834 6.51891C12.9573 6.59189 13.0159 6.67859 13.0559 6.77404C13.0959 6.86949 13.1165 6.97182 13.1165 7.07517L13.1136 7.07569ZM13.1128 3.93214C13.1128 4.11672 13.0472 4.29541 12.9275 4.43686C12.8078 4.57831 12.6416 4.67351 12.4581 4.70575C12.4123 4.71369 12.3658 4.71779 12.3193 4.71802L3.96119 4.71561C3.85514 4.7186 3.74957 4.70049 3.65071 4.66235C3.55186 4.62421 3.46173 4.56682 3.38566 4.49357C3.3096 4.42033 3.24913 4.33271 3.20785 4.23592C3.16657 4.13912 3.14531 4.03511 3.14533 3.93003C3.14535 3.82495 3.16665 3.72094 3.20796 3.62416C3.24928 3.52738 3.30977 3.43978 3.38586 3.36656C3.46196 3.29335 3.5521 3.23599 3.65097 3.19788C3.74984 3.15978 3.85542 3.1417 3.96146 3.14472L12.3194 3.14616C12.4238 3.14576 12.5273 3.16579 12.6239 3.20508C12.7204 3.24437 12.8082 3.30216 12.8822 3.37513C12.9562 3.44811 13.0149 3.53483 13.055 3.63032C13.0951 3.72582 13.1157 3.82821 13.1158 3.93163L13.1128 3.93214Z"
        fill="#9A9A9A" />
    <path
        d="M15.1404 10.1454C15.1404 14.0114 12.0064 17.1454 8.14044 17.1454C4.27444 17.1454 1.14044 14.0114 1.14044 10.1454C1.14044 6.27945 4.27444 3.14544 8.14044 3.14544C12.0064 3.14544 15.1404 6.27945 15.1404 10.1454Z"
        fill="white" />
    <path fill-rule="evenodd" clip-rule="evenodd"
        d="M7.94767 4.74222C7.76443 4.77512 7.60276 4.81968 7.45136 4.87895C6.6137 5.20698 5.97936 5.94142 5.76162 6.83531C5.68172 7.16337 5.67434 7.2839 5.674 8.26691C5.67375 8.99192 5.6686 9.20669 5.65112 9.22167C5.63872 9.2323 5.54056 9.27387 5.43299 9.31402C5.2264 9.39116 5.12091 9.46593 5.0641 9.57546C5.03521 9.63114 5.03299 9.77659 5.03299 11.6062V13.577L5.07343 13.6568C5.14393 13.7959 5.20871 13.8335 5.66023 13.9968C6.20723 14.1946 6.74777 14.3225 7.44233 14.4184C7.79459 14.4671 8.96703 14.4671 9.31928 14.4184C10.0138 14.3225 10.5544 14.1946 11.1014 13.9968C11.5529 13.8335 11.6177 13.7959 11.6882 13.6568L11.7286 13.577V11.6062C11.7286 9.77659 11.7264 9.63114 11.6975 9.57546C11.6407 9.46593 11.5352 9.39116 11.3286 9.31402C11.2211 9.27387 11.1229 9.2323 11.1105 9.22167C11.093 9.20669 11.0879 8.99192 11.0876 8.26691C11.0873 7.2839 11.0799 7.16337 11 6.83531C10.7823 5.94142 10.1479 5.20698 9.31026 4.87895C9.00962 4.76124 8.73111 4.71331 8.36276 4.71592C8.20891 4.71703 8.02211 4.72885 7.94767 4.74222ZM8.66054 5.73094C8.94061 5.78419 9.122 5.86019 9.3496 6.01958C9.78677 6.32575 10.0722 6.81789 10.13 7.36519C10.1407 7.46624 10.1495 7.86645 10.1495 8.25457V8.9602L10.1089 8.95064C9.14768 8.72433 7.85396 8.70882 6.83774 8.9114C6.75833 8.92722 6.6751 8.94468 6.65276 8.95018L6.61215 8.9602V8.25457C6.61215 7.86645 6.62088 7.46624 6.63157 7.36519C6.74267 6.3139 7.69455 5.54721 8.66054 5.73094ZM8.58348 10.1487C8.90709 10.2523 9.11829 10.5691 9.09892 10.9218C9.08766 11.1274 9.01621 11.2787 8.85844 11.4312L8.74176 11.544L8.74165 12.1987C8.7416 12.6015 8.7342 12.8814 8.72241 12.9262C8.69251 13.0398 8.59193 13.1436 8.47783 13.1786C8.38985 13.2056 8.37176 13.2056 8.28378 13.1786C8.16969 13.1436 8.06911 13.0398 8.0392 12.9262C8.02742 12.8814 8.02002 12.6015 8.01997 12.1987L8.01985 11.544L7.90318 11.4312C7.82204 11.3528 7.76887 11.2807 7.72867 11.1945C7.54237 10.7953 7.74297 10.3071 8.15521 10.1566C8.26662 10.1159 8.46937 10.1122 8.58348 10.1487Z"
        fill="#4294FE" />
</svg>