<svg width="17" height="20" viewBox="0 0 17 20" fill="none" xmlns="http://www.w3.org/2000/svg">
    <path
        d="M14.7022 0.00323153L1.5861 0C1.16538 0.000142358 0.761946 0.165784 0.464508 0.460498C0.16707 0.755213 -1.33105e-05 1.15487 7.95302e-10 1.57158L0.00481071 18.4261C0.004927 18.6326 0.046119 18.837 0.126033 19.0277C0.205946 19.2184 0.323015 19.3916 0.470549 19.5375C0.618084 19.6834 0.793191 19.799 0.985865 19.8778C1.17854 19.9566 1.385 19.997 1.59346 19.9968L14.7096 20C14.9181 20 15.1246 19.9593 15.3173 19.8802C15.5099 19.8011 15.6849 19.6851 15.8323 19.539C15.9797 19.3928 16.0965 19.2193 16.1761 19.0284C16.2557 18.8375 16.2966 18.6329 16.2963 18.4263L16.2915 1.57178C16.2907 1.15505 16.1228 0.755694 15.8248 0.461544C15.5267 0.167395 15.1229 0.00253857 14.7022 0.00323153ZM8.94002 10.2162C8.94 10.4008 8.87438 10.5795 8.75466 10.7209C8.63494 10.8624 8.46876 10.9576 8.28527 10.9898C8.23945 10.9978 8.19302 11.0019 8.14649 11.0021L3.96743 11.0009C3.76646 10.9876 3.57812 10.8991 3.44061 10.7533C3.3031 10.6076 3.22671 10.4155 3.22693 10.216C3.22716 10.0165 3.30398 9.82455 3.44183 9.6791C3.57967 9.53364 3.7682 9.44556 3.9692 9.43272L8.14561 9.4304C8.24989 9.43026 8.35317 9.45048 8.44955 9.48991C8.54593 9.52933 8.63351 9.58719 8.7073 9.66018C8.78108 9.73316 8.83961 9.81984 8.87955 9.91525C8.91948 10.0107 8.94003 10.1129 8.94002 10.2162ZM13.1136 7.07569C13.1136 7.2601 13.0481 7.43863 12.9286 7.58003C12.809 7.72143 12.6431 7.81668 12.4598 7.84912C12.4137 7.85728 12.3668 7.86112 12.3199 7.8606L3.96195 7.85916C3.75148 7.85902 3.54969 7.77607 3.40097 7.62856C3.25225 7.48106 3.16878 7.28107 3.16892 7.07261C3.16906 6.86415 3.25281 6.66428 3.40174 6.51697C3.55066 6.36966 3.75257 6.28699 3.96303 6.28713L12.3212 6.28954C12.4255 6.28927 12.5289 6.30939 12.6253 6.34875C12.7218 6.38811 12.8095 6.44593 12.8834 6.51891C12.9573 6.59189 13.0159 6.67859 13.0559 6.77404C13.0959 6.86949 13.1165 6.97183 13.1165 7.07518L13.1136 7.07569ZM13.1128 3.93214C13.1128 4.11672 13.0472 4.29541 12.9275 4.43686C12.8078 4.57831 12.6416 4.67351 12.4581 4.70575C12.4123 4.71369 12.3658 4.71779 12.3193 4.71802L3.96119 4.71561C3.85514 4.7186 3.74957 4.70049 3.65071 4.66235C3.55186 4.62421 3.46173 4.56682 3.38566 4.49357C3.3096 4.42033 3.24913 4.33271 3.20785 4.23592C3.16657 4.13912 3.14531 4.03511 3.14533 3.93003C3.14535 3.82495 3.16665 3.72094 3.20796 3.62416C3.24928 3.52738 3.30977 3.43978 3.38586 3.36656C3.46196 3.29335 3.5521 3.23599 3.65097 3.19788C3.74984 3.15978 3.85542 3.1417 3.96147 3.14472L12.3194 3.14616C12.4238 3.14576 12.5273 3.16579 12.6239 3.20508C12.7204 3.24437 12.8082 3.30216 12.8822 3.37513C12.9562 3.44811 13.0149 3.53483 13.055 3.63032C13.0951 3.72582 13.1157 3.82821 13.1158 3.93163L13.1128 3.93214Z"
        fill="#9A9A9A" />
    <path
        d="M15.1404 10.1454C15.1404 14.0114 12.0064 17.1454 8.14044 17.1454C4.27444 17.1454 1.14044 14.0114 1.14044 10.1454C1.14044 6.27937 4.27444 3.14536 8.14044 3.14536C12.0064 3.14536 15.1404 6.27937 15.1404 10.1454Z"
        fill="white" />
    <path fill-rule="evenodd" clip-rule="evenodd"
        d="M7.91468 4.74229C7.73145 4.7752 7.56978 4.81975 7.41838 4.87903C6.58072 5.20705 5.94638 5.94149 5.72863 6.83538C5.64874 7.16344 5.64136 7.28398 5.64101 8.26698C5.64076 8.99199 5.63562 9.20676 5.61813 9.22175C5.60573 9.23237 5.50757 9.27394 5.40001 9.3141C5.19342 9.39123 5.08793 9.46601 5.03111 9.57553C5.00222 9.63121 5 9.77667 5 11.6063V13.5771L5.04044 13.6569C5.11094 13.796 5.17573 13.8336 5.62724 13.9969C6.17425 14.1947 6.71479 14.3226 7.40935 14.4185C7.7616 14.4672 8.93405 14.4672 9.2863 14.4185C9.98086 14.3226 10.5214 14.1947 11.0684 13.9969C11.5199 13.8336 11.5847 13.796 11.6552 13.6569L11.6957 13.5771V11.6063C11.6957 9.77667 11.6934 9.63121 11.6645 9.57553C11.6077 9.46601 11.5022 9.39123 11.2956 9.3141C11.1881 9.27394 11.0899 9.23237 11.0775 9.22175C11.06 9.20676 11.0549 8.99199 11.0546 8.26698C11.0543 7.28398 11.0469 7.16344 10.967 6.83538C10.7493 5.94149 10.1149 5.20705 9.27728 4.87903C8.97664 4.76131 8.69813 4.71339 8.32978 4.716C8.17592 4.7171 7.98913 4.72893 7.91468 4.74229ZM8.62756 5.73101C8.90763 5.78427 9.08902 5.86026 9.31662 6.01966C9.75379 6.32582 10.0392 6.81796 10.0971 7.36526C10.1078 7.46631 10.1165 7.86652 10.1165 8.25464V8.96027L10.0759 8.95071C9.1147 8.72441 7.82098 8.70889 6.80476 8.91147C6.72535 8.92729 6.64211 8.94475 6.61977 8.95026L6.57916 8.96027V8.25464C6.57916 7.86652 6.5879 7.46631 6.59858 7.36526C6.70968 6.31398 7.66157 5.54728 8.62756 5.73101ZM8.5505 10.1488C8.87411 10.2524 9.0853 10.5692 9.06594 10.9219C9.05468 11.1275 8.98323 11.2788 8.82545 11.4313L8.70878 11.5441L8.70867 12.1988C8.70862 12.6016 8.70122 12.8815 8.68943 12.9262C8.65953 13.0399 8.55895 13.1437 8.44485 13.1787C8.35687 13.2057 8.33878 13.2057 8.2508 13.1787C8.13671 13.1437 8.03613 13.0399 8.00622 12.9262C7.99444 12.8815 7.98704 12.6016 7.98698 12.1988L7.98687 11.5441L7.8702 11.4313C7.78905 11.3529 7.73589 11.2808 7.69569 11.1946C7.50939 10.7953 7.70999 10.3072 8.12223 10.1567C8.23364 10.116 8.43639 10.1123 8.5505 10.1488Z"
        fill="#9A9A9A" />
</svg>