<svg width="18" height="18" viewBox="0 0 18 18" fill="none" xmlns="http://www.w3.org/2000/svg">
    <path
        d="M16.8821 12.125H3.74615C3.95397 11.7156 4.16256 11.2945 4.37115 10.8664C5.53834 10.9953 6.91959 10.1789 8.49147 8.42734C8.53834 8.55703 8.59069 8.69062 8.64772 8.82578C9.15631 10.0172 9.81256 10.6961 10.6008 10.8453C11.4087 11.0016 12.2087 10.593 13.029 9.60938C13.5618 10.2398 14.6555 10.875 16.8821 10.875C17.0479 10.875 17.2068 10.8092 17.324 10.6919C17.4412 10.5747 17.5071 10.4158 17.5071 10.25C17.5071 10.0842 17.4412 9.92527 17.324 9.80806C17.2068 9.69085 17.0479 9.625 16.8821 9.625C14.4891 9.625 13.7922 8.79766 13.7571 8.35781C13.7533 8.21242 13.6989 8.07291 13.6033 7.96331C13.5077 7.85371 13.3768 7.78089 13.2333 7.75738C13.0898 7.73388 12.9426 7.76116 12.817 7.83454C12.6914 7.90792 12.5954 8.02279 12.5454 8.15938C11.5946 9.58516 11.0313 9.65469 10.8266 9.61719C10.1758 9.49454 9.57037 7.98203 9.36647 6.99922C9.33979 6.8751 9.27593 6.76204 9.18341 6.6751C9.09089 6.58816 8.97409 6.53146 8.84855 6.51255C8.72301 6.49363 8.59468 6.5134 8.48065 6.56921C8.36662 6.62503 8.27229 6.71425 8.21022 6.825C6.66334 8.74844 5.62584 9.40313 4.97506 9.57032C5.63834 8.09532 6.13365 6.80078 6.45084 5.71094C6.98365 3.87969 7.02272 2.59922 6.56881 1.79687C6.33444 1.37812 5.84303 0.878906 4.85709 0.875H4.83756C3.58756 0.883594 2.60319 2.07031 2.13287 4.13281C1.85241 5.36016 1.80631 6.72578 2.00553 7.88281C2.20475 9.03984 2.61959 9.87579 3.22037 10.3742C2.92975 10.9781 2.63209 11.568 2.34303 12.1266H0.632093C0.466332 12.1266 0.307361 12.1924 0.190151 12.3096C0.0729407 12.4268 0.00709274 12.5858 0.00709274 12.7516C0.00709274 12.9173 0.0729407 13.0763 0.190151 13.1935C0.307361 13.3107 0.466332 13.3766 0.632093 13.3766H1.67975C0.795374 15.0172 0.107874 16.1609 0.0969364 16.1797C0.0523781 16.2501 0.022338 16.3287 0.00858166 16.4108C-0.00517468 16.493 -0.00236967 16.577 0.0168318 16.6581C0.0360334 16.7392 0.0712439 16.8156 0.120394 16.8828C0.169544 16.9501 0.231642 17.0068 0.303038 17.0497C0.374434 17.0926 0.453687 17.1208 0.53614 17.1327C0.618592 17.1445 0.702581 17.1398 0.783168 17.1187C0.863755 17.0976 0.939315 17.0606 1.00541 17.0099C1.0715 16.9592 1.12679 16.8958 1.16803 16.8235C1.17975 16.8031 2.0485 15.3555 3.09772 13.3766H16.8821C17.0479 13.3766 17.2068 13.3107 17.324 13.1935C17.4412 13.0763 17.5071 12.9173 17.5071 12.7516C17.5071 12.5858 17.4412 12.4268 17.324 12.3096C17.2068 12.1924 17.0479 12.1266 16.8821 12.1266V12.125ZM13.7571 8.375V8.35781C13.7576 8.36327 13.7576 8.36955 13.7571 8.375Z"
        fill="#9A9A9A" />
    <path
        d="M14.8185 9.32832C14.8185 13.1943 11.6845 16.3283 7.81853 16.3283C3.95254 16.3283 0.818531 13.1943 0.818531 9.32832C0.818531 5.46233 3.95254 2.32832 7.81853 2.32832C11.6845 2.32832 14.8185 5.46233 14.8185 9.32832Z"
        fill="white" />
    <path fill-rule="evenodd" clip-rule="evenodd"
        d="M7.28584 3.70033C7.1026 3.73323 6.94093 3.77779 6.78953 3.83707C5.95187 4.16509 5.31753 4.89953 5.09979 5.79342C5.01989 6.12148 5.01251 6.24201 5.01217 7.22502C5.01192 7.95003 5.00677 8.1648 4.98928 8.17979C4.97689 8.19041 4.87872 8.23198 4.77116 8.27214C4.56457 8.34927 4.45908 8.42405 4.40227 8.53357C4.37337 8.58925 4.37115 8.7347 4.37115 10.5643V12.5351L4.4116 12.6149C4.48209 12.754 4.54688 12.7916 4.9984 12.9549C5.5454 13.1527 6.08595 13.2806 6.78051 13.3766C7.13276 13.4252 8.3052 13.4252 8.65746 13.3766C9.35202 13.2806 9.89256 13.1527 10.4396 12.9549C10.8911 12.7916 10.9559 12.754 11.0264 12.6149L11.0668 12.5351V10.5643C11.0668 8.7347 11.0646 8.58925 11.0357 8.53357C10.9789 8.42405 10.8734 8.34927 10.6668 8.27214C10.5592 8.23198 10.4611 8.19041 10.4487 8.17979C10.4312 8.1648 10.426 7.95003 10.4258 7.22502C10.4254 6.24201 10.4181 6.12148 10.3382 5.79342C10.1204 4.89953 9.48609 4.16509 8.64843 3.83707C8.3478 3.71935 8.06928 3.67143 7.70093 3.67403C7.54708 3.67514 7.36029 3.68696 7.28584 3.70033ZM7.99872 4.68905C8.27878 4.74231 8.46018 4.8183 8.68777 4.97769C9.12494 5.28386 9.41038 5.776 9.46822 6.3233C9.47891 6.42435 9.48764 6.82456 9.48764 7.21268V7.91831L9.44704 7.90875C8.48586 7.68245 7.19214 7.66693 6.17591 7.86951C6.0965 7.88533 6.01327 7.90279 5.99092 7.9083L5.95032 7.91831V7.21268C5.95032 6.82456 5.95905 6.42435 5.96974 6.3233C6.08084 5.27201 7.03272 4.50532 7.99872 4.68905ZM7.92165 9.10685C8.24527 9.21045 8.45646 9.52722 8.43709 9.87996C8.42583 10.0855 8.35438 10.2368 8.19661 10.3894L8.07993 10.5022L8.07982 11.1568C8.07977 11.5596 8.07237 11.8395 8.06059 11.8843C8.03068 11.9979 7.9301 12.1017 7.816 12.1367C7.72802 12.1637 7.70994 12.1637 7.62196 12.1367C7.50786 12.1017 7.40728 11.9979 7.37738 11.8843C7.36559 11.8395 7.35819 11.5596 7.35814 11.1568L7.35803 10.5022L7.24135 10.3894C7.16021 10.3109 7.10704 10.2388 7.06685 10.1526C6.88054 9.75337 7.08114 9.26525 7.49339 9.11473C7.60479 9.07404 7.80754 9.07031 7.92165 9.10685Z"
        fill="#4294FE" />
</svg>