<svg width="20" height="20" viewBox="0 0 20 20" fill="none" xmlns="http://www.w3.org/2000/svg">
    <path
        d="M18.1243 13.125H4.98834C5.19615 12.7156 5.40475 12.2945 5.61334 11.8664C6.78053 11.9953 8.16178 11.1789 9.73365 9.42734C9.78053 9.55703 9.83287 9.69062 9.8899 9.82578C10.3985 11.0172 11.0547 11.6961 11.843 11.8453C12.6508 12.0016 13.4508 11.593 14.2712 10.6094C14.804 11.2398 15.8977 11.875 18.1243 11.875C18.29 11.875 18.449 11.8092 18.5662 11.6919C18.6834 11.5747 18.7493 11.4158 18.7493 11.25C18.7493 11.0842 18.6834 10.9253 18.5662 10.8081C18.449 10.6908 18.29 10.625 18.1243 10.625C15.7313 10.625 15.0344 9.79766 14.9993 9.35781C14.9955 9.21242 14.9411 9.07291 14.8455 8.96331C14.7499 8.85371 14.619 8.78089 14.4755 8.75738C14.332 8.73388 14.1847 8.76116 14.0592 8.83454C13.9336 8.90792 13.8375 9.02279 13.7876 9.15937C12.8368 10.5852 12.2735 10.6547 12.0688 10.6172C11.418 10.4945 10.8126 8.98203 10.6087 7.99922C10.582 7.8751 10.5181 7.76204 10.4256 7.6751C10.3331 7.58816 10.2163 7.53146 10.0907 7.51255C9.96519 7.49363 9.83687 7.5134 9.72284 7.56921C9.6088 7.62503 9.51448 7.71425 9.4524 7.825C7.90553 9.74844 6.86803 10.4031 6.21725 10.5703C6.88053 9.09531 7.37584 7.80078 7.69303 6.71094C8.22584 4.87969 8.2649 3.59922 7.811 2.79687C7.57662 2.37812 7.08522 1.87891 6.09928 1.875H6.07975C4.82975 1.88359 3.84537 3.07031 3.37506 5.13281C3.09459 6.36016 3.0485 7.72578 3.24772 8.88281C3.44694 10.0398 3.86178 10.8758 4.46256 11.3742C4.17194 11.9781 3.87428 12.568 3.58522 13.1266H1.87428C1.70852 13.1266 1.54955 13.1924 1.43234 13.3096C1.31513 13.4268 1.24928 13.5858 1.24928 13.7516C1.24928 13.9173 1.31513 14.0763 1.43234 14.1935C1.54955 14.3107 1.70852 14.3766 1.87428 14.3766H2.92194C2.03756 16.0172 1.35006 17.1609 1.33912 17.1797C1.29457 17.2501 1.26453 17.3286 1.25077 17.4108C1.23701 17.493 1.23982 17.577 1.25902 17.6581C1.27822 17.7391 1.31343 17.8155 1.36258 17.8828C1.41173 17.95 1.47383 18.0068 1.54523 18.0497C1.61662 18.0926 1.69587 18.1208 1.77833 18.1327C1.86078 18.1445 1.94477 18.1397 2.02536 18.1187C2.10594 18.0976 2.1815 18.0606 2.2476 18.0099C2.31369 17.9592 2.36898 17.8958 2.41022 17.8234C2.42194 17.8031 3.29069 16.3555 4.33991 14.3766H18.1243C18.29 14.3766 18.449 14.3107 18.5662 14.1935C18.6834 14.0763 18.7493 13.9173 18.7493 13.7516C18.7493 13.5858 18.6834 13.4268 18.5662 13.3096C18.449 13.1924 18.29 13.1266 18.1243 13.1266V13.125ZM14.9993 9.375V9.35859C14.9998 9.36405 14.9998 9.36954 14.9993 9.375Z"
        fill="#4294FE" />
</svg>