<svg width="18" height="18" viewBox="0 0 18 18" fill="none" xmlns="http://www.w3.org/2000/svg">
    <path
        d="M16.8821 12.125H3.74615C3.95397 11.7156 4.16256 11.2945 4.37115 10.8664C5.53834 10.9953 6.91959 10.1789 8.49147 8.42735C8.53834 8.55703 8.59069 8.69063 8.64772 8.82578C9.15631 10.0172 9.81256 10.6961 10.6008 10.8453C11.4087 11.0016 12.2087 10.593 13.029 9.60938C13.5618 10.2398 14.6555 10.875 16.8821 10.875C17.0479 10.875 17.2068 10.8092 17.324 10.6919C17.4412 10.5747 17.5071 10.4158 17.5071 10.25C17.5071 10.0842 17.4412 9.92527 17.324 9.80806C17.2068 9.69085 17.0479 9.62501 16.8821 9.62501C14.4891 9.62501 13.7922 8.79766 13.7571 8.35781C13.7533 8.21242 13.6989 8.07291 13.6033 7.96331C13.5077 7.85371 13.3768 7.78089 13.2333 7.75738C13.0898 7.73388 12.9426 7.76117 12.817 7.83454C12.6914 7.90792 12.5954 8.0228 12.5454 8.15938C11.5946 9.58516 11.0313 9.65469 10.8266 9.61719C10.1758 9.49454 9.57037 7.98203 9.36647 6.99922C9.33979 6.8751 9.27593 6.76204 9.18341 6.67511C9.09089 6.58817 8.97409 6.53147 8.84855 6.51255C8.72301 6.49363 8.59468 6.5134 8.48065 6.56921C8.36662 6.62503 8.27229 6.71425 8.21022 6.825C6.66334 8.74844 5.62584 9.40313 4.97506 9.57032C5.63834 8.09532 6.13365 6.80078 6.45084 5.71094C6.98365 3.87969 7.02272 2.59922 6.56881 1.79688C6.33444 1.37813 5.84303 0.878906 4.85709 0.875H4.83756C3.58756 0.883594 2.60319 2.07032 2.13287 4.13282C1.85241 5.36016 1.80631 6.72578 2.00553 7.88282C2.20475 9.03985 2.61959 9.87579 3.22037 10.3742C2.92975 10.9781 2.63209 11.568 2.34303 12.1266H0.632093C0.466332 12.1266 0.307361 12.1924 0.190151 12.3096C0.0729407 12.4268 0.00709274 12.5858 0.00709274 12.7516C0.00709274 12.9173 0.0729407 13.0763 0.190151 13.1935C0.307361 13.3107 0.466332 13.3766 0.632093 13.3766H1.67975C0.795374 15.0172 0.107874 16.1609 0.0969364 16.1797C0.0523781 16.2501 0.022338 16.3286 0.00858166 16.4108C-0.00517468 16.493 -0.00236967 16.577 0.0168318 16.6581C0.0360334 16.7391 0.0712439 16.8155 0.120394 16.8828C0.169544 16.9501 0.231642 17.0068 0.303038 17.0497C0.374434 17.0926 0.453687 17.1208 0.53614 17.1327C0.618592 17.1445 0.702581 17.1398 0.783168 17.1187C0.863755 17.0976 0.939315 17.0606 1.00541 17.0099C1.0715 16.9592 1.12679 16.8958 1.16803 16.8234C1.17975 16.8031 2.0485 15.3555 3.09772 13.3766H16.8821C17.0479 13.3766 17.2068 13.3107 17.324 13.1935C17.4412 13.0763 17.5071 12.9173 17.5071 12.7516C17.5071 12.5858 17.4412 12.4268 17.324 12.3096C17.2068 12.1924 17.0479 12.1266 16.8821 12.1266V12.125ZM13.7571 8.375V8.35781C13.7576 8.36327 13.7576 8.36955 13.7571 8.375Z"
        fill="#9A9A9A" />
    <path
        d="M15.0054 9.80806C15.0054 13.6741 11.8714 16.8081 8.00541 16.8081C4.13941 16.8081 1.00541 13.6741 1.00541 9.80806C1.00541 5.94207 4.13941 2.80806 8.00541 2.80806C11.8714 2.80806 15.0054 5.94207 15.0054 9.80806Z"
        fill="white" />
    <path fill-rule="evenodd" clip-rule="evenodd"
        d="M7.28584 4.82377C7.1026 4.85667 6.94093 4.90123 6.78953 4.9605C5.95187 5.28853 5.31753 6.02297 5.09979 6.91686C5.01989 7.24492 5.01251 7.36545 5.01217 8.34846C5.01192 9.07347 5.00677 9.28824 4.98928 9.30322C4.97689 9.31385 4.87872 9.35541 4.77116 9.39557C4.56457 9.47271 4.45908 9.54748 4.40227 9.65701C4.37337 9.71269 4.37115 9.85814 4.37115 11.6878V13.6585L4.4116 13.7383C4.48209 13.8775 4.54688 13.915 4.9984 14.0783C5.5454 14.2762 6.08595 14.4041 6.78051 14.5C7.13276 14.5487 8.3052 14.5487 8.65746 14.5C9.35202 14.4041 9.89256 14.2762 10.4396 14.0783C10.8911 13.915 10.9559 13.8775 11.0264 13.7383L11.0668 13.6585V11.6878C11.0668 9.85814 11.0646 9.71269 11.0357 9.65701C10.9789 9.54748 10.8734 9.47271 10.6668 9.39557C10.5592 9.35541 10.4611 9.31385 10.4487 9.30322C10.4312 9.28824 10.426 9.07347 10.4258 8.34846C10.4254 7.36545 10.4181 7.24492 10.3382 6.91686C10.1204 6.02297 9.48609 5.28853 8.64843 4.9605C8.3478 4.84279 8.06928 4.79486 7.70093 4.79747C7.54708 4.79858 7.36029 4.8104 7.28584 4.82377ZM7.99872 5.81249C8.27878 5.86574 8.46018 5.94174 8.68777 6.10113C9.12494 6.4073 9.41038 6.89944 9.46822 7.44674C9.47891 7.54779 9.48764 7.948 9.48764 8.33612V9.04175L9.44704 9.03219C8.48586 8.80589 7.19214 8.79037 6.17591 8.99295C6.0965 9.00877 6.01327 9.02623 5.99092 9.03173L5.95032 9.04175V8.33612C5.95032 7.948 5.95905 7.54779 5.96974 7.44674C6.08084 6.39545 7.03272 5.62876 7.99872 5.81249ZM7.92165 10.2303C8.24527 10.3339 8.45646 10.6507 8.43709 11.0034C8.42583 11.2089 8.35438 11.3602 8.19661 11.5128L8.07993 11.6256L8.07982 12.2803C8.07977 12.6831 8.07237 12.963 8.06059 13.0077C8.03068 13.1214 7.9301 13.2252 7.816 13.2602C7.72802 13.2871 7.70994 13.2871 7.62196 13.2602C7.50786 13.2252 7.40728 13.1214 7.37738 13.0077C7.36559 12.963 7.35819 12.6831 7.35814 12.2803L7.35803 11.6256L7.24135 11.5128C7.16021 11.4343 7.10704 11.3622 7.06685 11.2761C6.88054 10.8768 7.08114 10.3887 7.49339 10.2382C7.60479 10.1975 7.80754 10.1937 7.92165 10.2303Z"
        fill="#9A9A9A" />
</svg>