<svg width="18" height="18" viewBox="0 0 18 18" fill="none" xmlns="http://www.w3.org/2000/svg">
    <path
        d="M0.375125 6.58671L8.58266 11.8803C8.70504 11.959 8.84483 11.9987 8.98408 11.9995C9.12407 12.0002 9.26353 11.962 9.38674 11.8846L17.65 6.67872C17.8664 6.54189 17.9986 6.3041 18 6.04761C18.0014 5.79112 17.8716 5.55193 17.6567 5.41354L9.44915 0.119138C9.20443 -0.0381512 8.89146 -0.0398183 8.64508 0.114855L0.38184 5.32153C0.165494 5.45762 0.0332223 5.69541 0.0318609 5.9519C0.0304643 6.20839 0.160239 6.44758 0.375125 6.58671Z"
        fill="#9A9A9A" />
    <path
        d="M17.6248 11.4133L15.3141 9.92276L10.1841 13.1549C9.81975 13.3832 9.40286 13.5025 8.97611 13.5002C8.54937 13.4979 8.13377 13.3742 7.77411 13.1428L2.67647 9.85544L0.349994 11.3213C0.133644 11.4581 0.00137204 11.6959 1.06098e-05 11.9524C-0.00135082 12.2089 0.128389 12.4481 0.343278 12.5865L8.55081 17.8809C8.67319 17.9595 8.81224 17.9992 8.95223 18C9.09148 18.0007 9.23168 17.9625 9.35489 17.8851L17.6181 12.6785C17.8345 12.5424 17.9667 12.3046 17.9681 12.0481C17.9695 11.7916 17.8397 11.5524 17.6248 11.4133Z"
        fill="#9A9A9A" />
    <path
        d="M15.2077 9.09733C15.1892 12.5766 12.3586 15.3821 8.88535 15.3636C5.4121 15.3451 2.61144 12.5096 2.62991 9.03034C2.64838 5.55108 5.47898 2.74557 8.95223 2.76407C12.4255 2.78257 15.2261 5.61807 15.2077 9.09733Z"
        fill="white" />
    <path fill-rule="evenodd" clip-rule="evenodd"
        d="M8.50055 4.42833C8.33577 4.45707 8.19031 4.49639 8.05401 4.54901C7.29988 4.84022 6.72647 5.49815 6.52658 6.30158C6.45323 6.59645 6.44602 6.70488 6.44102 7.58955C6.43733 8.24204 6.43168 8.4353 6.4159 8.4487C6.40471 8.45821 6.31632 8.49515 6.21949 8.53077C6.03352 8.5992 5.93839 8.66599 5.88683 8.76429C5.8606 8.81426 5.85791 8.94515 5.84917 10.5917L5.83976 12.3654L5.87571 12.4374C5.93838 12.563 5.99641 12.5971 6.40128 12.7462C6.89177 12.9268 7.37679 13.0445 8.00033 13.1342C8.31657 13.1797 9.3699 13.1853 9.6866 13.1432C10.3111 13.0602 10.7973 12.9476 11.2897 12.7722C11.6961 12.6274 11.7545 12.5939 11.8185 12.4691L11.8552 12.3974L11.8646 10.6238C11.8734 8.97719 11.8721 8.84628 11.8464 8.79603C11.7959 8.69719 11.7014 8.62939 11.5162 8.55898C11.4198 8.52233 11.3318 8.48445 11.3207 8.47483C11.305 8.46126 11.3014 8.26795 11.3047 7.61546C11.3091 6.73079 11.303 6.62228 11.2328 6.32665C11.0414 5.52114 10.4751 4.85713 9.72406 4.55791C9.45453 4.45053 9.20454 4.40607 8.8736 4.40665C8.73537 4.40691 8.5675 4.41666 8.50055 4.42833ZM9.13628 5.32156C9.38764 5.37083 9.55025 5.44009 9.75396 5.58463C10.1453 5.86226 10.3993 6.30653 10.4487 6.79936C10.4578 6.89036 10.4638 7.25057 10.4619 7.59987L10.4585 8.23491L10.4221 8.22611C9.55964 8.01785 8.39742 7.99769 7.48346 8.17514C7.41204 8.189 7.33718 8.20432 7.31708 8.20916L7.28055 8.21798L7.28392 7.58294C7.28578 7.23365 7.29554 6.87351 7.30562 6.78262C7.41045 5.83703 8.2693 5.15158 9.13628 5.32156ZM9.04595 9.29706C9.33619 9.39185 9.52441 9.67794 9.50533 9.9953C9.49423 10.1802 9.42932 10.3161 9.28684 10.4526L9.18148 10.5535L9.17826 11.1427C9.17628 11.5052 9.1683 11.7571 9.1575 11.7973C9.13009 11.8994 9.03923 11.9924 8.93656 12.0233C8.85738 12.0472 8.84114 12.0471 8.76222 12.0224C8.65988 11.9904 8.57002 11.8965 8.54369 11.7941C8.53332 11.7537 8.52801 11.5018 8.52988 11.1393L8.53291 10.5501L8.42863 10.448C8.3561 10.377 8.30868 10.3119 8.27298 10.2341C8.10751 9.87393 8.29006 9.4356 8.66115 9.3021C8.76143 9.26602 8.9436 9.26363 9.04595 9.29706Z"
        fill="#4294FE" />
</svg>