<svg width="22" height="20" viewBox="0 0 22 20" fill="none" xmlns="http://www.w3.org/2000/svg">
    <path
        d="M1.38582 7.36995L10.5524 13.2032C10.6891 13.2899 10.8449 13.3332 10.9999 13.3332C11.1558 13.3332 11.3108 13.2899 11.4474 13.2032L20.6141 7.36995C20.8541 7.21663 20.9999 6.95163 20.9999 6.66663C20.9999 6.38163 20.8541 6.11663 20.6141 5.96413L11.4474 0.129989C11.1741 -0.0433298 10.8257 -0.0433298 10.5524 0.129989L1.38582 5.96413C1.14582 6.11663 1 6.38163 1 6.66663C0.999961 6.95163 1.14582 7.21663 1.38582 7.36995Z"
        fill="#4294FE" />
    <path
        d="M20.614 12.6308L18.0332 10.9883L12.3424 14.6099C11.9383 14.8658 11.4749 15.0008 10.9999 15.0008C10.5249 15.0008 10.0616 14.8658 9.65995 14.6108L3.96662 10.9883L1.38582 12.6308C1.14582 12.7841 1 13.0491 1 13.3341C1 13.6191 1.14582 13.8841 1.38582 14.0366L10.5524 19.8707C10.6891 19.9574 10.8441 20.0007 10.9999 20.0007C11.1549 20.0007 11.3108 19.9574 11.4474 19.8707L20.614 14.0366C20.854 13.8841 20.9998 13.6191 20.9998 13.3341C20.9999 13.0491 20.854 12.7841 20.614 12.6308Z"
        fill="#4294FE" />
</svg>