<svg width="20" height="20" viewBox="0 0 20 20" fill="none" xmlns="http://www.w3.org/2000/svg">
    <path
        d="M0.385818 7.36995L9.55244 13.2032C9.68912 13.2899 9.84494 13.3332 9.99994 13.3332C10.1558 13.3332 10.3108 13.2899 10.4474 13.2032L19.6141 7.36995C19.8541 7.21663 19.9999 6.95163 19.9999 6.66663C19.9999 6.38163 19.8541 6.11663 19.6141 5.96413L10.4474 0.129989C10.1741 -0.0433298 9.82572 -0.0433298 9.5524 0.129989L0.385818 5.96413C0.145819 6.11663 7.84395e-09 6.38163 7.84395e-09 6.66663C-3.90544e-05 6.95163 0.145819 7.21663 0.385818 7.36995Z"
        fill="#9A9A9A" />
    <path
        d="M19.614 12.6303L17.0332 10.9879L11.3424 14.6095C10.9383 14.8653 10.4749 15.0003 9.99994 15.0003C9.52494 15.0003 9.06163 14.8653 8.65995 14.6103L2.96662 10.9879L0.385818 12.6303C0.145819 12.7837 0 13.0487 0 13.3337C0 13.6187 0.145819 13.8837 0.385818 14.0362L9.55244 19.8703C9.68912 19.957 9.84412 20.0003 9.99994 20.0003C10.1549 20.0003 10.3108 19.957 10.4474 19.8703L19.614 14.0362C19.854 13.8837 19.9998 13.6187 19.9998 13.3337C19.9999 13.0487 19.854 12.7837 19.614 12.6303Z"
        fill="#9A9A9A" />
</svg>