<svg width="21" height="21" viewBox="0 0 21 21" fill="none" xmlns="http://www.w3.org/2000/svg">
    <path
        d="M0.417536 7.45546L9.55302 13.3374C9.68923 13.4248 9.84482 13.469 9.99982 13.4698C10.1556 13.4706 10.3109 13.4281 10.448 13.3422L19.6455 7.5577C19.8863 7.40565 20.0335 7.14143 20.0351 6.85644C20.0366 6.57145 19.8922 6.30568 19.653 6.1519L10.5175 0.269098C10.2451 0.0943275 9.89672 0.0924752 9.62249 0.264339L0.425011 6.04966C0.184205 6.20089 0.0369784 6.4651 0.035463 6.7501C0.0339086 7.03509 0.178356 7.30086 0.417536 7.45546Z"
        fill="#9A9A9A" />
    <path
        d="M19.6175 12.8184L17.0455 11.1623L11.3355 14.7536C10.93 15.0073 10.4659 15.1398 9.99095 15.1373C9.51596 15.1347 9.05337 14.9973 8.65305 14.7402L2.97907 11.0875L0.389564 12.7162C0.148754 12.8682 0.00152716 13.1325 1.18093e-05 13.4175C-0.00150354 13.7025 0.142905 13.9682 0.382089 14.122L9.51756 20.0048C9.65378 20.0922 9.80855 20.1363 9.96437 20.1372C10.1194 20.138 10.2754 20.0955 10.4125 20.0096L19.61 14.2242C19.8508 14.073 19.9981 13.8088 19.9996 13.5238C20.0011 13.2388 19.8567 12.973 19.6175 12.8184Z"
        fill="#9A9A9A" />
    <path
        d="M17.0159 10.2451C16.9953 14.111 13.8447 17.2283 9.97878 17.2078C6.11284 17.1872 2.99555 14.0366 3.0161 10.1707C3.03666 6.30472 6.18728 3.18742 10.0532 3.20798C13.9192 3.22853 17.0365 6.37916 17.0159 10.2451Z"
        fill="white" />
    <path fill-rule="evenodd" clip-rule="evenodd"
        d="M9.46162 5.0572C9.27821 5.08913 9.1163 5.13282 8.96459 5.19129C8.1252 5.51486 7.48696 6.24592 7.26447 7.13864C7.18283 7.46627 7.17481 7.58676 7.16924 8.56975C7.16513 9.29475 7.15885 9.50949 7.14128 9.52438C7.12882 9.53494 7.03044 9.57598 6.92267 9.61557C6.71567 9.6916 6.60979 9.76582 6.55239 9.87504C6.5232 9.93056 6.52021 10.076 6.51048 11.9056L6.5 13.8763L6.54002 13.9564C6.60977 14.0959 6.67436 14.1338 7.125 14.2995C7.67095 14.5002 8.2108 14.631 8.90484 14.7306C9.25683 14.7811 10.4293 14.7874 10.7818 14.7406C11.4768 14.6483 12.018 14.5233 12.5661 14.3284C13.0185 14.1675 13.0835 14.1303 13.1547 13.9915L13.1956 13.9119L13.206 11.9412C13.2158 10.1116 13.2143 9.96614 13.1857 9.91031C13.1295 9.80048 13.0244 9.72515 12.8182 9.64692C12.7109 9.60619 12.613 9.5641 12.6006 9.55341C12.5832 9.53833 12.5792 9.32354 12.5828 8.59853C12.5877 7.61554 12.5809 7.49497 12.5028 7.16649C12.2898 6.27145 11.6594 5.53365 10.8235 5.20118C10.5235 5.08187 10.2452 5.03246 9.87685 5.03311C9.72299 5.0334 9.53613 5.04423 9.46162 5.0572ZM10.1692 6.04969C10.449 6.10444 10.63 6.1814 10.8567 6.342C11.2923 6.65048 11.5751 7.14413 11.63 7.69174C11.6402 7.79284 11.6468 8.19309 11.6447 8.58121L11.641 9.28683L11.6004 9.27705C10.6404 9.04564 9.34683 9.02324 8.32954 9.22042C8.25005 9.23582 8.16672 9.25283 8.14435 9.25822L8.10369 9.26802L8.10744 8.5624C8.1095 8.17429 8.12037 7.77413 8.13159 7.67313C8.24828 6.62245 9.20422 5.86083 10.1692 6.04969ZM10.0687 10.467C10.3917 10.5723 10.6012 10.8902 10.58 11.2429C10.5676 11.4483 10.4954 11.5993 10.3368 11.751L10.2195 11.8631L10.2159 12.5178C10.2138 12.9206 10.2049 13.2005 10.1928 13.2452C10.1623 13.3586 10.0612 13.4619 9.94692 13.4963C9.8588 13.5228 9.84071 13.5227 9.75287 13.4953C9.63897 13.4597 9.53894 13.3553 9.50964 13.2415C9.49809 13.1967 9.49218 12.9168 9.49427 12.514L9.49764 11.8593L9.38157 11.7459C9.30084 11.667 9.24806 11.5946 9.20832 11.5082C9.02414 11.108 9.22734 10.621 9.64037 10.4726C9.752 10.4325 9.95476 10.4299 10.0687 10.467Z"
        fill="#9A9A9A" />
</svg>