<svg width="52" height="12" viewBox="0 0 52 12" fill="none" xmlns="http://www.w3.org/2000/svg">
<path d="M4.81719 0.46875V9H3.3582V0.46875H4.81719ZM7.49492 0.46875V1.64062H0.703907V0.46875H7.49492ZM10.0367 9.11719C9.56797 9.11719 9.14414 9.04102 8.76523 8.88867C8.39023 8.73242 8.06992 8.51562 7.8043 8.23828C7.54258 7.96094 7.34141 7.63477 7.20078 7.25977C7.06016 6.88477 6.98984 6.48047 6.98984 6.04688V5.8125C6.98984 5.31641 7.06211 4.86719 7.20664 4.46484C7.35117 4.0625 7.55234 3.71875 7.81016 3.43359C8.06797 3.14453 8.37266 2.92383 8.72422 2.77148C9.07578 2.61914 9.45664 2.54297 9.8668 2.54297C10.3199 2.54297 10.7164 2.61914 11.0563 2.77148C11.3961 2.92383 11.6773 3.13867 11.9 3.41602C12.1266 3.68945 12.2945 4.01562 12.4039 4.39453C12.5172 4.77344 12.5738 5.19141 12.5738 5.64844V6.25195H7.67539V5.23828H11.1793V5.12695C11.1715 4.87305 11.1207 4.63477 11.027 4.41211C10.9371 4.18945 10.7984 4.00977 10.6109 3.87305C10.4234 3.73633 10.1734 3.66797 9.86094 3.66797C9.62656 3.66797 9.41758 3.71875 9.23398 3.82031C9.0543 3.91797 8.90391 4.06055 8.78281 4.24805C8.66172 4.43555 8.56797 4.66211 8.50156 4.92773C8.43906 5.18945 8.40781 5.48438 8.40781 5.8125V6.04688C8.40781 6.32422 8.44492 6.58203 8.51914 6.82031C8.59727 7.05469 8.71055 7.25977 8.85898 7.43555C9.00742 7.61133 9.18711 7.75 9.39805 7.85156C9.60898 7.94922 9.84922 7.99805 10.1188 7.99805C10.4586 7.99805 10.7613 7.92969 11.027 7.79297C11.2926 7.65625 11.523 7.46289 11.7184 7.21289L12.4625 7.93359C12.3258 8.13281 12.148 8.32422 11.9293 8.50781C11.7105 8.6875 11.443 8.83398 11.1266 8.94727C10.8141 9.06055 10.4508 9.11719 10.0367 9.11719ZM14.4125 3.94922V9H13.0004V2.66016H14.3305L14.4125 3.94922ZM14.184 5.5957L13.7035 5.58984C13.7035 5.15234 13.7582 4.74805 13.8676 4.37695C13.977 4.00586 14.1371 3.68359 14.348 3.41016C14.559 3.13281 14.8207 2.91992 15.1332 2.77148C15.4496 2.61914 15.8148 2.54297 16.2289 2.54297C16.518 2.54297 16.7816 2.58594 17.0199 2.67188C17.2621 2.75391 17.4711 2.88477 17.6469 3.06445C17.8266 3.24414 17.9633 3.47461 18.057 3.75586C18.1547 4.03711 18.2035 4.37695 18.2035 4.77539V9H16.7914V4.89844C16.7914 4.58984 16.7445 4.34766 16.6508 4.17188C16.5609 3.99609 16.4301 3.87109 16.2582 3.79688C16.0902 3.71875 15.8891 3.67969 15.6547 3.67969C15.3891 3.67969 15.1625 3.73047 14.975 3.83203C14.7914 3.93359 14.641 4.07227 14.5238 4.24805C14.4066 4.42383 14.3207 4.62695 14.266 4.85742C14.2113 5.08789 14.184 5.33398 14.184 5.5957ZM18.1156 5.2207L17.4535 5.36719C17.4535 4.98438 17.5063 4.62305 17.6117 4.2832C17.7211 3.93945 17.8793 3.63867 18.0863 3.38086C18.2973 3.11914 18.557 2.91406 18.8656 2.76562C19.1742 2.61719 19.5277 2.54297 19.9262 2.54297C20.2504 2.54297 20.5395 2.58789 20.7934 2.67773C21.0512 2.76367 21.2699 2.90039 21.4496 3.08789C21.6293 3.27539 21.766 3.51953 21.8598 3.82031C21.9535 4.11719 22.0004 4.47656 22.0004 4.89844V9H20.5824V4.89258C20.5824 4.57227 20.5355 4.32422 20.4418 4.14844C20.352 3.97266 20.223 3.85156 20.0551 3.78516C19.8871 3.71484 19.6859 3.67969 19.4516 3.67969C19.2328 3.67969 19.0395 3.7207 18.8715 3.80273C18.7074 3.88086 18.5688 3.99219 18.4555 4.13672C18.3422 4.27734 18.2563 4.43945 18.1977 4.62305C18.143 4.80664 18.1156 5.00586 18.1156 5.2207ZM24.1965 3.87891V11.4375H22.7844V2.66016H24.0852L24.1965 3.87891ZM28.3273 5.77148V5.89453C28.3273 6.35547 28.2727 6.7832 28.1633 7.17773C28.0578 7.56836 27.8996 7.91016 27.6887 8.20312C27.4816 8.49219 27.2258 8.7168 26.9211 8.87695C26.6164 9.03711 26.2648 9.11719 25.8664 9.11719C25.4719 9.11719 25.1262 9.04492 24.8293 8.90039C24.5363 8.75195 24.2883 8.54297 24.0852 8.27344C23.882 8.00391 23.718 7.6875 23.593 7.32422C23.4719 6.95703 23.3859 6.55469 23.3352 6.11719V5.64258C23.3859 5.17773 23.4719 4.75586 23.593 4.37695C23.718 3.99805 23.882 3.67188 24.0852 3.39844C24.2883 3.125 24.5363 2.91406 24.8293 2.76562C25.1223 2.61719 25.4641 2.54297 25.8547 2.54297C26.2531 2.54297 26.6066 2.62109 26.9152 2.77734C27.2238 2.92969 27.4836 3.14844 27.6945 3.43359C27.9055 3.71484 28.0637 4.05469 28.1691 4.45312C28.2746 4.84766 28.3273 5.28711 28.3273 5.77148ZM26.9152 5.89453V5.77148C26.9152 5.47852 26.8879 5.20703 26.8332 4.95703C26.7785 4.70312 26.6926 4.48047 26.5754 4.28906C26.4582 4.09766 26.3078 3.94922 26.1242 3.84375C25.9445 3.73438 25.7277 3.67969 25.4738 3.67969C25.2238 3.67969 25.009 3.72266 24.8293 3.80859C24.6496 3.89062 24.4992 4.00586 24.3781 4.1543C24.257 4.30273 24.1633 4.47656 24.0969 4.67578C24.0305 4.87109 23.9836 5.08398 23.9563 5.31445V6.45117C24.0031 6.73242 24.0832 6.99023 24.1965 7.22461C24.3098 7.45898 24.4699 7.64648 24.677 7.78711C24.8879 7.92383 25.1574 7.99219 25.4855 7.99219C25.7395 7.99219 25.9563 7.9375 26.1359 7.82812C26.3156 7.71875 26.4621 7.56836 26.5754 7.37695C26.6926 7.18164 26.7785 6.95703 26.8332 6.70312C26.8879 6.44922 26.9152 6.17969 26.9152 5.89453ZM30.3652 0V9H28.9473V0H30.3652ZM34.8113 7.72852V4.70508C34.8113 4.47852 34.7703 4.2832 34.6883 4.11914C34.6063 3.95508 34.4813 3.82812 34.3133 3.73828C34.1492 3.64844 33.9422 3.60352 33.6922 3.60352C33.4617 3.60352 33.2625 3.64258 33.0945 3.7207C32.9266 3.79883 32.7957 3.9043 32.702 4.03711C32.6082 4.16992 32.5613 4.32031 32.5613 4.48828H31.1551C31.1551 4.23828 31.2156 3.99609 31.3367 3.76172C31.4578 3.52734 31.6336 3.31836 31.8641 3.13477C32.0945 2.95117 32.3699 2.80664 32.6902 2.70117C33.0105 2.5957 33.3699 2.54297 33.7684 2.54297C34.2449 2.54297 34.6668 2.62305 35.034 2.7832C35.4051 2.94336 35.6961 3.18555 35.907 3.50977C36.1219 3.83008 36.2293 4.23242 36.2293 4.7168V7.53516C36.2293 7.82422 36.2488 8.08398 36.2879 8.31445C36.3309 8.54102 36.3914 8.73828 36.4695 8.90625V9H35.0223C34.9559 8.84766 34.9031 8.6543 34.8641 8.41992C34.8289 8.18164 34.8113 7.95117 34.8113 7.72852ZM35.0164 5.14453L35.0281 6.01758H34.0145C33.7527 6.01758 33.5223 6.04297 33.323 6.09375C33.1238 6.14062 32.9578 6.21094 32.825 6.30469C32.6922 6.39844 32.5926 6.51172 32.5262 6.64453C32.4598 6.77734 32.4266 6.92773 32.4266 7.0957C32.4266 7.26367 32.4656 7.41797 32.5438 7.55859C32.6219 7.69531 32.7352 7.80273 32.8836 7.88086C33.0359 7.95898 33.2195 7.99805 33.4344 7.99805C33.7234 7.99805 33.9754 7.93945 34.1902 7.82227C34.409 7.70117 34.5809 7.55469 34.7059 7.38281C34.8309 7.20703 34.8973 7.04102 34.9051 6.88477L35.3621 7.51172C35.3152 7.67188 35.2352 7.84375 35.1219 8.02734C35.0086 8.21094 34.8602 8.38672 34.6766 8.55469C34.4969 8.71875 34.2801 8.85352 34.0262 8.95898C33.7762 9.06445 33.4871 9.11719 33.159 9.11719C32.7449 9.11719 32.3758 9.03516 32.0516 8.87109C31.7273 8.70312 31.4734 8.47852 31.2898 8.19727C31.1063 7.91211 31.0145 7.58984 31.0145 7.23047C31.0145 6.89453 31.077 6.59766 31.202 6.33984C31.3309 6.07812 31.5184 5.85938 31.7645 5.68359C32.0145 5.50781 32.3191 5.375 32.6785 5.28516C33.0379 5.19141 33.448 5.14453 33.909 5.14453H35.0164ZM39.9371 2.66016V3.69141H36.3629V2.66016H39.9371ZM37.3941 1.10742H38.8063V7.24805C38.8063 7.44336 38.8336 7.59375 38.8883 7.69922C38.9469 7.80078 39.027 7.86914 39.1285 7.9043C39.2301 7.93945 39.3492 7.95703 39.4859 7.95703C39.5836 7.95703 39.6773 7.95117 39.7672 7.93945C39.857 7.92773 39.9293 7.91602 39.984 7.9043L39.9898 8.98242C39.8727 9.01758 39.7359 9.04883 39.5797 9.07617C39.4273 9.10352 39.2516 9.11719 39.0523 9.11719C38.7281 9.11719 38.441 9.06055 38.191 8.94727C37.941 8.83008 37.7457 8.64062 37.6051 8.37891C37.4645 8.11719 37.3941 7.76953 37.3941 7.33594V1.10742ZM43.1469 9.11719C42.6781 9.11719 42.2543 9.04102 41.8754 8.88867C41.5004 8.73242 41.1801 8.51562 40.9145 8.23828C40.6527 7.96094 40.4516 7.63477 40.3109 7.25977C40.1703 6.88477 40.1 6.48047 40.1 6.04688V5.8125C40.1 5.31641 40.1723 4.86719 40.3168 4.46484C40.4613 4.0625 40.6625 3.71875 40.9203 3.43359C41.1781 3.14453 41.4828 2.92383 41.8344 2.77148C42.1859 2.61914 42.5668 2.54297 42.977 2.54297C43.4301 2.54297 43.8266 2.61914 44.1664 2.77148C44.5063 2.92383 44.7875 3.13867 45.0102 3.41602C45.2367 3.68945 45.4047 4.01562 45.5141 4.39453C45.6273 4.77344 45.684 5.19141 45.684 5.64844V6.25195H40.7855V5.23828H44.2895V5.12695C44.2816 4.87305 44.2309 4.63477 44.1371 4.41211C44.0473 4.18945 43.9086 4.00977 43.7211 3.87305C43.5336 3.73633 43.2836 3.66797 42.9711 3.66797C42.7367 3.66797 42.5277 3.71875 42.3441 3.82031C42.1645 3.91797 42.0141 4.06055 41.893 4.24805C41.7719 4.43555 41.6781 4.66211 41.6117 4.92773C41.5492 5.18945 41.518 5.48438 41.518 5.8125V6.04688C41.518 6.32422 41.5551 6.58203 41.6293 6.82031C41.7074 7.05469 41.8207 7.25977 41.9691 7.43555C42.1176 7.61133 42.2973 7.75 42.5082 7.85156C42.7191 7.94922 42.9594 7.99805 43.2289 7.99805C43.5688 7.99805 43.8715 7.92969 44.1371 7.79297C44.4027 7.65625 44.6332 7.46289 44.8285 7.21289L45.5727 7.93359C45.4359 8.13281 45.2582 8.32422 45.0395 8.50781C44.8207 8.6875 44.5531 8.83398 44.2367 8.94727C43.9242 9.06055 43.5609 9.11719 43.1469 9.11719ZM49.6672 7.2832C49.6672 7.14258 49.632 7.01562 49.5617 6.90234C49.4914 6.78516 49.3566 6.67969 49.1574 6.58594C48.9621 6.49219 48.673 6.40625 48.2902 6.32812C47.9543 6.25391 47.6457 6.16602 47.3645 6.06445C47.0871 5.95898 46.8488 5.83203 46.6496 5.68359C46.4504 5.53516 46.2961 5.35938 46.1867 5.15625C46.0773 4.95312 46.0227 4.71875 46.0227 4.45312C46.0227 4.19531 46.0793 3.95117 46.1926 3.7207C46.3059 3.49023 46.468 3.28711 46.6789 3.11133C46.8898 2.93555 47.1457 2.79688 47.4465 2.69531C47.7512 2.59375 48.091 2.54297 48.466 2.54297C48.9973 2.54297 49.4523 2.63281 49.8312 2.8125C50.2141 2.98828 50.507 3.22852 50.7102 3.5332C50.9133 3.83398 51.0148 4.17383 51.0148 4.55273H49.6027C49.6027 4.38477 49.5598 4.22852 49.4738 4.08398C49.3918 3.93555 49.2668 3.81641 49.0988 3.72656C48.9309 3.63281 48.7199 3.58594 48.466 3.58594C48.2238 3.58594 48.0227 3.625 47.8625 3.70312C47.7062 3.77734 47.5891 3.875 47.5109 3.99609C47.4367 4.11719 47.3996 4.25 47.3996 4.39453C47.3996 4.5 47.4191 4.5957 47.4582 4.68164C47.5012 4.76367 47.5715 4.83984 47.6691 4.91016C47.7668 4.97656 47.8996 5.03906 48.0676 5.09766C48.2395 5.15625 48.4543 5.21289 48.7121 5.26758C49.1965 5.36914 49.6125 5.5 49.9602 5.66016C50.3117 5.81641 50.5812 6.01953 50.7687 6.26953C50.9562 6.51562 51.05 6.82812 51.05 7.20703C51.05 7.48828 50.9895 7.74609 50.8684 7.98047C50.7512 8.21094 50.5793 8.41211 50.3527 8.58398C50.1262 8.75195 49.8547 8.88281 49.5383 8.97656C49.2258 9.07031 48.8742 9.11719 48.4836 9.11719C47.9094 9.11719 47.423 9.01562 47.0246 8.8125C46.6262 8.60547 46.3234 8.3418 46.1164 8.02148C45.9133 7.69727 45.8117 7.36133 45.8117 7.01367H47.177C47.1926 7.27539 47.2648 7.48438 47.3937 7.64062C47.5266 7.79297 47.6906 7.9043 47.8859 7.97461C48.0852 8.04102 48.2902 8.07422 48.5012 8.07422C48.7551 8.07422 48.968 8.04102 49.1398 7.97461C49.3117 7.9043 49.4426 7.81055 49.5324 7.69336C49.6223 7.57227 49.6672 7.43555 49.6672 7.2832Z" fill="url(#paint0_linear_2_1767)"/>
<defs>
<linearGradient id="paint0_linear_2_1767" x1="0" y1="-9" x2="53.9915" y2="-4.14441" gradientUnits="userSpaceOnUse">
<stop stop-color="#81D4DC"/>
<stop offset="1" stop-color="#5C8AD5"/>
</linearGradient>
</defs>
</svg>
