<svg width="83" height="83" viewBox="0 0 83 83" fill="none" xmlns="http://www.w3.org/2000/svg">
<g clip-path="url(#clip0_237_15885)">
<path d="M46.7264 28.1578L36.8809 30.9182C36.5522 31.0104 36.2017 30.9858 35.8891 30.8485C35.5765 30.7111 35.3213 30.4696 35.1669 30.1651L31.989 23.9176C32.7911 23.4731 33.4353 22.7904 33.8326 21.9639C34.2298 21.1374 34.3604 20.2078 34.2064 19.3038C34.0524 18.3998 33.6213 17.566 32.9727 16.9176C32.3242 16.2693 31.4902 15.8384 30.5862 15.6847C29.6821 15.5309 28.7526 15.6619 27.9262 16.0594C27.0998 16.4569 26.4173 17.1013 25.9731 17.9036C25.5289 18.7058 25.3449 19.6263 25.4466 20.5377C25.5482 21.4491 25.9306 22.3064 26.5407 22.991L16.4592 45.0324C16.1073 45.8026 16.0313 46.6704 16.2438 47.4901C16.4564 48.3098 16.9445 49.0313 17.6263 49.5336L40.8342 66.6834C41.5144 67.1868 42.3471 67.441 43.1926 67.4032C44.038 67.3654 44.8447 67.0379 45.4773 66.4758L63.5873 50.3673C64.4209 50.7495 65.3527 50.8632 66.2537 50.6929C67.1548 50.5225 67.9807 50.0763 68.6172 49.4162C69.2537 48.756 69.6693 47.9143 69.8067 47.0076C69.944 46.101 69.7963 45.174 69.3839 44.3549C68.9715 43.5358 68.3148 42.8651 67.5046 42.4355C66.6944 42.0059 65.7707 41.8386 64.8613 41.9568C63.952 42.075 63.1017 42.4728 62.4283 43.0952C61.7548 43.7176 61.2913 44.5339 61.102 45.4311L54.1944 44.2258C53.8579 44.1676 53.5521 43.9945 53.3291 43.736C53.106 43.4776 52.9796 43.1497 52.9712 42.8084L52.7211 32.5841C53.463 32.3009 54.115 31.8234 54.6088 31.2015C55.1026 30.5796 55.4199 29.8362 55.5275 29.0495C55.6351 28.2627 55.529 27.4615 55.2203 26.7298C54.9116 25.9982 54.4117 25.3631 53.7731 24.8911C53.1345 24.4192 52.3806 24.1278 51.5906 24.0476C50.8005 23.9673 50.0035 24.1011 49.283 24.435C48.5625 24.7688 47.9451 25.2904 47.4955 25.945C47.046 26.5996 46.7792 27.3655 46.7264 28.1578ZM34.4875 50.9892C34.0201 50.6439 33.6254 50.2098 33.3258 49.7119C33.0262 49.214 32.8276 48.662 32.7413 48.0873C32.6551 47.5127 32.6828 46.9266 32.823 46.3627C32.9633 45.7988 33.2132 45.268 33.5585 44.8006C33.9039 44.3333 34.3379 43.9386 34.8358 43.6389C35.3337 43.3393 35.8858 43.1407 36.4604 43.0545C37.0351 42.9682 37.6211 42.996 38.185 43.1362C38.749 43.2764 39.2798 43.5263 39.7471 43.8717C40.6909 44.5692 41.3191 45.613 41.4933 46.7736C41.6675 47.9342 41.3735 49.1164 40.6761 50.0602C39.9786 51.0041 38.9347 51.6322 37.7742 51.8064C36.6136 51.9806 35.4313 51.6867 34.4875 50.9892Z" fill="white"/>
</g>
<defs>
<clipPath id="clip0_237_15885">
<rect width="59" height="59" fill="white" transform="translate(35.3066 0.242188) rotate(36.4632)"/>
</clipPath>
</defs>
</svg>
