<svg width="26" height="10" viewBox="0 0 26 10" fill="none" xmlns="http://www.w3.org/2000/svg">
<path d="M3.17266 7.08398L4.87187 0.46875H5.7625L5.66289 2.17383L3.84648 9H2.9207L3.17266 7.08398ZM1.90117 0.46875L3.27812 7.03125L3.40117 9H2.4168L0.442187 0.46875H1.90117ZM7.69023 7.01367L9.04961 0.46875H10.5145L8.53984 9H7.55547L7.69023 7.01367ZM6.1082 0.46875L7.78984 7.10156L8.03594 9H7.11016L5.32305 2.17383L5.2293 0.46875H6.1082ZM10.3316 5.90039V5.76562C10.3316 5.30859 10.398 4.88477 10.5309 4.49414C10.6637 4.09961 10.8551 3.75781 11.1051 3.46875C11.359 3.17578 11.6676 2.94922 12.0309 2.78906C12.398 2.625 12.8121 2.54297 13.273 2.54297C13.7379 2.54297 14.152 2.625 14.5152 2.78906C14.8824 2.94922 15.193 3.17578 15.4469 3.46875C15.7008 3.75781 15.8941 4.09961 16.027 4.49414C16.1598 4.88477 16.2262 5.30859 16.2262 5.76562V5.90039C16.2262 6.35742 16.1598 6.78125 16.027 7.17188C15.8941 7.5625 15.7008 7.9043 15.4469 8.19727C15.193 8.48633 14.8844 8.71289 14.5211 8.87695C14.1578 9.03711 13.7457 9.11719 13.2848 9.11719C12.8199 9.11719 12.4039 9.03711 12.0367 8.87695C11.6734 8.71289 11.3648 8.48633 11.1109 8.19727C10.857 7.9043 10.6637 7.5625 10.5309 7.17188C10.398 6.78125 10.3316 6.35742 10.3316 5.90039ZM11.7437 5.76562V5.90039C11.7437 6.18555 11.773 6.45508 11.8316 6.70898C11.8902 6.96289 11.982 7.18555 12.107 7.37695C12.232 7.56836 12.3922 7.71875 12.5875 7.82812C12.7828 7.9375 13.0152 7.99219 13.2848 7.99219C13.5465 7.99219 13.773 7.9375 13.9645 7.82812C14.1598 7.71875 14.3199 7.56836 14.4449 7.37695C14.5699 7.18555 14.6617 6.96289 14.7203 6.70898C14.7828 6.45508 14.8141 6.18555 14.8141 5.90039V5.76562C14.8141 5.48438 14.7828 5.21875 14.7203 4.96875C14.6617 4.71484 14.568 4.49023 14.4391 4.29492C14.3141 4.09961 14.1539 3.94727 13.9586 3.83789C13.7672 3.72461 13.5387 3.66797 13.273 3.66797C13.0074 3.66797 12.777 3.72461 12.5816 3.83789C12.3902 3.94727 12.232 4.09961 12.107 4.29492C11.982 4.49023 11.8902 4.71484 11.8316 4.96875C11.773 5.21875 11.7437 5.48438 11.7437 5.76562ZM18.1527 3.86719V9H16.7406V2.66016H18.0883L18.1527 3.86719ZM20.0922 2.61914L20.0805 3.93164C19.9945 3.91602 19.9008 3.9043 19.7992 3.89648C19.7016 3.88867 19.6039 3.88477 19.5062 3.88477C19.2641 3.88477 19.0512 3.91992 18.8676 3.99023C18.684 4.05664 18.5297 4.1543 18.4047 4.2832C18.2836 4.4082 18.1898 4.56055 18.1234 4.74023C18.057 4.91992 18.018 5.12109 18.0062 5.34375L17.684 5.36719C17.684 4.96875 17.723 4.59961 17.8012 4.25977C17.8793 3.91992 17.9965 3.62109 18.1527 3.36328C18.3129 3.10547 18.5121 2.9043 18.7504 2.75977C18.9926 2.61523 19.2719 2.54297 19.5883 2.54297C19.6742 2.54297 19.766 2.55078 19.8637 2.56641C19.9652 2.58203 20.0414 2.59961 20.0922 2.61914ZM21.7258 0V9H20.3078V0H21.7258ZM25.6633 2.66016L22.9035 5.71875L21.3918 7.26562L21.0227 6.07031L22.1652 4.6582L23.9582 2.66016H25.6633ZM24.2629 9L22.2062 6.02344L23.0969 5.0332L25.8977 9H24.2629Z" fill="url(#paint0_linear_2_2937)"/>
<defs>
<linearGradient id="paint0_linear_2_2937" x1="0" y1="-9" x2="27.1592" y2="-7.77875" gradientUnits="userSpaceOnUse">
<stop stop-color="#81D4DC"/>
<stop offset="1" stop-color="#5C8AD5"/>
</linearGradient>
</defs>
</svg>
